<?xml version="1.0" standalone="no"?>
<!DOCTYPE svg PUBLIC "-//W3C//DTD SVG 20010904//EN"
 "http://www.w3.org/TR/2001/REC-SVG-20010904/DTD/svg10.dtd">
<svg version="1.0" xmlns="http://www.w3.org/2000/svg"
 width="882.000000pt" height="1280.000000pt" viewBox="0 0 882.000000 1280.000000"
 preserveAspectRatio="xMidYMid meet">
<metadata>
Created by potrace 1.15, written by Peter Selinger 2001-2017
</metadata>
<g transform="translate(0.000000,1280.000000) scale(0.100000,-0.100000)"
fill="#000000" stroke="none">
<path d="M4411 12555 c-13 -19 -26 -49 -30 -65 -3 -17 -10 -30 -16 -30 -5 1
-19 -27 -30 -61 -21 -62 -21 -62 -41 -43 -34 35 -71 49 -89 34 -8 -7 -15 -19
-15 -26 0 -8 -4 -14 -10 -14 -5 0 -10 4 -10 8 0 10 -10 12 -65 15 -38 2 -40 1
-43 -30 -2 -17 4 -46 13 -63 9 -17 13 -36 9 -42 -5 -7 -51 -9 -155 -4 -100 5
-167 4 -204 -4 -48 -10 -60 -9 -81 5 -23 15 -24 20 -18 61 12 81 -29 122 -103
102 -57 -15 -86 -46 -79 -83 6 -28 4 -31 -21 -33 -16 -1 -35 -12 -44 -24 -16
-20 -20 -21 -70 -10 -83 18 -385 34 -469 25 -41 -4 -93 -7 -115 -6 -22 1 -121
1 -220 1 -99 0 -211 2 -250 3 -86 3 -116 3 -182 -2 -48 -3 -55 -1 -86 29 -39
38 -74 42 -86 9 -5 -13 -9 -32 -8 -43 2 -18 -8 -19 -206 -22 l-209 -2 -28 31
c-27 28 -34 30 -87 28 l-58 -3 3 28 c5 41 -23 96 -66 129 l-37 28 -23 -26 -22
-26 -31 21 c-22 16 -39 21 -60 16 -25 -5 -35 0 -68 33 -34 34 -46 40 -92 43
-101 8 -146 -40 -135 -144 3 -32 4 -58 1 -58 -3 0 -20 31 -39 69 -27 52 -43
72 -69 85 -43 20 -61 20 -77 1 -7 -8 -18 -15 -25 -15 -8 0 -33 -19 -56 -41
-24 -23 -60 -52 -81 -65 -23 -15 -38 -32 -38 -44 0 -13 -14 -25 -44 -38 -53
-24 -57 -30 -63 -95 -5 -52 -5 -52 49 -106 29 -30 66 -59 82 -66 27 -11 25
-12 -39 -17 -97 -8 -119 -28 -122 -104 -1 -47 3 -68 23 -101 14 -24 31 -43 37
-43 7 0 18 -5 25 -12 9 -9 8 -16 -4 -29 -14 -15 -12 -20 19 -53 23 -24 40 -34
51 -30 13 5 15 1 10 -26 -4 -18 -1 -41 6 -56 14 -25 129 -107 168 -119 12 -3
27 -15 33 -27 9 -16 17 -19 43 -14 l33 6 -2 -126 c-2 -76 -7 -130 -14 -137 -6
-6 -11 -24 -11 -39 0 -31 -15 -35 -44 -13 -23 17 -73 19 -111 5 -63 -24 -67
-144 -6 -220 17 -21 28 -25 77 -25 34 0 59 -5 61 -11 2 -7 -12 -27 -33 -46
-29 -28 -37 -44 -41 -81 -4 -29 -1 -52 7 -61 9 -12 8 -20 -4 -38 -9 -12 -16
-33 -16 -45 0 -16 -9 -27 -33 -37 -41 -17 -64 -64 -47 -95 6 -12 37 -34 68
-49 49 -23 61 -34 83 -80 26 -52 27 -59 24 -199 -3 -122 -1 -145 12 -150 13
-5 14 -38 9 -262 -5 -214 -6 -464 -3 -796 1 -118 -7 -300 -14 -328 -4 -15 -19
-42 -34 -58 l-25 -31 36 -41 c37 -40 37 -40 30 -106 -4 -36 -11 -127 -14 -201
-7 -131 -8 -137 -40 -185 -46 -69 -39 -95 28 -109 l26 -5 1 -148 c3 -258 13
-732 19 -893 9 -216 9 -225 0 -316 -6 -66 -5 -86 7 -105 13 -20 15 -63 15
-237 l0 -214 -24 6 c-55 14 -110 -50 -121 -143 -8 -67 0 -90 45 -142 36 -40
40 -50 47 -124 14 -143 0 -208 -57 -256 -36 -30 -33 -59 6 -59 20 0 25 -6 30
-37 9 -53 10 -70 8 -134 -2 -51 -4 -57 -27 -63 -28 -7 -70 -59 -80 -97 -4 -16
0 -42 10 -64 20 -48 8 -63 -35 -45 -23 9 -34 10 -42 2 -16 -16 2 -34 67 -66
56 -27 95 -79 95 -126 0 -24 -22 -71 -55 -115 -28 -38 -35 -58 -44 -123 -6
-38 -4 -55 5 -63 21 -17 33 -1 33 44 -1 73 34 128 63 99 6 -6 11 -84 13 -195
3 -199 14 -417 22 -430 2 -4 5 -79 5 -167 1 -130 -2 -164 -15 -178 -9 -11 -13
-29 -10 -48 6 -39 -4 -46 -77 -55 -47 -7 -60 -13 -87 -46 -33 -39 -53 -98 -53
-157 0 -38 10 -49 34 -40 10 4 16 18 16 36 0 16 5 38 10 48 14 26 83 44 111
30 28 -16 59 -86 59 -138 0 -37 -4 -44 -26 -52 -14 -6 -36 -10 -50 -10 -14 0
-36 -12 -50 -27 -67 -72 -77 -158 -28 -239 38 -60 70 -68 127 -29 21 14 40 25
42 25 8 0 5 -84 -3 -95 -4 -6 -20 -12 -37 -13 -39 -2 -62 -32 -71 -89 -5 -35
-2 -53 11 -77 23 -41 60 -76 80 -76 12 0 15 -16 16 -92 0 -51 2 -117 4 -146 3
-49 1 -54 -22 -63 -13 -5 -39 -9 -58 -9 -30 0 -33 3 -32 28 4 109 -14 134 -84
113 -50 -15 -79 -56 -79 -113 0 -41 -3 -47 -35 -64 -40 -21 -45 -31 -34 -61 6
-16 17 -23 35 -23 21 0 25 -3 18 -17 -4 -10 -9 -34 -12 -54 -3 -31 2 -42 36
-78 44 -47 54 -49 100 -21 45 28 68 78 54 119 -9 26 -8 31 4 31 29 0 74 -30
74 -50 0 -10 4 -21 9 -24 4 -3 9 -43 10 -88 1 -46 4 -118 7 -160 l6 -77 -34
-33 c-18 -18 -47 -43 -63 -55 -17 -12 -36 -32 -43 -45 -7 -13 -25 -30 -41 -39
-16 -10 -31 -28 -34 -45 -4 -18 -19 -37 -39 -50 -19 -11 -32 -27 -30 -36 1 -9
-9 -28 -24 -43 -23 -23 -26 -33 -21 -71 3 -28 13 -55 28 -70 12 -13 18 -24 11
-24 -21 0 -42 -32 -42 -62 0 -23 -9 -39 -30 -57 -29 -25 -30 -28 -23 -84 5
-49 10 -61 29 -69 25 -12 32 -42 13 -53 -24 -15 -4 -39 35 -42 21 -1 46 -9 56
-18 15 -13 19 -13 29 -2 18 22 3 46 -28 45 -38 -1 -48 7 -48 39 0 17 -10 33
-27 46 -21 15 -26 27 -26 62 0 35 5 47 26 62 17 12 27 30 28 49 2 17 6 36 10
42 9 15 133 8 195 -12 25 -7 83 -24 129 -36 45 -13 82 -27 82 -31 0 -18 2 -24
12 -37 15 -18 28 -15 28 8 0 11 -6 20 -14 20 -13 0 -13 4 0 28 7 15 14 33 14
40 0 6 6 12 13 12 8 0 22 9 31 19 10 11 31 23 47 26 16 4 29 13 29 21 0 16
-36 19 -45 4 -3 -5 -15 -10 -26 -10 -10 0 -24 -9 -31 -20 -7 -11 -19 -20 -26
-20 -7 0 -17 -12 -22 -26 -7 -18 -15 -24 -28 -20 -33 10 -218 59 -259 69 -24
6 -43 14 -43 19 0 4 -10 8 -23 8 -31 0 -77 49 -77 82 0 18 10 34 31 49 21 15
29 27 26 41 -4 13 1 22 17 28 14 5 30 25 39 48 9 23 25 43 37 47 11 3 27 19
34 34 8 15 26 32 40 39 14 6 32 23 42 37 24 36 43 31 97 -23 38 -39 53 -64 72
-123 13 -41 37 -104 54 -141 17 -37 31 -74 31 -83 0 -19 26 -20 34 0 3 8 -1
27 -9 42 -43 81 -57 126 -67 203 -6 47 -8 97 -5 112 9 34 44 58 95 65 33 4 41
2 56 -21 24 -37 54 -47 89 -29 25 12 31 13 45 0 38 -32 113 -59 149 -54 72 12
108 -65 78 -167 -19 -63 -31 -74 -205 -173 -62 -36 -85 -54 -83 -67 1 -11 -5
-25 -13 -33 -22 -23 -17 -31 19 -28 27 2 32 6 32 29 1 14 5 30 10 35 12 10
196 126 245 154 45 25 87 17 100 -18 6 -16 17 -25 32 -25 20 0 20 -2 -13 -36
-33 -34 -33 -36 -15 -49 10 -8 22 -16 25 -17 22 -11 56 -64 57 -91 1 -18 5
-52 9 -77 9 -59 -9 -84 -56 -82 -40 2 -143 23 -214 45 -104 31 -145 38 -165
27 -29 -15 -25 -29 13 -45 50 -21 197 -123 239 -167 41 -41 49 -79 24 -113
-13 -18 -15 -18 -51 0 -37 17 -39 17 -52 -1 -7 -10 -13 -23 -13 -30 0 -23 -31
-44 -63 -44 -43 0 -122 -52 -143 -92 -21 -41 -33 -49 -55 -38 -33 18 -65 160
-75 330 -6 103 -14 125 -44 132 -19 4 -40 24 -40 37 0 6 -7 11 -15 11 -8 0
-20 9 -27 20 -16 25 -34 26 -40 2 -3 -11 -53 -43 -129 -82 -140 -71 -190 -103
-236 -152 -38 -39 -39 -42 -13 -68 11 -11 20 -29 20 -40 0 -28 54 -85 103
-108 24 -11 49 -27 56 -36 11 -13 24 -15 60 -10 45 6 48 5 71 -29 20 -29 31
-36 69 -40 81 -9 123 19 141 94 14 56 25 56 35 -1 7 -42 34 -84 66 -100 27
-15 55 3 79 50 11 21 30 42 42 46 12 3 28 13 36 20 7 8 28 14 45 14 39 0 77
24 77 49 0 31 18 39 61 27 38 -10 43 -9 60 13 21 25 26 90 9 121 -9 16 -4 19
58 25 124 12 266 20 314 17 46 -3 47 -4 53 -43 7 -38 18 -49 30 -29 3 6 12 10
19 10 8 0 42 19 76 41 34 23 74 44 88 45 15 2 146 3 292 3 411 -2 592 -2 763
0 186 2 211 -5 140 -40 -47 -24 -48 -25 -47 -71 0 -32 6 -54 19 -68 24 -26 15
-33 -66 -50 -75 -16 -137 1 -157 43 -12 25 -12 31 4 48 21 23 42 25 50 4 7
-19 44 -20 44 -2 0 8 -11 24 -25 37 -22 20 -27 21 -54 10 -48 -19 -65 -44 -58
-86 8 -50 40 -80 98 -94 50 -12 75 -10 169 17 123 36 210 92 277 180 18 23 41
38 76 48 89 27 91 26 83 -55 -4 -38 -4 -74 -1 -80 6 -10 68 26 123 72 78 66
187 89 237 50 l27 -22 -25 -9 c-15 -6 -26 -20 -30 -37 -8 -45 1 -57 40 -49 44
8 70 -1 76 -25 9 -33 35 -35 67 -5 30 28 50 27 50 -4 0 -25 25 -44 48 -37 16
5 21 -1 32 -39 8 -27 24 -55 42 -70 49 -41 68 -31 89 46 12 44 14 46 48 45 33
-1 36 2 39 29 2 17 8 34 13 39 15 16 11 29 -26 91 -40 66 -41 84 -2 28 56 -80
124 -126 152 -103 8 7 15 21 15 31 0 20 15 26 24 10 9 -15 68 -22 82 -10 8 6
14 24 14 39 0 22 -9 34 -36 51 -32 19 -34 23 -19 32 17 9 28 1 38 -27 2 -5 9
-6 17 -1 7 4 67 7 133 6 146 -3 183 -17 258 -99 45 -49 52 -53 66 -40 13 14
12 20 -9 54 -42 69 -37 74 80 75 92 0 142 -16 142 -46 0 -7 12 -29 26 -50 14
-21 23 -44 20 -51 -8 -22 -64 -17 -76 6 -24 45 -40 13 -18 -36 11 -24 16 -26
65 -22 29 3 61 12 70 21 16 14 24 14 78 1 76 -18 184 -21 213 -5 12 6 29 23
38 37 16 23 15 26 -1 44 -20 23 -44 26 -46 8 -1 -7 -2 -22 -3 -33 -1 -17 -9
-20 -61 -22 -33 -1 -70 0 -82 3 -19 4 -21 7 -12 23 7 10 9 30 5 44 -5 20 -17
29 -58 42 -29 9 -59 19 -67 21 -11 4 -9 9 8 20 19 13 42 15 134 10 62 -3 274
-5 473 -5 l360 0 55 -25 c73 -35 96 -34 104 3 11 50 24 54 148 46 135 -8 135
-8 267 -5 58 1 114 7 124 12 15 8 23 6 35 -10 9 -12 28 -24 42 -27 22 -5 28
-14 32 -48 4 -28 15 -49 36 -69 22 -21 31 -38 31 -62 0 -18 6 -40 13 -51 14
-18 33 -18 136 1 31 6 34 5 28 -15 -8 -33 32 -84 76 -95 49 -12 81 5 101 55
11 28 26 43 51 53 29 12 37 23 47 60 7 25 15 46 18 46 3 0 16 -33 28 -73 29
-98 79 -143 142 -131 24 5 35 15 46 44 13 33 21 38 68 50 45 11 58 19 89 62
28 36 37 59 37 88 0 33 3 37 20 33 31 -8 65 5 77 29 6 13 23 48 37 78 14 30
27 77 28 104 3 47 5 50 34 58 40 10 52 24 60 74 l6 41 -48 20 c-54 24 -186 53
-235 53 -32 0 -32 0 24 41 59 41 97 98 97 142 0 28 -35 77 -55 77 -13 0 -44
26 -115 94 -14 14 -37 30 -52 37 -16 7 -28 17 -29 23 0 6 -3 20 -5 31 -16 66
-24 736 -9 733 90 -16 126 204 43 263 -16 12 -38 19 -48 16 -27 -7 -26 16 2
54 31 41 27 86 -13 142 l-33 47 32 33 c35 36 39 56 27 147 -10 78 10 134 49
138 39 5 73 -30 92 -95 21 -71 42 -71 71 2 20 48 21 61 12 104 -5 26 -19 58
-29 69 -19 20 -77 42 -111 42 -19 0 -19 10 -22 875 -2 595 3 683 47 750 24 37
20 53 -16 63 -24 6 -35 16 -41 38 -8 26 -4 35 27 69 44 47 48 86 11 103 -24
11 -25 15 -27 109 -2 156 1 334 7 381 5 31 11 42 23 42 15 0 18 -10 18 -52 0
-59 22 -103 57 -115 31 -10 48 -5 79 24 33 32 41 61 29 115 -6 23 -9 44 -7 45
8 8 36 -11 41 -28 8 -26 45 -25 45 0 0 21 -50 64 -87 75 -16 5 -21 14 -21 37
2 65 -99 113 -157 75 l-24 -16 0 332 c1 234 6 358 15 418 16 92 12 125 -17
175 -21 35 -24 72 -33 375 -3 80 -10 208 -17 285 -17 198 -16 291 4 350 9 28
18 70 19 94 1 37 -3 48 -25 65 -25 20 -27 27 -27 104 0 75 2 82 20 82 10 0 35
16 54 35 33 32 34 37 24 67 -11 30 -9 34 18 53 83 58 100 100 50 123 -78 35
-118 111 -92 173 30 75 30 77 -11 96 -60 29 -65 47 -56 208 11 210 5 581 -13
742 -5 49 9 83 34 83 20 1 47 16 86 47 30 24 47 75 38 118 -6 35 -26 41 -51
16 -18 -18 -25 -19 -42 -10 -33 17 -61 93 -63 168 l-1 66 75 15 c87 18 100 32
100 121 0 64 -17 87 -71 95 -29 5 -39 1 -63 -25 -48 -50 -56 -43 -53 53 2 84
2 84 33 95 51 19 73 51 80 117 6 58 6 60 -35 109 -22 27 -41 56 -42 65 0 8 -2
26 -4 40 -11 79 -4 230 10 230 2 0 15 -4 29 -9 14 -6 36 -6 53 -1 15 5 52 14
82 20 52 10 56 9 83 -17 40 -38 38 -83 -3 -118 -42 -35 -93 -32 -123 8 -17 23
-19 32 -9 57 10 26 9 30 -7 30 -49 0 -49 -64 1 -118 26 -28 37 -32 80 -32 67
0 115 42 128 114 9 48 8 50 -28 82 -20 19 -42 34 -50 34 -9 0 -11 6 -5 18 4 9
9 37 11 62 4 40 1 49 -28 78 -56 57 -115 54 -156 -7 -28 -42 -29 -70 -3 -123
11 -23 18 -43 16 -45 -1 -2 -14 7 -28 19 -14 13 -33 28 -42 33 -14 8 -18 31
-23 125 -5 103 -4 120 15 162 20 43 25 47 72 57 28 6 59 11 69 11 9 0 27 9 39
20 12 11 25 20 30 20 11 0 47 41 55 62 4 10 3 28 -2 40 -6 18 -2 26 23 43 38
26 55 68 38 95 -10 17 -6 23 34 51 61 42 73 71 59 151 -6 35 -16 73 -23 85
-17 30 -74 46 -150 41 -34 -1 -62 -1 -62 2 0 3 16 14 35 24 36 20 94 78 114
113 16 32 14 69 -9 113 -23 45 -38 55 -97 65 -31 5 -44 12 -48 28 -11 38 -28
67 -40 67 -6 0 -17 15 -24 33 -17 43 -65 69 -117 65 -43 -3 -33 11 -114 -160
-17 -38 -33 -68 -34 -68 -2 0 -1 31 2 69 3 52 0 82 -14 121 -22 62 -31 70 -81
73 -51 4 -92 -12 -130 -51 -27 -27 -37 -31 -76 -30 -49 2 -74 -12 -88 -49 -6
-18 -16 -23 -42 -23 -49 0 -101 -63 -99 -120 0 -23 -4 -27 -29 -27 -16 0 -39
-9 -52 -21 -19 -18 -39 -22 -135 -27 l-112 -7 0 35 c0 52 -17 61 -87 47 -51
-11 -246 -15 -298 -7 -39 7 -63 18 -69 32 -8 21 -42 19 -74 -5 -15 -11 -43
-22 -62 -25 -19 -2 -62 -9 -95 -15 -84 -14 -160 -13 -174 3 -6 8 -8 16 -5 20
3 3 -4 10 -15 17 -16 8 -41 7 -104 -6 -45 -9 -174 -20 -287 -25 -113 -6 -225
-11 -250 -13 -63 -5 -142 13 -164 36 -15 16 -27 19 -58 14 -28 -5 -39 -3 -37
6 5 37 -3 70 -21 88 -24 24 -76 26 -107 5 -21 -15 -57 -101 -48 -115 13 -21
-33 -29 -198 -32 -161 -3 -177 -1 -177 14 0 9 -4 19 -9 22 -5 3 -7 14 -5 24 6
26 -11 48 -28 35 -7 -6 -28 -14 -45 -18 -27 -5 -33 -3 -33 10 0 26 -29 29 -60
6 -16 -11 -31 -21 -33 -21 -3 0 -7 17 -11 38 -3 24 -17 49 -36 67 -16 16 -30
36 -30 44 -1 26 -54 116 -70 118 -8 2 -26 -13 -39 -32z m65 -67 c20 -40 27
-67 26 -110 -1 -60 9 -72 30 -38 19 30 28 24 28 -19 0 -34 -6 -44 -39 -70 -34
-27 -40 -29 -51 -16 -16 19 -35 19 -66 -1 -32 -22 -41 -12 -49 58 -7 54 -6 58
15 66 18 7 24 18 26 56 3 41 36 126 49 126 3 0 17 -24 31 -52z m-3483 -27 c43
-41 49 -44 68 -33 18 12 26 10 60 -12 48 -32 57 -32 69 -1 13 34 23 32 60 -14
26 -34 30 -47 28 -89 -3 -47 -5 -51 -45 -73 -24 -13 -43 -27 -43 -31 0 -4 -15
-15 -32 -24 -31 -16 -73 -46 -108 -78 -8 -7 -28 -21 -43 -31 -27 -18 -28 -17
-43 4 -15 21 -44 29 -44 12 0 -5 -3 -23 -7 -41 -5 -28 -4 -32 10 -27 11 4 17
1 17 -8 0 -8 2 -15 5 -15 11 0 115 70 178 118 120 94 207 146 242 146 41 0 70
-21 55 -39 -6 -7 -10 -17 -9 -21 1 -5 -1 -21 -5 -37 -9 -29 7 -81 28 -95 27
-17 64 -73 60 -89 -3 -10 -1 -37 4 -60 14 -63 -7 -78 -107 -77 -77 1 -229 27
-263 45 -13 7 -23 7 -31 1 -7 -6 -27 -12 -46 -14 -19 -2 -36 -9 -39 -15 -3
-10 15 -13 66 -13 64 0 72 -3 128 -41 78 -55 201 -179 209 -212 9 -36 0 -57
-25 -57 -29 0 -60 -18 -60 -35 0 -18 -31 -35 -65 -35 -19 0 -42 -14 -73 -45
-31 -31 -54 -45 -72 -45 -15 0 -36 -10 -49 -24 -28 -30 -62 -39 -95 -26 -24 9
-25 11 -23 107 2 84 -2 109 -26 175 l-27 77 30 33 c30 32 39 71 20 83 -6 3
-14 -5 -19 -19 -8 -19 -15 -23 -33 -19 -13 3 -28 10 -35 15 -7 5 -14 5 -18 -2
-9 -14 -26 -13 -24 3 4 29 -3 37 -31 37 -23 0 -30 4 -30 20 0 11 6 20 14 20
10 0 12 8 7 33 -7 29 -10 32 -42 29 -38 -4 -65 -24 -55 -41 4 -6 15 -11 24
-11 12 -1 10 -5 -8 -15 l-25 -14 30 -1 c28 -1 28 -2 10 -12 -11 -6 -69 -42
-128 -80 -60 -38 -114 -67 -122 -64 -7 2 -27 0 -44 -7 -26 -10 -34 -9 -48 6
-11 11 -13 17 -5 17 7 0 12 13 12 29 0 23 -8 34 -35 50 -39 23 -55 54 -61 118
-4 47 13 72 49 74 144 9 249 7 305 -7 61 -15 92 -14 92 3 0 11 -138 43 -184
43 -24 0 -63 13 -105 35 -134 71 -175 187 -76 213 20 6 35 19 46 41 14 31 65
80 83 81 4 0 17 11 27 24 20 25 94 66 121 66 23 0 41 -26 92 -130 26 -52 52
-104 58 -114 6 -11 13 -48 16 -82 4 -59 4 -61 -22 -68 -29 -7 -32 -17 -15 -49
11 -21 11 -21 -14 2 -25 23 -57 24 -57 1 0 -11 74 -60 91 -60 6 0 9 6 6 14 -3
8 1 17 10 20 10 4 14 15 11 31 -4 17 -1 25 8 25 8 0 15 10 15 23 4 59 -4 138
-17 194 -25 100 -25 178 -2 208 17 22 27 25 71 24 47 -1 56 -6 100 -48z m6944
27 c29 -22 33 -188 7 -298 -24 -100 -32 -119 -55 -113 -11 3 -19 0 -19 -6 0
-7 -4 -9 -10 -6 -19 12 -31 -5 -19 -28 17 -32 17 -32 39 -7 15 18 23 20 34 11
18 -15 29 -1 51 69 10 30 44 107 75 170 32 63 61 126 65 140 11 38 25 50 55
50 31 0 80 -43 80 -70 0 -9 11 -22 25 -28 14 -7 25 -20 25 -31 0 -32 32 -61
70 -65 49 -4 76 -21 87 -53 22 -66 -39 -144 -157 -203 -14 -7 -33 -21 -42 -30
-10 -11 -40 -20 -75 -24 -32 -4 -70 -9 -84 -12 -25 -5 -26 -3 -23 30 3 45 -13
56 -37 25 -10 -13 -14 -26 -8 -27 6 -3 6 -9 -1 -18 -15 -17 -4 -35 15 -27 8 3
15 1 15 -5 0 -5 -9 -12 -19 -15 -30 -8 -21 -56 13 -74 36 -19 60 -10 54 21 -4
18 0 26 15 30 10 2 16 9 13 15 -4 6 8 12 26 15 18 3 72 13 120 21 120 21 204
22 227 1 10 -9 24 -44 30 -76 14 -72 7 -90 -50 -126 -48 -30 -62 -60 -42 -91
13 -20 12 -23 -11 -39 -23 -14 -31 -15 -59 -4 -17 8 -39 19 -47 25 -8 6 -40
24 -70 40 -79 40 -135 81 -159 114 -19 26 -26 29 -65 26 -24 -1 -50 -6 -57
-11 -8 -5 -18 -9 -24 -9 -5 0 -9 -11 -7 -24 2 -19 0 -21 -11 -12 -11 8 -21 4
-46 -19 -50 -49 -38 -70 15 -25 l29 25 6 -57 c14 -146 -19 -330 -63 -357 -23
-14 -48 1 -67 38 -12 27 -16 28 -65 22 -50 -5 -54 -4 -75 24 -29 39 -70 59
-126 62 -36 1 -50 7 -65 26 -18 22 -18 27 -5 58 22 52 61 98 123 146 31 24 65
53 75 66 11 12 41 34 68 47 27 14 49 29 49 35 0 15 -20 22 -33 12 -7 -5 -25
-14 -42 -20 -16 -5 -61 -22 -100 -36 -38 -14 -109 -37 -157 -51 -82 -24 -90
-24 -118 -10 -16 8 -34 24 -39 34 -12 22 -4 85 16 123 14 29 20 118 9 136 -3
6 12 30 34 53 22 23 42 50 45 60 4 11 16 19 27 19 15 0 19 5 15 20 -13 49 69
7 129 -65 44 -53 203 -177 216 -168 5 3 7 12 3 20 -4 13 -3 13 9 4 30 -25 63
18 35 46 -14 14 -59 4 -59 -13 0 -8 -3 -14 -6 -14 -7 0 -66 53 -134 120 -26
25 -60 57 -77 71 -33 28 -53 59 -53 83 0 26 44 67 75 70 17 2 33 4 37 5 3 0
15 17 27 36 19 32 24 35 67 35 39 0 52 6 91 39 54 48 102 58 140 29z m-2629
-117 c22 -14 30 -63 14 -93 -15 -31 -25 -34 -61 -15 -30 15 -38 60 -16 93 16
24 40 30 63 15z m-1714 -24 c16 -25 -4 -71 -33 -75 -51 -8 -99 27 -85 61 13
36 98 46 118 14z m695 -30 c17 -15 31 -30 32 -35 1 -14 8 -47 15 -74 9 -38
-15 -45 -131 -39 -69 4 -93 9 -77 14 12 5 22 15 22 24 0 10 -6 13 -16 9 -13
-5 -15 -1 -10 19 5 18 0 35 -14 55 -11 15 -20 30 -20 32 0 6 70 1 77 -6 3 -3
17 -6 30 -6 18 0 23 5 23 25 0 20 4 23 19 17 11 -4 33 -19 50 -35z m366 -28
c-7 -29 -6 -31 16 -24 13 4 28 11 34 16 5 5 19 9 32 9 20 0 22 -4 16 -30 -4
-21 0 -42 12 -64 34 -63 7 -81 -133 -91 -84 -5 -92 -4 -101 14 -24 44 -13 73
51 138 34 35 66 63 71 63 5 0 6 -14 2 -31z m-2693 -20 c14 -8 18 -17 14 -33
-3 -13 1 -31 8 -42 12 -16 16 -16 31 -4 14 12 18 12 26 -1 5 -8 9 -11 9 -7 0
4 11 3 25 -2 19 -7 27 -6 31 3 6 17 149 20 177 5 24 -12 34 -3 17 17 -10 13
-9 15 9 15 11 0 21 -6 21 -14 0 -20 62 -30 73 -11 10 19 24 19 59 1 25 -13 29
-13 37 2 8 14 14 14 49 4 51 -15 55 -15 48 3 -7 18 4 19 39 3 21 -10 28 -9 35
2 7 11 12 11 23 2 8 -7 27 -10 44 -6 17 3 40 1 53 -6 29 -15 41 -3 15 17 -19
13 -17 14 20 7 22 -3 45 -10 50 -14 6 -5 21 -8 35 -8 14 1 34 -3 44 -7 16 -7
18 -5 13 9 -6 14 -3 16 16 10 12 -3 27 -10 33 -15 14 -12 24 -1 17 18 -5 13
-3 14 18 3 13 -7 33 -20 43 -29 18 -15 19 -15 14 7 -7 27 -2 27 39 3 33 -21
51 -17 32 6 -20 24 14 15 63 -16 49 -31 70 -30 41 1 -19 21 -10 23 54 7 32 -9
47 -9 52 -1 9 14 56 32 87 32 17 0 27 -8 34 -25 8 -21 13 -24 28 -14 14 9 33
7 87 -10 61 -18 71 -19 81 -6 6 8 14 12 17 8 13 -12 61 -12 69 0 6 8 10 9 16
1 4 -5 16 -11 27 -11 35 -2 129 -20 149 -28 16 -7 18 -5 13 8 -8 22 -5 21 43
-3 71 -36 60 -40 -116 -35 l-166 6 -33 -36 c-34 -35 -65 -46 -65 -22 0 7 -9
18 -20 25 -17 10 -23 9 -37 -8 -24 -27 -62 -25 -93 5 l-27 26 -244 -10 c-228
-8 -667 -7 -894 3 -82 4 -107 1 -141 -13 -23 -11 -45 -24 -48 -30 -11 -17 -44
-13 -76 11 -38 28 -187 39 -436 33 -170 -4 -183 -3 -199 15 -16 18 -16 21 -2
44 14 20 23 24 59 22 24 -1 50 4 58 11 13 10 21 10 45 -3 22 -11 30 -12 36 -2
6 9 13 8 28 -6 21 -19 21 -19 21 2 0 26 8 27 39 6 22 -16 24 -16 33 0 9 16 12
16 43 -3 28 -16 34 -17 39 -5 4 11 10 12 25 4 26 -14 34 -13 28 4 -3 8 5 18
20 25 20 9 24 17 20 36 -5 28 -3 29 25 14z m4728 -39 c18 -16 28 -30 22 -30
-5 0 -12 -7 -15 -15 -5 -11 4 -13 48 -11 35 2 53 -1 52 -8 -1 -6 5 -9 13 -7 8
3 38 7 65 9 28 2 54 8 60 13 5 5 22 9 37 9 16 0 31 7 34 15 5 12 61 35 88 35
5 0 6 -18 2 -40 -4 -25 -2 -40 4 -40 5 0 10 -6 10 -14 0 -11 14 -13 68 -9 37
2 78 10 91 16 19 9 25 9 28 0 3 -7 14 -13 25 -13 19 0 19 -1 -5 -20 -23 -18
-40 -20 -178 -19 -138 0 -155 -2 -180 -20 -27 -20 -27 -20 -41 0 -15 23 -35
25 -173 14 -55 -4 -143 -8 -195 -9 -98 -3 -140 -11 -152 -29 -5 -8 -13 -6 -25
5 -10 9 -39 19 -64 22 -38 5 -52 2 -73 -15 l-27 -21 -25 23 c-24 23 -26 23
-336 25 -171 1 -342 -1 -380 -5 -38 -4 -71 -4 -74 1 -8 13 -67 9 -125 -9 -30
-9 -58 -15 -64 -14 -5 2 -30 5 -55 8 -57 6 -71 18 -29 27 l33 6 -23 17 c-20
13 -39 15 -130 8 -181 -13 -167 -14 -179 17 -6 15 -7 28 -2 28 5 0 10 -6 13
-12 3 -10 10 -8 25 5 13 12 21 14 24 7 2 -7 13 -4 30 10 23 18 30 19 48 8 15
-10 24 -10 39 -1 10 6 28 9 39 6 11 -2 28 0 38 5 11 5 28 6 39 2 11 -4 27 -4
37 1 11 6 18 4 21 -5 8 -19 105 -7 135 17 7 5 13 8 15 6 1 -2 7 -13 13 -24 17
-30 68 -41 99 -21 24 16 25 16 25 -4 0 -24 3 -24 40 -5 28 15 30 14 30 -5 0
-23 6 -24 39 -6 19 10 29 11 42 3 14 -9 27 -7 55 6 20 10 44 15 54 12 9 -3 23
2 30 10 10 12 15 13 21 3 6 -9 13 -9 31 0 24 12 44 12 66 -1 6 -5 18 -5 25 0
6 4 72 8 145 8 115 0 136 3 147 18 17 23 56 22 62 -2 3 -12 13 -19 26 -18 12
0 40 0 62 -2 32 -2 36 -4 20 -11 -11 -5 -32 -9 -47 -9 -16 -1 -28 -7 -28 -14
0 -10 11 -13 38 -10 20 2 49 4 64 4 15 0 46 6 69 14 23 8 58 15 78 15 62 0
111 12 111 26 0 8 -10 14 -22 14 -25 0 -14 15 17 23 11 3 21 5 21 6 1 0 16
-12 34 -29z m-2372 -115 c6 -3 12 -16 12 -29 0 -27 -37 -96 -51 -96 -4 0 -24
-14 -44 -31 -37 -33 -73 -34 -60 -1 4 9 9 23 12 30 7 18 -45 16 -63 -3 -20
-20 -63 -19 -71 1 -3 10 7 27 31 48 23 21 36 43 36 58 0 22 5 25 36 26 20 1
39 4 42 7 5 5 94 -3 120 -10z m749 -54 c41 -21 76 -31 109 -32 49 -1 68 1 204
21 43 6 215 11 403 11 l329 0 45 -26 c55 -30 58 -30 90 -5 35 28 64 25 108
-10 46 -36 52 -37 67 -5 13 29 27 32 198 39 69 3 152 9 186 12 64 7 62 8 103
-46 l20 -25 38 38 39 37 138 0 137 0 -5 -82 c-3 -46 -10 -99 -15 -118 -27 -88
-5 -137 74 -164 33 -12 46 -10 133 17 145 44 155 45 99 7 -87 -59 -147 -146
-147 -215 0 -11 10 -33 23 -48 19 -24 31 -29 78 -31 66 -4 90 -15 119 -56 25
-35 59 -46 90 -30 19 10 25 7 57 -29 41 -48 68 -52 110 -17 21 18 34 42 43 81
7 31 17 58 21 61 11 6 29 -88 20 -106 -5 -8 -8 -68 -7 -134 1 -107 -1 -120
-19 -132 -11 -8 -30 -14 -43 -14 -35 0 -39 -28 -8 -54 41 -32 50 -82 62 -348
8 -184 5 -193 -60 -183 -23 4 -49 9 -59 11 -28 8 -87 -57 -87 -95 0 -50 25
-98 60 -116 30 -15 36 -15 80 -1 60 20 57 20 63 -4 8 -33 7 -35 -16 -32 -45 6
-90 -76 -65 -121 6 -12 11 -42 9 -67 -2 -49 -27 -80 -64 -80 -31 0 -67 -39
-67 -72 0 -74 68 -114 142 -83 24 10 34 -36 52 -240 13 -146 25 -946 17 -1155
-2 -49 -14 -70 -41 -70 -10 0 -30 -15 -44 -32 -22 -29 -24 -35 -11 -44 8 -6
15 -16 15 -22 0 -5 17 -32 38 -59 22 -27 44 -58 51 -71 12 -23 14 -150 15
-1039 1 -376 1 -382 23 -411 18 -24 21 -38 16 -81 -4 -37 -2 -51 7 -51 10 0
11 -17 5 -72 -4 -40 -9 -131 -9 -203 -1 -71 -2 -225 -4 -342 l-2 -212 -31 -36
c-31 -35 -33 -65 -4 -65 8 0 15 -8 15 -17 0 -10 4 -83 8 -163 9 -185 9 -516 0
-555 -4 -16 -12 -46 -18 -65 -15 -53 -13 -135 5 -150 11 -9 12 -16 5 -25 -7
-9 -5 -16 6 -26 14 -12 16 -30 10 -144 -13 -243 -3 -1019 15 -1168 9 -83 -3
-210 -22 -233 -6 -8 -23 -11 -42 -8 -62 10 -149 -48 -162 -108 -10 -42 20 -76
70 -80 39 -3 40 -4 49 -52 7 -38 5 -55 -6 -75 -20 -35 -6 -84 32 -112 24 -19
27 -25 19 -47 -11 -29 -4 -58 16 -66 19 -7 19 -50 0 -66 -8 -7 -15 -19 -15
-26 0 -17 -32 -18 -48 -2 -7 7 -12 29 -12 50 0 51 -25 51 -35 1 -4 -21 -12
-41 -18 -45 -14 -8 -37 9 -37 28 0 7 -8 17 -17 22 -14 8 -15 14 -4 40 7 16 23
40 36 52 21 20 31 22 75 17 40 -5 50 -3 50 9 0 29 -66 37 -117 14 -56 -25 -85
-75 -91 -158 -4 -59 -2 -69 17 -86 24 -21 114 -34 133 -19 7 6 32 13 55 17
l42 6 -3 -431 -3 -430 -31 -32 c-16 -18 -42 -50 -56 -72 l-27 -39 7 41 c9 58
0 87 -43 128 -44 43 -88 47 -122 11 -13 -14 -30 -22 -41 -19 -26 7 -80 -24
-116 -65 -31 -36 -33 -36 -66 -24 -47 17 -60 15 -84 -11 -45 -47 -59 -110 -35
-155 13 -25 6 -27 -34 -12 -23 9 -30 6 -55 -20 -31 -33 -43 -78 -34 -127 4
-21 2 -33 -5 -33 -6 0 -18 -11 -27 -25 -14 -22 -14 -27 0 -56 19 -39 20 -49 3
-49 -33 0 -88 -93 -81 -136 3 -19 -1 -20 -80 -20 l-82 1 -52 53 c-63 64 -93
67 -97 10 -1 -10 -5 -21 -9 -25 -4 -4 -91 -9 -194 -10 -103 -2 -193 -5 -199
-8 -8 -2 -13 4 -13 14 0 46 -46 46 -110 1 -37 -26 -76 -25 -162 5 -39 14 -83
25 -97 25 -14 0 -32 4 -40 9 -10 7 -24 2 -44 -15 -26 -21 -38 -24 -120 -24
-51 -1 -133 -3 -183 -6 -61 -4 -94 -2 -99 5 -11 19 4 45 40 70 41 28 45 48 10
57 -37 9 -66 -2 -107 -41 -44 -42 -121 -82 -163 -85 -72 -5 -80 3 -45 47 38
48 2 113 -62 113 -50 0 -91 -37 -83 -75 3 -14 7 -36 10 -50 3 -16 1 -27 -7
-30 -7 -2 -109 -6 -225 -7 -202 -3 -213 -2 -207 15 3 10 0 25 -8 34 -11 14
-11 17 2 21 8 3 28 18 43 34 24 24 27 31 16 44 -23 27 -48 35 -82 26 -24 -7
-38 -6 -52 4 -10 8 -27 14 -36 14 -10 0 -24 12 -31 27 -18 37 -44 40 -69 9
l-21 -26 -17 22 c-9 13 -18 37 -19 53 -2 40 -22 75 -42 75 -9 0 -21 5 -27 11
-27 27 -83 -39 -83 -98 0 -26 -4 -33 -20 -33 -26 0 -54 -43 -45 -70 7 -23 6
-24 -28 -11 -20 8 -29 6 -42 -9 -13 -15 -22 -16 -48 -9 -36 10 -67 3 -67 -14
0 -7 -13 -25 -30 -40 -23 -22 -29 -34 -24 -53 l6 -24 -111 0 c-113 0 -122 3
-100 38 18 28 -2 84 -38 105 -28 16 -35 17 -66 4 -35 -15 -67 -51 -67 -74 0
-7 9 -22 20 -33 30 -30 17 -40 -56 -40 l-65 0 -69 71 c-62 64 -73 70 -97 64
-37 -9 -37 -9 -24 -47 11 -29 9 -35 -10 -51 -14 -11 -39 -17 -73 -18 -28 0
-64 -2 -81 -4 -16 -3 -60 -7 -97 -9 -65 -4 -67 -4 -102 30 l-36 35 -37 -30
c-29 -22 -52 -31 -98 -35 -118 -11 -283 -18 -445 -19 -133 -1 -172 2 -202 16
-21 9 -38 21 -38 26 0 6 -18 16 -41 22 -43 13 -59 5 -59 -33 0 -32 -96 -43
-332 -39 -76 1 -78 2 -93 32 -11 21 -14 43 -10 69 6 35 3 42 -38 86 -45 48
-45 48 -27 71 21 27 17 53 -15 87 -12 13 -25 30 -28 39 -4 11 -17 13 -55 9
l-50 -4 18 52 c21 63 11 116 -30 160 -23 25 -36 30 -73 30 -48 0 -103 19 -147
52 -26 19 -29 19 -59 4 -32 -17 -32 -17 -66 20 -32 33 -38 36 -76 31 -22 -3
-58 -17 -80 -31 -45 -30 -53 -32 -45 -10 3 9 3 21 -1 27 -4 6 -7 96 -8 200 l0
189 51 24 c78 37 83 47 46 93 -21 26 -27 42 -21 48 6 6 9 28 7 49 -2 29 -9 42
-30 53 -24 14 -28 14 -49 -4 l-22 -20 6 146 c3 96 9 154 18 170 8 13 15 26 16
28 1 2 13 -9 26 -25 24 -27 26 -28 68 -15 62 19 99 62 99 116 0 58 -15 93 -43
104 -12 5 -29 16 -37 26 -31 38 -50 39 -97 5 -24 -18 -46 -31 -48 -29 -2 2 -1
17 2 32 4 21 10 27 24 24 47 -12 98 105 68 155 -8 14 -13 43 -11 72 3 48 3 48
35 43 58 -8 85 14 93 78 6 45 -4 63 -50 90 -36 21 -48 24 -70 15 -15 -5 -38
-10 -52 -10 -24 0 -24 0 -26 118 -1 64 -2 140 -2 167 0 28 2 156 3 285 2 129
2 366 1 525 -1 160 2 304 6 320 4 17 26 51 49 77 58 65 60 79 18 134 -19 25
-33 48 -30 51 3 3 -5 29 -18 59 -28 63 -35 125 -38 321 l-1 142 27 21 c18 14
29 35 33 61 6 37 9 39 41 39 104 0 165 93 142 214 -11 59 -32 83 -74 88 -23 2
-30 -1 -33 -17 -6 -29 -19 -40 -34 -27 -9 7 -19 7 -28 2 -8 -6 -18 -10 -22
-10 -4 0 -7 42 -7 93 0 50 -1 112 -3 137 -2 25 1 135 7 245 5 110 8 223 8 250
-1 28 -5 149 -9 270 -8 245 -8 272 -4 365 1 36 1 185 0 331 -1 146 1 277 5
290 13 45 34 85 55 104 11 10 20 25 20 33 0 20 -29 52 -46 52 -8 0 -21 11 -29
24 -13 20 -14 34 -7 75 5 28 6 54 2 56 -9 6 -5 136 5 183 4 18 18 41 31 51 28
22 30 34 8 52 -43 36 -61 140 -55 314 2 55 4 181 4 280 -3 948 0 1232 12 1243
6 5 34 18 63 28 58 20 88 52 98 103 7 36 -16 52 -47 33 -10 -7 -32 -12 -48
-12 -46 0 -75 55 -77 145 -1 70 -22 125 -46 125 -14 0 -1 77 17 103 17 24 20
83 5 92 -5 3 -10 27 -10 54 0 44 2 47 32 56 39 12 68 50 77 101 11 62 -2 97
-52 146 -40 38 -47 50 -47 84 0 25 9 52 24 75 28 40 66 150 66 188 0 20 2 23
13 12 8 -8 12 -47 12 -119 l0 -107 33 -17 c39 -19 82 -11 117 22 12 11 36 22
54 24 22 2 47 17 74 44 28 27 57 45 88 52 33 8 50 19 57 35 8 16 21 25 43 27
25 2 38 11 52 36 19 32 19 35 2 72 -16 36 -92 116 -172 182 -18 15 -33 30 -33
34 0 3 15 3 33 0 94 -20 135 -24 180 -14 64 13 91 42 82 88 -4 19 -8 51 -10
70 -3 62 -5 68 -21 84 -18 19 -36 18 226 18 246 0 307 -6 335 -32 12 -11 39
-24 59 -27 32 -5 41 -2 62 21 14 14 33 27 42 28 9 1 256 3 547 4 292 2 564 5
606 6 75 3 76 3 117 -34 41 -37 42 -37 76 -23 46 19 53 19 59 -5 7 -29 39 -25
76 10 17 17 43 35 57 40 33 13 263 20 289 9 17 -7 18 -8 2 -8 -17 -1 -39 -39
-41 -71 -1 -21 28 -51 50 -52 11 0 30 2 44 6 22 6 28 3 40 -21 8 -15 19 -31
24 -35 12 -8 42 7 75 36 l23 21 -3 -40 c-1 -22 1 -52 5 -67 8 -27 37 -45 55
-34 4 3 16 -13 27 -35 33 -74 110 -112 147 -71 8 9 18 34 22 55 4 21 13 37 21
37 18 0 20 16 10 117 -3 30 0 41 8 36 6 -4 29 -19 51 -34 55 -37 95 -41 110
-11 18 35 21 35 69 17 74 -28 98 -4 51 51 -14 16 -28 40 -31 54 -3 14 -9 33
-15 42 -5 10 -9 19 -9 21 0 2 49 5 108 6 104 2 112 1 169 -28z m-323 7 c19 -8
23 -14 16 -23 -8 -9 -3 -21 15 -43 14 -16 25 -34 25 -38 0 -5 -21 -9 -46 -9
-45 0 -51 -4 -71 -43 -3 -6 -107 65 -142 96 -46 43 -32 58 56 61 37 1 70 4 72
7 8 8 50 4 75 -8z m-362 -54 c22 -11 45 -14 74 -10 37 5 43 3 49 -17 13 -40
15 -52 18 -90 2 -28 -2 -38 -15 -43 -14 -4 -18 -16 -18 -58 0 -97 -44 -104
-92 -13 -29 54 -37 62 -61 62 -28 -1 -28 0 -24 45 5 45 28 140 35 140 1 0 17
-7 34 -16z m-3630 -241 c10 -9 18 -23 18 -31 0 -9 6 -12 16 -8 13 5 14 1 9
-24 -7 -32 5 -39 25 -15 7 8 9 15 6 15 -4 0 -4 4 -1 10 3 5 17 -2 31 -17 20
-22 24 -36 24 -93 0 -102 -58 -275 -80 -240 -11 17 -41 5 -47 -20 -9 -32 -23
-12 -17 24 6 41 -13 59 -55 53 -22 -4 -35 0 -44 12 -6 10 -23 22 -36 26 -14 4
-52 27 -85 51 -33 24 -64 44 -69 44 -4 0 -7 12 -5 28 2 22 25 42 133 114 72
48 136 87 144 88 8 0 23 -7 33 -17z m7278 -40 c0 26 35 20 69 -12 17 -16 63
-46 103 -66 103 -54 162 -97 173 -130 8 -23 7 -30 -9 -39 -10 -6 -31 -21 -46
-34 -16 -12 -50 -26 -77 -31 -75 -15 -102 -28 -121 -61 -40 -71 -99 -32 -121
81 -6 35 -16 78 -22 96 -12 40 -9 173 5 195 9 16 12 16 28 1 17 -15 18 -15 18
0z m-7266 -455 c3 -13 6 -35 6 -49 0 -15 7 -29 15 -33 11 -4 14 -13 9 -30 -3
-13 -1 -27 5 -30 6 -4 11 -14 11 -23 0 -9 8 -22 18 -29 16 -12 16 -13 0 -14
-9 0 -20 5 -23 10 -11 18 -30 10 -52 -23 l-23 -32 -1 65 c-1 36 -2 98 -3 137
-1 61 2 73 15 73 9 0 19 -10 23 -22z m7281 12 c3 -5 17 -10 29 -10 23 0 23 -2
28 -140 2 -78 9 -145 15 -151 7 -7 6 -23 -4 -52 -11 -32 -13 -69 -7 -165 l7
-124 38 -49 c54 -67 50 -141 -8 -168 -46 -21 -54 -15 -51 37 2 36 0 47 -12 47
-9 0 -16 -10 -16 -25 -17 -307 -17 -332 2 -327 11 3 37 11 60 16 22 6 49 20
59 31 42 47 89 11 80 -61 -6 -46 -22 -57 -90 -63 -82 -8 -97 -27 -90 -112 6
-79 13 -109 36 -155 24 -47 40 -59 83 -61 48 -2 48 -28 1 -63 -32 -25 -37 -26
-65 -14 -16 8 -30 21 -30 29 0 8 -7 24 -15 34 -8 11 -15 30 -15 43 0 23 -23
32 -34 14 -6 -9 8 -63 24 -92 5 -9 11 -83 15 -165 3 -82 11 -165 17 -185 7
-24 8 -130 4 -315 -9 -412 -9 -399 9 -434 9 -17 29 -36 44 -41 l29 -10 -18
-47 c-23 -64 -11 -119 38 -170 20 -21 45 -42 55 -45 29 -10 20 -24 -39 -56
-41 -24 -54 -36 -50 -49 22 -73 16 -85 -52 -108 -31 -11 -38 -10 -63 9 -16 11
-29 24 -29 27 0 3 -20 30 -44 58 -25 29 -48 61 -51 72 -3 11 -13 20 -21 20 -8
0 -14 4 -14 9 0 18 29 31 81 37 62 7 85 20 69 40 -8 8 -8 29 -2 62 5 28 5 59
0 73 -5 13 -8 61 -8 106 1 46 1 91 1 101 -1 9 -3 91 -5 182 -3 91 -9 179 -14
197 -6 17 -7 34 -4 38 4 3 7 30 8 59 1 30 4 58 7 63 10 16 -5 255 -17 284 -4
10 -3 20 3 24 7 4 6 16 -5 36 -11 22 -12 34 -4 44 7 8 7 21 1 37 -8 22 -16
131 -11 151 2 4 4 19 5 35 2 15 8 45 13 66 7 26 7 46 1 58 -6 10 -8 22 -6 26
9 15 -13 52 -32 52 -24 0 -29 -15 -21 -62 4 -21 3 -38 -1 -38 -5 0 -9 -11 -9
-25 0 -27 -43 -73 -78 -82 -36 -9 -72 15 -72 48 0 31 9 39 54 48 37 8 76 61
76 102 0 29 6 33 48 29 29 -2 52 16 52 41 0 20 -24 26 -35 9 -11 -17 -37 -11
-42 10 -3 11 -14 20 -24 20 -11 0 -19 6 -19 14 0 23 27 38 62 34 32 -3 33 -2
36 37 7 105 -27 254 -36 158 -4 -36 -46 -79 -89 -89 -60 -16 -106 50 -76 110
15 28 16 29 74 22 37 -3 75 -1 99 6 36 11 39 16 36 43 -1 16 2 36 7 43 14 18
17 83 6 105 -7 12 -7 23 -1 30 8 10 10 62 2 62 -1 0 -3 25 -5 55 -4 60 -24
152 -34 160 -4 3 -13 25 -20 49 -14 48 -11 53 41 73 24 8 27 14 20 36 -4 15
-6 56 -5 91 2 37 -2 68 -7 71 -12 7 -3 40 10 40 5 0 12 -4 15 -10z m297 -157
c44 -42 33 -90 -28 -133 -40 -27 -41 -26 -74 44 -18 40 -15 71 12 103 17 21
60 15 90 -14z m-7717 -88 c14 -13 25 -28 25 -34 0 -16 40 -24 56 -10 22 18 28
5 25 -67 -2 -41 2 -71 10 -80 10 -12 10 -20 2 -33 -6 -10 -14 -39 -18 -65 -4
-25 -11 -46 -16 -46 -18 0 -9 -39 13 -54 17 -12 19 -18 9 -30 -10 -12 -8 -23
13 -59 22 -40 26 -70 15 -102 -2 -5 12 -26 31 -46 19 -20 46 -51 59 -69 22
-29 28 -31 67 -28 47 3 51 1 32 -24 -10 -12 -96 -48 -115 -48 -1 0 -9 16 -18
36 -10 25 -20 34 -32 32 -12 -2 -17 -11 -15 -23 16 -93 19 -192 6 -217 -17
-33 -18 -65 -3 -70 9 -3 9 -9 0 -25 -15 -28 -14 -60 1 -65 9 -3 8 -12 -5 -32
-19 -28 -15 -46 9 -46 17 0 17 -1 -1 -36 -18 -35 -19 -61 -3 -66 10 -4 9 -14
-2 -47 -11 -34 -11 -44 -1 -50 10 -7 10 -15 -3 -39 -23 -44 -21 -65 5 -57 23
8 24 11 -19 -72 -12 -24 -13 -36 -5 -44 8 -8 14 -6 22 10 19 34 30 24 20 -16
-15 -60 -20 -216 -7 -224 7 -5 7 -17 -1 -42 -9 -27 -9 -40 0 -55 9 -14 9 -27
1 -50 -9 -26 -8 -33 5 -40 13 -8 14 -15 4 -45 -7 -20 -10 -41 -6 -47 3 -5 2
-25 -3 -43 -6 -22 -6 -40 0 -52 7 -12 5 -37 -7 -82 -16 -59 -16 -66 -2 -80 14
-15 14 -20 -2 -64 -11 -29 -15 -51 -9 -57 5 -5 4 -19 -3 -36 -16 -34 1 -57 26
-36 16 13 19 7 16 -31 -1 -8 10 -33 24 -54 24 -35 25 -39 10 -54 -8 -9 -23
-16 -33 -16 -9 0 -16 -6 -14 -14 2 -8 -6 -36 -17 -62 -22 -50 -27 -89 -12 -89
4 0 6 -11 3 -25 -3 -20 0 -25 17 -25 l21 0 -22 -46 c-18 -35 -20 -47 -10 -53
9 -5 11 -17 6 -34 -5 -21 -2 -27 9 -27 9 0 22 -8 29 -18 7 -11 23 -24 36 -31
21 -11 22 -15 9 -29 -8 -9 -17 -25 -20 -34 -4 -10 -15 -18 -26 -18 -15 0 -22
-9 -26 -37 -4 -21 -11 -49 -16 -62 -6 -15 -6 -28 -1 -33 6 -6 7 -28 4 -50 -3
-27 -1 -43 8 -48 11 -7 11 -16 0 -50 -11 -32 -11 -46 -2 -60 9 -15 8 -28 -3
-61 -11 -29 -12 -46 -5 -54 6 -8 8 -30 4 -54 -6 -35 -4 -41 11 -41 9 0 14 -5
11 -12 -24 -60 -29 -90 -16 -98 11 -7 12 -14 2 -35 -16 -36 -15 -55 4 -55 13
0 11 -8 -10 -44 -30 -52 -31 -56 -10 -56 11 0 14 -6 9 -20 -5 -14 -2 -20 9
-20 18 0 20 -18 6 -75 -5 -24 -5 -44 0 -50 5 -6 7 -28 3 -49 -4 -26 -2 -41 7
-46 11 -7 12 -16 2 -46 -7 -24 -8 -42 -2 -49 6 -7 5 -26 -3 -50 -9 -30 -9 -39
0 -42 8 -3 10 -15 6 -35 -4 -18 -1 -33 6 -37 8 -6 8 -15 0 -39 -6 -18 -8 -40
-5 -48 4 -9 1 -32 -6 -51 -10 -28 -10 -36 1 -42 11 -7 11 -14 -3 -41 -20 -41
-20 -60 -1 -60 19 0 19 1 -5 -51 -24 -54 -25 -69 -4 -69 9 0 14 -6 11 -12 -15
-40 -17 -57 -7 -63 6 -4 5 -16 -5 -35 -19 -37 -19 -54 0 -46 18 7 19 -4 3 -39
-9 -20 -9 -28 0 -34 9 -5 9 -17 1 -46 -8 -29 -8 -40 1 -43 6 -2 15 -15 20 -28
11 -29 35 -31 50 -4 8 15 17 19 35 14 16 -4 37 1 60 15 29 17 37 18 41 7 6
-15 -28 -89 -53 -117 -7 -9 -13 -20 -12 -25 5 -29 -3 -35 -41 -31 -22 2 -43 6
-47 10 -13 14 -34 6 -43 -15 -5 -13 -16 -42 -26 -65 l-17 -42 -29 15 c-17 9
-27 21 -24 29 2 7 -1 21 -8 31 -10 12 -10 29 -4 61 11 52 6 73 -20 73 -27 0
-70 50 -76 89 -5 38 27 136 48 144 7 3 24 3 39 0 25 -5 27 -9 27 -54 0 -44 13
-70 28 -55 10 11 9 580 -2 594 -5 7 -11 107 -12 225 -2 117 -6 244 -9 282 -3
39 -7 272 -10 518 -3 312 -7 453 -15 462 -6 8 -24 17 -40 20 -22 5 -27 11 -23
23 4 9 9 19 13 22 3 3 14 18 24 35 16 24 20 51 21 140 1 60 5 160 10 222 l8
112 -26 23 -25 22 25 43 24 42 4 553 c2 304 4 630 4 723 0 94 5 183 10 198 8
22 7 29 -8 39 -16 11 -19 28 -20 98 -1 140 -35 205 -127 246 -39 17 -54 29
-54 44 0 28 36 45 68 31 43 -20 53 5 20 51 -10 14 -10 22 0 38 7 12 10 25 7
30 -4 6 2 10 12 10 19 0 43 18 43 32 0 4 -10 7 -22 5 -20 -2 -23 3 -26 36 -3
33 3 44 42 88 25 28 46 54 46 58 0 4 -13 22 -28 40 -28 34 -28 34 -54 17 -38
-25 -68 -17 -96 24 -19 27 -23 44 -19 77 2 24 10 50 17 58 20 24 77 19 105
-10z m7473 -3075 c-1 -99 2 -110 27 -134 30 -28 31 -45 4 -127 -22 -69 -22
-83 0 -409 5 -80 12 -238 15 -351 5 -200 9 -225 43 -297 14 -29 14 -41 3 -100
-8 -40 -13 -125 -12 -212 1 -80 0 -215 -1 -300 -3 -289 -2 -365 10 -385 8 -15
8 -25 0 -40 -8 -13 -13 -107 -14 -288 l-2 -268 24 -11 c32 -14 32 -31 0 -52
-36 -24 -48 -52 -40 -102 5 -35 11 -45 36 -56 20 -9 27 -18 23 -28 -20 -47
-37 -134 -39 -195 -3 -99 -5 -1076 -2 -1282 1 -94 5 -174 8 -178 4 -3 30 -10
59 -14 38 -6 58 -15 71 -32 21 -28 32 -79 23 -103 -5 -13 -14 -6 -40 33 -38
55 -66 69 -117 54 -60 -17 -88 -102 -66 -206 12 -57 12 -58 -16 -87 -35 -36
-62 -39 -61 -7 1 16 -5 23 -22 25 -17 3 -23 10 -22 25 4 39 0 46 -22 49 -15 2
-22 9 -20 19 3 23 -24 31 -42 14 -8 -8 -21 -15 -30 -15 -40 0 -30 59 16 88
l32 20 18 -23 c18 -23 18 -23 56 -5 27 13 43 31 55 57 32 75 51 148 50 197
-12 613 -16 792 -23 896 -5 69 -9 153 -10 188 -1 34 -7 65 -12 68 -6 4 -5 10
3 15 10 6 14 35 14 113 -1 94 -3 108 -24 136 -22 30 -22 32 -5 51 15 17 16 23
5 41 -10 17 -10 23 4 38 12 13 13 23 6 42 -6 15 -5 31 1 41 5 10 7 31 3 47 -5
22 -2 31 13 39 16 8 19 19 15 53 -2 24 -6 97 -8 163 -7 175 -15 318 -21 333
-2 8 4 27 13 42 16 27 16 31 -3 67 -10 21 -22 39 -26 41 -3 2 5 31 19 65 26
66 30 118 23 280 -3 54 0 91 6 95 6 4 8 29 5 62 -3 30 -3 80 0 110 3 30 2 63
-2 72 -5 9 -9 55 -9 103 0 67 3 87 15 91 20 8 19 33 -1 56 -11 11 -17 38 -19
71 -1 29 -5 59 -10 67 -5 8 -11 28 -13 45 -4 27 -5 325 -1 549 1 72 -2 92 -15
101 -19 14 -21 57 -4 84 9 15 9 28 1 55 -6 20 -7 38 -2 41 4 3 4 16 -1 29 -5
13 -6 26 -3 29 8 9 12 233 4 285 -4 26 -3 59 3 73 8 23 12 24 32 15 20 -10 23
-18 22 -66z m-7343 -2603 c-12 -39 -15 -117 -5 -117 6 0 4 -14 -5 -30 -14 -28
-14 -31 0 -36 10 -4 14 -12 9 -23 -4 -9 -8 -29 -9 -46 -1 -16 -6 -42 -10 -57
-6 -23 -4 -28 10 -28 12 0 15 -5 10 -17 -4 -10 -9 -35 -11 -56 -3 -32 0 -40
16 -44 24 -6 27 -41 5 -69 -18 -24 -19 -54 -1 -54 9 0 12 -7 9 -19 -3 -10 0
-22 6 -25 19 -12 12 -32 -15 -44 -18 -9 -24 -17 -19 -31 3 -12 0 -21 -9 -24
-19 -7 -16 -75 3 -86 10 -7 10 -16 0 -49 -9 -33 -9 -45 0 -56 9 -10 9 -20 2
-34 -7 -12 -7 -22 0 -29 6 -6 6 -19 -1 -38 -7 -19 -7 -31 0 -41 8 -9 8 -19 0
-35 -9 -17 -9 -23 0 -29 9 -6 9 -16 -1 -45 -11 -30 -11 -39 -1 -42 6 -3 9 -9
6 -14 -3 -6 -1 -16 6 -23 6 -8 8 -26 4 -39 -3 -14 -3 -31 2 -38 11 -19 13
-282 1 -297 -7 -9 -6 -20 3 -38 11 -20 11 -31 1 -60 -9 -25 -10 -39 -2 -48 8
-10 6 -25 -9 -57 -16 -36 -17 -46 -6 -54 9 -7 11 -17 4 -34 -5 -15 -4 -28 3
-37 9 -11 7 -20 -6 -41 -16 -24 -16 -28 -3 -37 13 -8 14 -14 5 -33 -7 -17 -7
-27 1 -35 8 -8 8 -17 1 -30 -9 -16 -6 -24 9 -39 11 -10 23 -28 27 -39 6 -19
13 -20 82 -18 74 3 76 2 79 -22 2 -14 -5 -35 -17 -49 l-20 -24 -30 22 c-34 25
-49 19 -51 -20 -1 -13 -8 -32 -16 -41 -8 -9 -12 -22 -10 -29 2 -7 -1 -29 -8
-48 -14 -40 -46 -52 -78 -28 -17 13 -20 28 -21 124 -2 118 -12 149 -67 200
-20 19 -28 21 -63 13 -65 -15 -78 -13 -65 10 15 28 62 50 109 50 27 0 48 7 67
24 l28 23 0 199 c0 109 -3 213 -8 229 -5 22 -19 521 -16 612 0 6 -11 24 -24
40 l-24 28 19 40 c28 57 25 106 -12 159 -16 25 -38 50 -47 55 -15 9 -15 11 1
29 16 17 16 23 5 41 -7 12 -16 21 -20 21 -5 0 -8 16 -8 36 0 45 46 96 78 87
12 -3 29 -3 37 1 14 5 14 8 1 28 -12 19 -13 36 -6 87 7 50 6 70 -6 92 -7 15
-14 41 -14 58 0 16 -4 32 -9 35 -5 3 -1 22 10 42 10 20 23 61 29 90 l11 54 31
-16 c24 -12 29 -20 23 -37z m-95 -2402 c0 -8 0 -17 0 -20 -1 -20 34 -65 58
-73 29 -10 29 -10 26 -91 -1 -45 2 -81 7 -81 5 0 6 -13 3 -29 -3 -16 -1 -32 5
-35 12 -8 81 25 100 48 18 22 23 21 75 -15 54 -36 65 -67 43 -113 -16 -35 -66
-62 -93 -52 -13 5 -15 13 -9 39 20 87 2 108 -52 58 -48 -44 -64 -92 -69 -211
-6 -136 -8 -149 -25 -185 -13 -28 -14 -19 -19 117 -3 96 -9 151 -17 159 -10
10 -14 6 -22 -14 -12 -32 -22 -34 -45 -8 -27 29 -33 97 -11 121 23 25 55 10
55 -25 0 -20 5 -25 26 -25 25 0 25 2 18 43 -4 23 -7 87 -8 141 -1 66 -5 101
-13 103 -7 2 -13 -8 -15 -24 -2 -22 -13 -33 -46 -50 -53 -26 -78 -20 -104 28
-28 52 -24 108 12 157 24 33 36 41 67 45 21 2 41 4 46 5 4 1 7 -5 7 -13z m205
-117 c-8 -37 -20 -55 -46 -69 -16 -8 -18 -5 -15 37 2 46 16 64 49 64 16 0 17
-5 12 -32z m7208 -123 c-2 -8 9 -34 26 -59 20 -29 29 -51 24 -63 -8 -25 -44
-63 -58 -63 -7 0 -13 10 -13 23 0 29 -19 77 -31 77 -5 0 -8 22 -8 48 2 47 3
48 34 49 23 1 30 -3 26 -12z m2 -287 c0 -56 2 -63 20 -63 15 0 21 9 26 38 8
52 17 57 45 22 19 -24 21 -31 9 -33 -20 -4 -19 -22 0 -22 17 0 19 -21 5 -69
-12 -42 -27 -53 -52 -38 -37 23 -39 -3 -33 -375 5 -343 4 -358 -13 -358 -10 0
-20 8 -21 18 -5 35 -14 561 -11 687 1 72 3 158 3 193 1 36 5 62 11 62 7 0 11
-25 11 -62z m-7547 -260 c7 -7 12 -26 12 -43 0 -41 -16 -55 -61 -55 -29 0 -38
4 -42 22 -14 52 56 111 91 76z m322 -53 c0 -19 -10 -31 -35 -46 -55 -33 -79
-96 -70 -179 4 -36 9 -105 10 -155 2 -49 4 -92 5 -95 1 -3 1 -9 0 -15 -2 -5
-4 -32 -5 -60 -2 -57 -12 -95 -25 -95 -21 0 -26 35 -34 245 -3 72 -10 145 -16
164 -12 43 -57 91 -85 91 -11 0 -26 5 -31 10 -6 6 -47 11 -92 13 -45 1 -82 5
-82 8 0 16 46 25 72 15 21 -8 34 -7 48 2 11 6 48 12 82 12 61 0 128 25 128 48
0 5 17 14 39 20 21 7 44 19 51 27 19 23 40 18 40 -10z m29 -109 c14 -16 9 -21
-48 -41 -34 -11 -40 -12 -45 0 -6 17 39 55 64 55 10 0 23 -6 29 -14z m-382
-62 c26 -7 47 -55 39 -89 -4 -14 -20 -32 -37 -40 -28 -15 -33 -15 -54 -1 -48
31 -54 77 -17 119 16 18 33 21 69 11z m7353 -464 c17 -32 7 -306 -14 -354 -14
-35 -15 -42 -2 -54 12 -12 15 -12 24 4 6 11 13 42 17 69 4 28 21 92 37 142 24
78 36 100 76 141 42 43 96 72 109 59 2 -3 6 -19 8 -37 5 -40 19 -57 53 -65 16
-3 34 -18 44 -35 9 -17 25 -30 36 -30 10 0 24 -11 30 -24 6 -13 28 -32 49 -42
83 -41 42 -118 -104 -192 -57 -28 -97 -42 -148 -47 -38 -5 -74 -7 -79 -6 -5 1
-16 -1 -24 -4 -11 -4 -12 -8 -2 -19 14 -18 131 -12 199 10 40 13 46 12 63 -3
15 -14 22 -14 41 -4 31 16 146 1 212 -28 41 -18 46 -24 43 -48 -2 -21 -10 -29
-34 -35 -42 -11 -56 -29 -59 -81 -1 -23 -17 -75 -36 -116 -33 -73 -33 -73 -67
-67 -22 3 -56 25 -97 61 -56 49 -89 75 -191 150 -32 24 -48 25 -52 5 -2 -10
22 -32 62 -59 77 -50 196 -154 213 -184 16 -29 16 -74 0 -84 -7 -4 -20 -19
-28 -33 -11 -16 -34 -30 -65 -39 -60 -17 -71 -26 -89 -68 -10 -22 -21 -33 -35
-33 -38 0 -66 43 -104 158 -28 87 -36 127 -36 185 0 57 4 76 15 81 8 3 15 0
15 -6 0 -9 3 -9 11 -1 7 7 8 24 4 43 l-7 32 -22 -21 c-35 -33 -39 -12 -6 26
17 18 30 40 30 48 0 18 1 18 36 0 45 -23 55 -20 51 19 -4 29 -1 35 17 38 41 6
15 23 -40 26 -52 3 -55 2 -49 -17 9 -28 3 -26 -34 8 -31 29 -86 46 -113 36
-22 -9 -48 -60 -48 -95 0 -20 9 -39 25 -54 29 -27 30 -32 10 -70 -15 -29 -14
-56 3 -56 12 0 43 69 37 81 -4 5 1 9 9 9 9 0 16 -1 16 -2 14 -112 3 -288 -20
-340 -7 -14 -29 -34 -49 -45 -26 -13 -37 -27 -39 -46 -3 -28 -35 -57 -62 -57
-31 0 -53 27 -59 71 -6 44 -6 44 -50 47 -25 2 -55 -2 -67 -8 -39 -22 -58 -10
-58 38 -1 33 -7 47 -27 65 -54 45 -55 87 -3 107 13 5 24 15 24 22 1 14 27 32
148 106 70 42 99 73 87 91 -3 5 -28 -2 -57 -16 -106 -51 -264 -89 -331 -79
-104 16 -131 113 -42 151 39 16 43 30 18 75 -18 31 -18 31 7 51 21 18 24 28
22 76 -5 108 44 130 139 64 24 -18 70 -50 102 -72 95 -66 126 -97 120 -119 -4
-15 0 -20 15 -20 l21 0 -21 -36 c-15 -26 -18 -38 -9 -47 8 -8 14 -8 22 0 6 6
18 9 25 6 16 -6 20 32 4 42 -5 3 -8 19 -7 35 2 30 11 38 22 20 10 -16 26 0 20
20 -4 13 -1 17 12 16 14 -1 18 7 18 33 0 42 -17 50 -34 17 -9 -15 -19 -22 -28
-19 -8 3 -19 0 -23 -7 -9 -15 -61 19 -115 75 -16 17 -58 55 -93 85 -79 68 -96
113 -60 166 25 37 43 42 75 19 19 -13 25 -13 52 2 17 10 36 28 43 41 14 26 60
54 86 51 29 -2 36 0 66 26 26 23 30 23 57 10 16 -9 33 -24 39 -35z m-3425
-398 c0 -43 4 -53 27 -72 25 -19 27 -25 22 -68 -4 -26 -13 -52 -20 -58 -16
-13 -18 -31 -4 -36 6 -2 -21 -3 -60 -3 -58 0 -69 3 -65 16 3 8 -6 30 -20 49
-28 38 -35 100 -11 100 8 0 18 -5 21 -11 16 -25 29 1 30 57 1 74 8 85 48 80
31 -3 32 -5 32 -54z m135 -77 c0 -14 6 -25 13 -26 6 -1 23 -2 37 -2 18 -2 26
-9 28 -24 4 -26 19 -29 46 -8 11 8 34 15 50 15 l31 -1 -25 -19 c-14 -10 -37
-29 -53 -40 l-27 -22 22 -18 22 -18 -29 -6 c-17 -3 -60 -10 -97 -16 -37 -6
-74 -13 -82 -16 -18 -7 -22 16 -6 32 6 6 13 36 15 67 5 61 28 127 44 127 6 0
11 -11 11 -25z m711 -65 c26 -14 24 -33 -7 -70 -29 -34 -39 -31 -53 18 -8 27
-6 34 12 47 26 18 23 18 48 5z m-1507 -21 c11 -10 -16 -101 -32 -107 -7 -2
-17 9 -23 25 -6 15 -18 36 -27 46 -15 17 -15 20 8 37 24 19 54 18 74 -1z m494
-31 c24 -31 31 -47 26 -62 -9 -27 -10 -120 -2 -167 6 -33 2 -41 -43 -93 -28
-31 -55 -56 -61 -56 -5 0 -23 9 -39 21 -23 16 -38 20 -64 15 -22 -4 -35 -3
-35 4 0 5 11 10 25 10 14 0 29 8 35 20 9 16 6 25 -14 45 -46 46 -13 75 104 90
49 6 66 17 55 35 -5 7 -20 9 -40 6 -36 -7 -89 9 -80 24 3 5 -14 21 -37 36 -24
15 -44 28 -46 29 -1 1 12 18 31 38 31 34 34 35 72 27 55 -13 65 -12 65 5 0 24
13 17 48 -27z m-838 -13 c12 -21 12 -29 3 -32 -19 -7 -16 -17 14 -47 16 -17
34 -25 45 -23 13 4 18 0 16 -11 -2 -13 7 -17 52 -18 30 -1 60 3 67 8 6 5 29 7
50 4 21 -3 66 -7 101 -8 34 -1 62 -5 62 -9 0 -17 46 -16 86 1 24 11 46 15 49
10 3 -5 24 -3 47 6 35 12 42 12 52 0 6 -8 20 -16 31 -19 14 -3 12 -5 -8 -6
-16 0 -41 -7 -55 -15 -32 -16 -93 -36 -112 -36 -25 0 -115 -49 -155 -85 -22
-19 -43 -35 -47 -35 -4 0 -5 20 -2 44 4 25 3 57 0 71 -7 26 -9 27 -54 20 -92
-14 -144 -41 -191 -100 -52 -64 -79 -77 -50 -23 19 35 -14 84 -69 105 -42 16
-103 17 -682 17 l-636 0 -68 -47 c-37 -26 -69 -47 -71 -47 -2 0 -5 15 -7 33
l-3 32 -80 5 c-44 3 -134 0 -200 -7 -211 -22 -213 -21 -313 44 -48 31 -89 58
-91 60 -16 11 14 10 64 -3 164 -41 191 -45 255 -39 98 10 161 11 166 3 8 -13
102 -9 124 4 14 9 25 10 38 2 9 -6 28 -7 42 -3 14 4 41 7 61 8 28 1 46 11 81
45 l47 44 32 -24 c18 -13 54 -27 80 -30 28 -4 47 -11 46 -18 -2 -10 9 -11 68
-5 6 0 33 1 60 1 28 0 66 0 85 0 19 1 51 0 70 -1 19 -1 62 0 95 2 34 2 63 0
67 -6 4 -7 27 -4 65 6 33 10 67 17 76 17 9 0 38 13 64 29 47 29 47 29 71 10
14 -10 33 -19 43 -19 13 0 19 -7 19 -21 0 -12 4 -17 11 -14 6 4 54 8 107 10
140 4 168 12 214 56 32 30 39 44 36 64 -7 33 12 28 32 -10z m2121 -101 c17
-20 156 -37 176 -21 7 5 23 7 35 4 12 -4 27 -2 34 4 7 6 21 6 37 0 13 -5 51
-8 83 -6 33 2 67 -1 76 -6 22 -12 34 7 18 26 -17 21 6 51 26 34 7 -6 23 -8 34
-4 26 8 80 -12 80 -31 0 -28 94 -54 116 -31 4 4 18 4 30 1 14 -4 24 -2 24 5 0
6 10 10 23 8 15 -1 22 3 22 15 0 10 6 23 12 29 10 10 14 7 22 -13 8 -22 17
-26 68 -31 32 -4 83 -11 113 -16 43 -7 57 -6 66 5 6 8 20 11 33 7 14 -3 26 -1
31 7 6 10 15 10 45 0 26 -9 40 -9 47 -2 7 7 17 8 29 2 12 -7 20 -7 24 0 3 6
17 7 31 4 18 -5 24 -2 24 9 0 9 -4 18 -10 22 -5 3 -6 13 -3 21 5 12 14 7 42
-25 32 -36 44 -42 110 -56 40 -8 78 -12 83 -9 5 3 23 0 40 -7 23 -9 32 -9 37
0 8 12 41 5 41 -10 0 -15 -65 -19 -299 -16 l-234 3 -20 -33 c-20 -36 -41 -41
-72 -19 -31 21 -116 36 -160 27 -67 -13 -904 -1 -942 13 -6 3 -22 -4 -34 -15
-13 -11 -28 -18 -35 -15 -10 4 -184 9 -231 7 -8 -1 -13 -14 -13 -31 0 -16 -2
-30 -5 -30 -3 0 -30 16 -60 36 l-54 36 -143 2 c-79 0 -141 5 -140 9 2 5 -8 21
-22 36 -32 34 -24 46 17 24 17 -8 52 -17 79 -20 40 -3 48 -1 48 13 0 10 5 14
15 10 8 -3 22 -9 30 -12 10 -4 15 0 15 10 0 12 5 14 25 6 20 -8 27 -6 32 6 3
10 11 13 22 8 21 -9 201 -6 272 6 61 9 128 37 169 69 l25 20 3 -37 c2 -20 8
-42 13 -48z m-824 -15 c-9 -15 -7 -22 12 -43 l23 -24 -30 -7 c-55 -12 -45 -42
32 -89 19 -12 25 -21 18 -28 -8 -8 -23 -4 -52 11 -58 30 -68 27 -72 -16 l-4
-38 -66 67 c-62 63 -66 70 -69 118 -2 29 -2 54 0 56 2 2 27 4 55 5 28 0 69 4
91 8 57 10 77 4 62 -20z m-3890 9 c4 -7 8 -20 8 -28 0 -9 7 -14 18 -12 12 2
17 -4 17 -19 0 -18 2 -19 15 -9 13 10 15 9 16 -11 0 -13 4 -58 8 -99 9 -91
-10 -218 -40 -267 -21 -34 -43 -46 -32 -17 4 12 0 14 -20 9 -14 -4 -28 -2 -32
5 -5 8 -11 8 -22 -2 -12 -10 -17 -9 -24 4 -23 41 -41 50 -88 44 -43 -6 -51 -3
-116 41 -50 34 -72 57 -79 78 -4 17 -13 39 -19 50 -8 16 -3 25 34 58 41 36
309 185 336 186 6 1 15 -5 20 -11z m3658 -179 c36 -62 42 -83 25 -94 -5 -3
-10 -15 -10 -26 0 -23 -13 -24 -35 -3 -27 28 -42 10 -47 -55 -2 -33 -7 -64
-11 -67 -12 -13 -47 28 -59 70 -15 54 -15 54 -17 71 0 8 -8 15 -16 15 -9 0
-18 -7 -21 -15 -8 -21 -24 -19 -24 3 0 10 -5 23 -11 29 -7 7 5 27 41 66 41 45
58 57 88 60 20 2 42 4 49 5 7 1 28 -25 48 -59z m-1132 1 c8 0 7 -4 -1 -12 -7
-7 -12 -22 -12 -33 0 -12 -11 -32 -25 -45 -25 -24 -26 -24 -45 -4 -23 22 -38
84 -21 84 6 0 11 -4 11 -10 0 -18 25 -11 38 11 8 12 19 18 28 15 9 -3 21 -6
27 -6z"/>
<path d="M872 12095 c-7 -14 -12 -38 -12 -52 0 -21 2 -24 15 -13 8 7 15 20 15
29 0 9 5 22 11 28 11 11 5 33 -10 33 -4 0 -13 -11 -19 -25z"/>
<path d="M1000 11990 c-11 -7 -12 -12 -3 -21 12 -12 53 4 53 21 0 13 -30 13
-50 0z"/>
<path d="M835 11965 c-14 -13 -25 -33 -25 -44 0 -24 38 -100 51 -102 5 -1 15
-2 22 -3 6 -1 22 9 34 21 12 13 30 23 39 23 12 0 15 5 9 23 -4 12 -9 36 -12
52 -8 43 -21 55 -60 55 -23 0 -42 -8 -58 -25z"/>
<path d="M1004 11946 c-23 -18 -12 -31 33 -39 38 -7 49 4 31 33 -15 24 -37 26
-64 6z"/>
<path d="M976 11824 c-9 -34 1 -64 21 -64 10 0 14 6 10 20 -6 25 2 26 19 3 12
-17 13 -17 20 0 4 12 -1 26 -16 43 -30 31 -46 31 -54 -2z"/>
<path d="M7966 12058 c-28 -39 -18 -65 11 -30 14 16 14 16 9 0 -6 -21 4 -23
28 -5 15 11 17 17 7 35 -15 28 -36 28 -55 0z"/>
<path d="M7868 11956 c-62 -55 -36 -146 42 -146 30 0 43 6 64 31 30 35 32 55
12 94 -27 52 -74 60 -118 21z"/>
<path d="M7734 11941 c-2 -3 6 -11 18 -18 l23 -12 -22 -1 c-34 0 -28 -27 8
-34 47 -9 47 -9 47 28 0 31 -3 34 -34 38 -19 2 -37 2 -40 -1z"/>
<path d="M7775 11799 c-4 -6 8 -24 26 -40 l33 -29 28 26 c29 29 28 49 -2 39
-10 -3 -21 -1 -25 5 -8 13 -52 13 -60 -1z"/>
<path d="M770 3099 c0 -5 5 -7 10 -4 6 3 10 8 10 11 0 2 -4 4 -10 4 -5 0 -10
-5 -10 -11z"/>
<path d="M7872 1078 c-14 -14 -16 -58 -3 -58 6 0 13 5 17 11 4 6 20 8 39 5 36
-7 62 13 51 39 -7 19 -26 20 -26 0 0 -16 -16 -21 -22 -6 -6 15 -44 21 -56 9z"/>
<path d="M7720 805 c-11 -13 -11 -19 4 -33 16 -16 18 -16 32 3 8 10 13 24 11
30 -6 17 -33 17 -47 0z"/>
<path d="M7962 780 c2 -22 8 -41 13 -41 13 0 18 27 11 57 -10 39 -27 28 -24
-16z"/>
<path d="M997 1043 c-12 -12 -7 -43 7 -43 13 0 26 20 26 41 0 10 -23 12 -33 2z"/>
<path d="M912 953 c-26 -10 -42 -58 -32 -95 20 -70 95 -75 133 -10 17 28 17
37 7 63 -18 43 -63 60 -108 42z"/>
<path d="M1084 912 c-6 -4 -14 -19 -18 -34 -6 -28 -6 -29 37 -32 6 -1 11 6 9
15 -1 9 5 20 14 23 13 5 14 9 4 21 -14 16 -29 19 -46 7z"/>
<path d="M1026 785 c-15 -14 -31 -25 -35 -25 -4 0 -16 -9 -26 -20 -20 -22 -9
-30 35 -27 18 2 24 7 22 20 -2 9 2 17 8 17 5 0 10 -5 10 -11 0 -6 6 -9 13 -6
6 2 11 10 9 17 -1 7 5 18 14 25 18 13 12 35 -10 35 -7 0 -25 -11 -40 -25z"/>
</g>
</svg>
