<?xml version="1.0" standalone="no"?>
<!DOCTYPE svg PUBLIC "-//W3C//DTD SVG 20010904//EN"
 "http://www.w3.org/TR/2001/REC-SVG-20010904/DTD/svg10.dtd">
<svg version="1.0" xmlns="http://www.w3.org/2000/svg"
 width="1280.000000pt" height="1280.000000pt" viewBox="0 0 1280.000000 1280.000000"
 preserveAspectRatio="xMidYMid meet">
<metadata>
Created by potrace 1.15, written by Peter Selinger 2001-2017
</metadata>
<g transform="translate(0.000000,1280.000000) scale(0.100000,-0.100000)"
fill="#000000" stroke="none">
<path d="M424 12712 c-42 -27 -57 -69 -52 -139 3 -32 9 -66 13 -76 7 -16 3
-16 -46 3 -30 12 -62 29 -72 37 -31 29 -29 6 7 -77 28 -66 32 -80 18 -76 -132
36 -232 -11 -232 -107 0 -57 34 -92 90 -92 70 0 114 69 77 119 -26 36 -91 18
-100 -27 l-4 -22 -2 22 c0 13 10 30 27 43 39 31 84 23 238 -43 71 -30 146 -58
168 -62 37 -7 38 -7 31 16 -4 13 -35 85 -70 159 -63 137 -90 218 -64 193 7 -7
34 -13 59 -13 53 0 76 18 86 67 14 72 -98 121 -172 75z m93 -47 c1 -5 -11 -11
-27 -12 -29 -2 -38 6 -23 21 10 10 46 3 50 -9z"/>
<path d="M729 12717 c-44 -34 -47 -103 -6 -132 25 -18 80 -20 109 -4 19 10 20
9 14 -17 -4 -16 -30 -82 -57 -147 -53 -124 -89 -248 -89 -304 0 -28 -3 -33
-24 -33 -46 0 -192 -49 -306 -103 -63 -30 -127 -57 -142 -61 -46 -11 -108 25
-108 62 0 11 8 5 20 -15 34 -57 100 -34 100 35 0 53 -73 89 -135 66 -37 -15
-56 -90 -33 -138 23 -53 109 -78 196 -58 23 5 42 9 42 8 0 -2 -19 -54 -42
-117 -39 -107 -42 -120 -42 -219 0 -96 4 -119 50 -275 44 -150 53 -170 73
-173 12 -2 29 2 37 8 19 17 52 -6 104 -71 29 -37 40 -60 40 -85 0 -41 -6 -42
-32 -9 -26 33 -63 33 -84 -1 -16 -24 -16 -27 3 -52 36 -48 121 -54 163 -12 48
48 16 130 -113 283 -69 84 -136 191 -152 247 -5 15 10 2 37 -35 55 -74 119
-124 266 -206 63 -35 118 -72 124 -82 10 -20 -12 -64 -38 -74 -8 -3 -14 -11
-14 -19 0 -37 101 -47 143 -14 30 24 51 81 43 115 l-6 25 50 -20 c125 -49 208
-113 241 -185 24 -52 24 -138 0 -191 -20 -45 -83 -84 -135 -84 -55 0 -110 43
-126 99 -9 31 -8 31 28 31 31 0 43 6 72 40 37 44 63 47 73 8 9 -35 -1 -48 -28
-36 -19 9 -30 7 -50 -6 -31 -20 -32 -50 -3 -70 75 -53 178 37 149 127 -40 120
-217 145 -287 40 -60 -90 -23 -217 77 -266 l31 -15 -50 -16 c-61 -20 -118 -79
-127 -130 -13 -66 31 -140 98 -165 75 -29 178 6 210 71 21 44 15 77 -21 113
-22 22 -33 25 -75 23 -57 -3 -80 -25 -61 -55 13 -21 60 -29 78 -14 22 19 27
-26 6 -52 l-19 -22 -38 38 c-31 29 -47 37 -76 37 -42 0 -46 10 -18 56 24 39
95 69 143 60 84 -16 128 -72 128 -165 0 -90 -84 -181 -213 -229 -28 -11 -60
-23 -69 -27 -15 -6 -18 -1 -18 34 0 69 -58 111 -133 97 -60 -12 -66 -23 -29
-54 57 -48 47 -63 -101 -142 -127 -68 -210 -130 -249 -185 -17 -25 -33 -43
-36 -41 -12 12 79 154 158 246 100 117 127 170 111 213 -28 73 -191 66 -191
-8 0 -48 67 -60 98 -17 19 25 21 26 28 8 18 -46 -107 -194 -141 -166 -8 6 -24
10 -36 8 -18 -2 -27 -20 -55 -108 -19 -58 -41 -145 -50 -194 -14 -79 -14 -96
-1 -161 9 -40 33 -109 54 -153 l38 -80 -66 5 c-81 7 -108 1 -148 -33 -54 -45
-37 -135 29 -149 38 -8 97 11 110 35 25 46 -7 97 -54 88 -14 -3 -23 -1 -20 3
13 21 92 6 220 -41 175 -65 239 -80 348 -80 107 0 196 20 290 66 81 39 86 40
86 16 0 -28 33 -52 71 -52 56 0 79 36 36 55 -33 15 -32 54 4 163 45 133 45
208 0 314 l-33 78 21 34 c30 48 29 119 -3 151 -31 31 -69 40 -106 25 -62 -26
-39 -97 27 -87 37 6 42 -8 23 -58 -10 -25 -10 -25 -47 -9 -21 9 -64 17 -95 18
-47 1 -61 -3 -82 -23 -32 -30 -33 -55 -3 -85 32 -32 89 -40 155 -23 53 14 54
14 63 -10 15 -40 10 -82 -12 -104 -18 -18 -29 -20 -64 -16 -28 4 -48 2 -61 -7
-16 -12 -17 -17 -5 -39 19 -35 61 -50 126 -45 l55 5 -6 -36 c-18 -101 -110
-191 -194 -191 -44 0 -68 15 -85 55 -11 28 -19 35 -43 35 -29 0 -69 -32 -72
-60 -5 -34 1 -50 29 -76 17 -15 28 -31 25 -36 -7 -12 -165 -10 -223 3 -60 13
-111 45 -123 78 -7 20 -3 29 27 57 19 18 35 37 35 42 0 21 -51 55 -92 59 -37
4 -49 1 -75 -21 -16 -14 -33 -23 -37 -19 -3 3 -6 43 -6 87 0 89 16 137 65 194
92 109 285 124 398 31 68 -56 88 -135 51 -201 -33 -57 -151 -104 -208 -82 -14
5 -13 9 4 34 28 39 25 59 -11 96 -37 39 -34 57 16 81 33 16 37 16 71 0 42 -21
43 -50 2 -55 -66 -8 -57 -72 10 -72 29 0 45 7 65 28 94 98 -86 219 -228 153
-95 -44 -130 -134 -82 -213 95 -157 360 -136 431 34 43 103 -9 213 -129 276
-65 34 -211 43 -294 18 -30 -9 -56 -14 -58 -12 -7 7 91 64 146 86 38 15 71 20
110 18 54 -3 57 -5 74 -40 22 -44 45 -48 95 -18 41 25 42 54 2 108 -35 49 -37
57 -10 40 43 -27 212 45 290 123 92 92 101 208 23 298 -19 23 -49 49 -66 57
l-31 16 36 12 c75 26 129 91 147 178 21 94 -11 178 -95 258 -84 80 -241 142
-279 110 -22 -18 -18 3 5 33 50 64 47 113 -10 142 -49 26 -68 20 -80 -25 -6
-22 -19 -44 -30 -50 -49 -26 -163 5 -262 72 -57 39 -62 53 -10 30 26 -11 67
-16 142 -17 95 0 110 3 155 27 73 38 130 104 151 174 65 223 -209 398 -386
246 -52 -44 -71 -82 -72 -141 0 -55 17 -94 59 -133 37 -35 73 -48 136 -48 134
1 214 130 125 205 -34 29 -69 32 -93 9 -27 -28 -15 -58 28 -68 44 -11 47 -27
11 -55 -31 -25 -55 -26 -93 -6 -43 22 -46 44 -11 80 36 37 39 74 9 116 -18 25
-18 30 -5 34 9 3 23 7 32 10 29 9 103 -17 143 -51 96 -82 75 -223 -44 -302
-157 -104 -355 -28 -419 161 -16 48 -23 207 -8 207 4 0 18 -9 32 -20 48 -38
133 -21 161 32 10 18 6 25 -25 54 -40 36 -43 51 -21 93 21 41 89 70 192 83
l89 11 -4 34 c-5 42 15 158 34 194 19 37 54 69 75 69 9 0 29 -13 42 -30 33
-38 69 -39 102 -4 36 38 33 84 -6 129 -18 20 -29 38 -26 42 16 15 156 15 209
-1 208 -60 280 -325 129 -476 -59 -59 -122 -78 -178 -55 -52 22 -72 42 -99
100 -23 49 -30 98 -18 129 5 14 8 14 27 1 12 -8 39 -15 60 -15 31 0 45 7 68
31 34 37 52 29 70 -30 9 -30 8 -44 -5 -75 -18 -43 -39 -43 -46 0 -4 24 -10 30
-38 32 -65 6 -82 -40 -33 -89 40 -40 115 -42 159 -4 61 51 77 126 43 200 -69
154 -284 149 -357 -8 -74 -159 44 -329 227 -328 104 0 189 54 238 152 47 94
49 185 6 304 -13 39 36 -27 67 -90 41 -81 50 -173 19 -204 -11 -11 -32 -21
-46 -21 -21 0 -25 -5 -25 -28 0 -68 84 -93 152 -47 31 21 45 24 77 19 106 -17
189 77 135 154 -21 30 -39 28 -66 -8 -37 -51 -55 -39 -137 99 -87 146 -168
234 -258 280 -35 17 -63 33 -63 36 0 9 108 -29 160 -56 30 -16 109 -70 175
-119 159 -119 220 -137 277 -80 27 27 30 36 25 73 -7 48 -35 77 -77 77 -31 0
-60 -23 -60 -46 0 -8 13 -23 30 -32 46 -26 35 -61 -15 -48 -29 7 -119 78 -141
110 -14 23 -14 27 2 51 9 14 14 28 12 31 -3 2 -70 23 -149 45 -121 35 -163 42
-265 46 -133 6 -181 -3 -306 -58 -36 -16 -69 -29 -71 -29 -3 0 -1 15 4 32 22
77 3 160 -44 191 -31 20 -114 22 -138 4z m101 -56 c0 -4 -14 -6 -30 -3 -24 3
-28 7 -19 18 8 10 16 11 30 3 10 -5 19 -13 19 -18z m204 -2771 c36 -13 32 -30
-7 -30 -40 0 -51 8 -36 27 14 16 11 15 43 3z m-903 -581 c-9 -22 -10 -22 -10
-3 -1 11 2 24 6 27 12 12 14 0 4 -24z"/>
<path d="M3394 12696 l-37 -37 5 -89 5 -89 -40 21 c-164 83 -284 85 -511 8
-165 -56 -163 -55 -130 -91 15 -17 15 -20 -4 -47 -34 -46 -110 -112 -131 -112
-32 0 -36 21 -8 42 33 24 34 53 3 73 -17 12 -30 13 -49 6 -33 -13 -47 -40 -47
-88 1 -46 18 -71 58 -82 58 -17 95 1 204 101 121 110 176 150 249 178 61 24
58 20 -24 -35 -71 -47 -123 -118 -206 -282 -35 -68 -68 -123 -75 -123 -7 0
-23 11 -36 25 -31 33 -58 32 -71 -2 -16 -42 -3 -88 34 -119 28 -23 37 -26 83
-21 45 5 57 2 85 -19 44 -32 83 -31 114 2 36 39 33 71 -7 82 -57 15 -71 73
-42 173 16 54 63 154 69 147 1 -1 -3 -32 -11 -68 -55 -250 141 -459 341 -364
77 36 135 156 121 249 -9 56 -60 132 -106 157 -46 25 -138 21 -178 -8 -40 -29
-72 -99 -72 -157 0 -124 117 -202 191 -128 44 45 35 101 -16 101 -27 0 -45
-18 -45 -46 0 -39 -20 -37 -36 2 -17 40 -13 88 10 119 13 18 15 18 50 -13 41
-36 55 -38 95 -17 36 18 41 12 41 -44 -1 -60 -28 -118 -75 -160 -34 -30 -43
-33 -82 -28 -59 6 -110 49 -148 122 -26 51 -30 69 -30 139 1 126 49 212 149
264 42 22 65 26 128 27 42 0 80 -3 84 -8 4 -4 -2 -17 -13 -30 -48 -53 -50
-100 -6 -149 17 -19 73 -25 73 -8 0 6 11 22 25 36 20 20 28 23 45 14 46 -25
80 -139 80 -272 l0 -81 -24 22 c-13 12 -39 24 -59 28 -31 5 -40 1 -67 -26 -39
-38 -36 -61 10 -76 84 -28 79 -148 -9 -236 -42 -43 -122 -82 -137 -67 -3 4 0
24 7 47 9 31 9 46 -1 70 -15 38 -53 63 -88 59 -26 -3 -27 -5 -24 -60 3 -46 0
-60 -17 -77 -24 -24 -68 -27 -95 -8 -14 10 -15 17 -7 40 6 16 11 52 11 81 0
72 -26 106 -80 106 -74 0 -101 -77 -60 -169 26 -56 25 -65 -5 -79 -40 -19 -47
-15 -40 19 17 77 -81 94 -108 18 -8 -23 21 -75 49 -88 40 -18 105 -13 143 10
l35 21 78 -27 c105 -37 205 -33 323 13 122 47 133 49 140 19 14 -54 75 -40 75
18 0 36 -28 65 -62 65 -23 0 -23 2 3 53 48 92 71 180 76 285 7 127 -8 193 -82
371 -57 138 -77 205 -54 184 18 -18 94 -16 109 2 6 8 14 31 17 52 7 54 -19 83
-80 90 -43 5 -49 3 -83 -31z m93 -31 c2 -6 -8 -12 -22 -13 -24 -2 -32 8 -18
22 10 9 36 3 40 -9z m-560 -927 c-3 -22 -4 -21 -11 4 -5 16 -5 36 0 45 7 16 8
15 11 -4 3 -13 3 -33 0 -45z"/>
<path d="M3663 12704 c-21 -21 -24 -32 -20 -61 8 -50 33 -73 77 -73 20 0 41 5
48 12 24 24 12 -33 -29 -140 -64 -163 -88 -263 -88 -366 -1 -107 17 -184 70
-293 21 -45 39 -84 39 -87 0 -3 -11 -6 -23 -6 -45 0 -76 -67 -45 -98 21 -21
55 -14 62 13 8 33 28 32 135 -5 152 -52 255 -49 371 10 36 18 37 18 65 0 71
-46 161 -30 192 35 16 34 16 36 -4 63 -25 34 -47 38 -79 17 -22 -14 -25 -22
-19 -51 5 -29 3 -34 -13 -34 -10 0 -26 6 -36 13 -18 13 -18 16 3 77 27 76 22
120 -16 150 -34 27 -69 25 -98 -4 -33 -33 -40 -83 -21 -148 14 -49 14 -54 -1
-65 -26 -20 -77 -16 -98 7 -14 15 -17 31 -13 70 6 57 -7 76 -44 65 -63 -19
-91 -85 -64 -149 l16 -38 -38 7 c-98 18 -172 96 -180 190 -5 66 12 99 57 108
24 5 31 12 31 30 0 58 -90 88 -143 47 -14 -11 -28 -20 -31 -20 -12 0 -5 178 9
233 29 110 70 142 115 88 31 -37 59 -39 88 -8 41 44 38 91 -11 144 -11 13 -18
26 -14 29 3 3 35 9 70 11 123 10 217 -43 268 -151 70 -148 13 -342 -115 -391
-43 -16 -47 -16 -83 1 -60 30 -96 91 -101 171 -4 62 -3 66 14 58 11 -5 36 -10
56 -13 32 -3 41 1 67 28 l29 32 17 -26 c20 -31 23 -92 6 -124 -17 -31 -29 -27
-33 11 -3 30 -5 32 -43 32 -37 0 -40 -2 -43 -31 -5 -47 35 -84 92 -84 138 0
171 232 44 310 -168 102 -345 -110 -249 -298 22 -43 80 -98 118 -113 42 -16
131 -11 171 10 48 25 94 74 123 131 37 73 38 213 2 305 -16 43 16 1 45 -58 63
-128 63 -238 -1 -255 -27 -7 -32 -13 -30 -37 5 -66 78 -87 139 -40 27 21 40
24 76 19 33 -4 51 0 75 15 40 25 60 82 44 124 -16 42 -40 45 -70 9 -42 -51
-39 -53 -129 113 -78 145 -154 233 -240 275 -59 30 -47 35 20 10 70 -26 122
-60 232 -155 135 -116 194 -138 250 -94 22 17 26 28 26 70 0 57 -24 89 -68 89
-54 0 -71 -47 -27 -76 28 -18 33 -42 10 -50 -22 -9 -86 36 -130 91 -35 42 -37
47 -21 63 9 10 16 24 16 30 0 9 -139 57 -265 91 -22 6 -81 11 -131 11 -97 0
-155 -15 -252 -64 l-53 -27 7 64 c12 115 -28 177 -113 177 -34 0 -50 -6 -70
-26z m96 -37 c8 -11 5 -13 -19 -9 -16 2 -27 8 -24 13 8 13 30 11 43 -4z m554
-899 l-11 -33 -1 45 c-1 33 2 41 11 32 8 -8 8 -20 1 -44z"/>
<path d="M6188 12710 c-38 -29 -52 -72 -45 -138 3 -31 8 -65 12 -74 5 -14 -10
-10 -78 18 -122 49 -183 60 -271 46 -78 -13 -356 -98 -356 -110 0 -4 7 -18 16
-30 15 -22 14 -25 -12 -63 -37 -53 -93 -99 -121 -99 -30 0 -29 18 3 51 22 23
24 30 15 48 -19 34 -66 32 -98 -5 -31 -33 -30 -85 0 -120 20 -22 32 -27 69
-27 60 1 69 7 179 109 96 88 148 128 208 159 35 18 91 36 91 30 0 -2 -24 -17
-53 -33 -82 -46 -138 -117 -217 -273 -39 -77 -78 -143 -87 -146 -10 -4 -24 3
-37 20 -24 30 -61 36 -70 11 -9 -25 -7 -83 4 -105 18 -32 68 -52 118 -46 36 4
51 0 80 -19 47 -32 85 -31 112 3 29 38 24 77 -13 81 -38 5 -50 33 -45 111 2
50 12 85 40 144 20 42 39 77 41 77 2 0 -2 -23 -9 -52 -53 -204 46 -395 215
-415 97 -11 187 48 226 150 53 140 -37 297 -170 297 -123 0 -207 -131 -159
-249 42 -99 157 -122 200 -40 18 35 18 44 -2 63 -36 36 -84 10 -84 -46 l-1
-23 -19 24 c-26 31 -27 100 -1 132 l19 24 21 -26 c27 -35 64 -44 103 -24 17 8
34 13 37 10 2 -3 4 -28 4 -56 -1 -94 -74 -189 -145 -189 -72 0 -152 77 -178
170 -18 66 -12 170 14 225 53 116 173 180 300 161 l46 -7 -30 -37 c-18 -22
-30 -48 -30 -65 0 -83 82 -132 114 -68 9 16 23 31 31 35 25 9 71 -44 88 -102
16 -53 34 -242 24 -242 -4 0 -21 9 -39 20 -43 26 -81 25 -112 -2 -40 -37 -39
-74 3 -83 50 -11 64 -36 59 -104 -7 -98 -79 -178 -178 -197 -30 -7 -33 -5 -26
12 5 10 11 38 13 61 5 37 2 46 -25 73 -21 21 -40 30 -62 30 l-32 0 7 -55 c6
-50 4 -57 -20 -81 -22 -22 -33 -25 -62 -21 -20 4 -38 8 -41 11 -3 3 1 33 8 66
15 70 3 133 -30 150 -35 18 -88 12 -104 -12 -28 -44 -29 -73 -2 -139 28 -70
24 -86 -24 -91 -22 -3 -24 0 -21 34 2 28 -2 39 -18 47 -29 16 -56 13 -74 -7
-26 -29 -21 -70 12 -103 24 -24 38 -29 78 -29 29 0 63 8 86 20 l38 21 70 -26
c116 -41 215 -33 373 30 l69 28 26 -31 c14 -18 31 -32 37 -32 18 0 44 35 44
58 0 24 -44 62 -71 62 -11 0 -19 2 -19 4 0 3 16 36 35 75 49 97 69 180 69 286
0 113 -12 164 -85 346 -33 80 -59 152 -59 160 0 11 12 13 49 11 44 -3 51 -1
67 23 9 15 17 40 17 57 0 67 -98 103 -155 58z m79 -46 c2 -5 -9 -11 -23 -12
-23 -2 -25 0 -14 13 14 16 31 16 37 -1z m-547 -911 c0 -32 -17 -37 -23 -6 -7
35 2 60 14 41 5 -7 9 -23 9 -35z"/>
<path d="M6456 12709 c-33 -26 -37 -88 -6 -119 22 -22 69 -26 100 -10 18 10
19 8 13 -22 -3 -18 -26 -83 -50 -145 -64 -166 -77 -223 -78 -343 0 -117 19
-191 78 -304 18 -34 33 -64 35 -68 2 -5 -8 -8 -22 -8 -29 0 -66 -31 -66 -56 0
-53 62 -76 80 -29 12 32 27 31 132 -4 150 -51 249 -50 358 2 l47 23 49 -24
c66 -31 119 -25 157 18 32 36 35 72 7 100 -42 42 -95 15 -88 -43 3 -32 1 -37
-17 -37 -12 0 -29 6 -39 13 -17 12 -16 15 3 65 25 62 26 102 6 141 -25 50 -73
55 -116 12 -33 -33 -38 -83 -17 -154 11 -35 10 -41 -7 -53 -28 -20 -72 -17
-96 7 -18 18 -21 29 -15 74 5 43 3 54 -10 59 -21 8 -80 -18 -93 -42 -14 -26
-14 -88 0 -114 15 -28 8 -31 -46 -17 -65 17 -139 87 -155 149 -20 76 0 140 45
140 37 0 49 23 31 58 -8 16 -23 32 -31 36 -33 12 -83 6 -109 -15 -24 -19 -27
-19 -32 -4 -11 27 4 196 21 246 30 86 84 111 115 54 19 -36 62 -34 89 4 30 42
27 84 -10 126 -18 20 -28 39 -24 43 3 4 46 7 93 7 98 0 142 -17 199 -77 54
-56 78 -121 77 -213 0 -94 -22 -152 -78 -208 -75 -75 -168 -64 -221 27 -43 74
-45 200 -2 157 6 -6 28 -11 48 -11 30 0 42 6 62 31 l24 31 22 -27 c27 -35 28
-94 2 -126 -20 -25 -26 -21 -33 26 -4 24 -51 33 -74 14 -21 -17 -17 -44 12
-78 21 -26 33 -31 69 -31 76 0 125 59 125 150 0 65 -18 108 -63 147 -118 103
-291 -3 -290 -177 2 -132 95 -230 219 -230 103 0 171 49 223 160 22 46 26 68
25 140 -1 49 -8 103 -16 128 -24 66 3 34 42 -49 43 -94 52 -187 21 -218 -11
-11 -30 -21 -41 -21 -15 0 -20 -7 -20 -28 0 -66 79 -94 136 -49 22 17 42 22
87 22 54 0 61 3 88 33 33 37 40 100 13 126 -21 21 -23 21 -61 -16 -25 -25 -35
-29 -46 -19 -8 6 -41 61 -73 122 -87 164 -129 212 -270 306 -33 22 84 -24 131
-52 26 -14 87 -62 138 -107 126 -109 181 -134 241 -107 49 23 59 115 17 153
-25 23 -70 17 -88 -11 -14 -21 -13 -24 16 -51 27 -25 30 -31 17 -41 -20 -17
-63 6 -121 66 -50 52 -52 59 -30 90 11 16 12 23 2 30 -6 6 -79 29 -162 52
-224 62 -298 58 -476 -22 l-56 -25 5 77 c5 84 -10 131 -47 151 -33 17 -96 12
-125 -11z m94 -49 c0 -4 -11 -5 -25 -2 -20 3 -23 7 -14 18 9 11 15 11 25 3 8
-6 14 -15 14 -19z m550 -874 c0 -19 -4 -38 -10 -41 -6 -4 -10 10 -10 34 0 23
5 41 10 41 6 0 10 -15 10 -34z"/>
<path d="M8979 12715 c-46 -25 -65 -106 -46 -197 l8 -36 -80 34 c-110 48 -185
60 -282 45 -73 -11 -279 -74 -328 -101 -21 -11 -21 -13 -7 -29 9 -10 16 -25
16 -33 0 -21 -85 -115 -120 -133 -25 -13 -30 -13 -41 1 -11 14 -9 19 14 36 46
34 30 78 -29 78 -41 0 -64 -30 -64 -83 0 -50 13 -73 50 -85 56 -20 96 -4 174
67 97 90 174 153 217 179 39 24 137 60 105 39 -10 -7 -39 -25 -64 -42 -64 -41
-117 -113 -192 -261 -74 -146 -91 -163 -121 -121 -37 49 -79 26 -79 -43 0 -23
10 -42 35 -67 34 -34 38 -35 90 -30 46 5 58 2 86 -19 51 -38 100 -31 124 17
22 42 18 57 -15 64 -64 14 -77 91 -36 205 19 55 78 165 63 120 -50 -158 -23
-304 73 -394 117 -110 276 -79 353 69 45 88 13 227 -66 286 -48 35 -140 39
-187 7 -129 -88 -93 -318 50 -318 22 0 41 9 61 29 49 49 33 106 -28 99 -23 -2
-29 -9 -31 -33 -2 -16 -7 -34 -12 -39 -11 -11 -40 46 -40 79 0 26 25 85 36 85
4 0 22 -13 41 -30 38 -34 59 -37 91 -14 29 20 42 10 42 -33 0 -60 -23 -115
-66 -160 -33 -36 -47 -43 -78 -43 -68 0 -128 48 -168 135 -18 40 -23 68 -23
135 0 76 3 91 30 138 35 64 71 97 143 130 44 20 65 23 117 20 36 -2 67 -7 71
-11 4 -3 -8 -23 -26 -43 -27 -31 -31 -43 -26 -72 6 -41 41 -82 69 -82 11 0 35
17 53 38 l34 37 34 -36 c41 -44 66 -139 66 -253 l0 -75 -36 24 c-20 14 -45 25
-55 25 -48 0 -99 -50 -86 -83 3 -8 20 -18 36 -22 118 -26 42 -256 -96 -294
-60 -17 -62 -16 -46 33 13 40 13 48 -2 79 -17 36 -59 62 -92 55 -15 -3 -18
-12 -15 -60 3 -47 0 -60 -17 -77 -24 -24 -68 -27 -95 -8 -17 12 -17 18 -6 52
16 48 8 129 -15 155 -28 31 -88 27 -114 -6 -27 -34 -27 -79 0 -146 l21 -53
-22 -17 c-36 -29 -54 -24 -46 14 15 74 -90 97 -108 23 -21 -85 100 -137 195
-84 l38 22 53 -23 c64 -28 177 -37 245 -21 26 6 85 25 130 43 68 25 85 28 98
18 8 -7 15 -18 15 -25 0 -11 20 -25 35 -25 14 0 35 36 35 60 0 33 -31 60 -67
60 -23 0 -23 1 13 71 69 138 90 287 60 429 -8 36 -41 133 -75 216 -60 147 -75
202 -49 176 17 -17 84 -15 102 4 21 20 30 58 22 89 -12 47 -93 69 -147 40z
m78 -50 c2 -6 -11 -12 -28 -13 -28 -2 -30 -1 -19 13 14 17 41 17 47 0z m-557
-906 c0 -24 -4 -38 -10 -34 -5 3 -10 22 -10 41 0 19 5 34 10 34 6 0 10 -18 10
-41z"/>
<path d="M9235 12705 c-51 -50 -17 -135 54 -135 20 0 43 6 50 13 22 20 5 -48
-40 -164 -107 -273 -108 -443 -3 -651 19 -37 34 -70 34 -73 0 -3 -11 -5 -23
-5 -35 0 -59 -32 -55 -72 3 -29 7 -33 36 -36 27 -3 32 0 32 18 0 34 27 34 133
1 143 -44 208 -49 293 -22 38 12 79 27 92 34 21 12 29 11 69 -10 54 -27 80
-29 128 -9 38 16 55 42 55 85 0 31 -30 61 -61 61 -28 0 -52 -36 -46 -70 5 -24
3 -30 -11 -30 -10 0 -27 6 -37 14 -18 13 -18 15 4 83 21 65 21 72 7 106 -28
67 -99 74 -137 14 -20 -32 -21 -62 -3 -156 8 -39 -5 -51 -52 -51 -48 0 -69 31
-67 95 2 39 -1 54 -12 59 -23 8 -60 -9 -85 -41 -22 -28 -23 -57 -4 -122 7 -22
5 -23 -27 -16 -107 23 -181 107 -182 206 -1 56 18 84 64 93 35 7 38 32 8 70
-25 32 -77 35 -124 6 l-32 -20 -6 54 c-7 75 8 188 33 236 34 67 87 76 105 19
8 -25 56 -26 78 -1 42 46 40 101 -5 149 -12 13 -18 26 -15 30 4 3 31 8 61 11
118 10 217 -41 271 -139 27 -49 30 -62 30 -149 0 -83 -3 -101 -27 -145 -47
-89 -121 -136 -182 -115 -65 21 -117 104 -119 187 0 51 5 58 31 44 38 -20 76
-13 108 20 l29 30 17 -22 c29 -35 20 -149 -12 -149 -6 0 -10 9 -10 19 0 38
-11 51 -46 51 -45 0 -61 -28 -39 -70 31 -60 103 -69 160 -19 95 84 52 262 -72
299 -83 25 -159 -12 -206 -100 -25 -48 -28 -63 -24 -120 5 -75 23 -115 73
-164 46 -45 91 -59 164 -54 166 12 274 218 216 412 -20 66 3 45 40 -37 53
-117 44 -230 -20 -239 -29 -4 -32 -38 -6 -71 27 -35 73 -36 121 -3 28 19 44
23 76 19 45 -6 96 15 113 47 17 32 8 111 -13 124 -15 9 -23 5 -47 -24 -40 -48
-51 -39 -121 99 -89 173 -128 217 -275 308 -15 9 -9 9 24 1 60 -15 147 -70
252 -162 139 -120 204 -143 255 -91 52 51 21 155 -46 155 -52 0 -68 -56 -24
-80 28 -15 30 -43 4 -48 -20 -4 -93 51 -132 100 -29 36 -29 39 -14 56 10 10
17 23 17 29 0 11 -177 71 -270 92 -25 6 -84 11 -131 11 -91 0 -151 -15 -246
-64 -29 -14 -54 -26 -56 -26 -3 0 0 21 5 46 15 67 2 132 -32 166 -39 38 -109
40 -145 3z m103 -51 c-2 -1 -15 0 -31 3 -22 4 -25 8 -16 19 10 12 15 12 30 -2
11 -10 18 -18 17 -20z m543 -890 l-8 -29 -8 27 c-4 16 -4 36 0 45 11 30 26 -8
16 -43z"/>
<path d="M11904 12711 c-20 -12 -37 -34 -44 -57 -12 -36 -9 -120 5 -156 6 -16
-2 -14 -61 8 -133 51 -203 66 -284 60 -120 -8 -440 -96 -440 -120 0 -8 7 -19
15 -26 8 -7 15 -16 15 -20 0 -18 -93 -110 -131 -128 -68 -34 -93 -9 -38 37 34
29 32 52 -7 69 -72 34 -137 -74 -84 -140 42 -54 123 -42 220 33 36 27 97 74
135 104 70 56 184 117 240 129 20 4 7 -6 -38 -30 -95 -52 -166 -134 -252 -289
-38 -70 -77 -131 -86 -136 -12 -6 -24 0 -44 21 -48 50 -85 35 -85 -36 0 -72
68 -116 154 -100 25 5 44 0 77 -19 56 -32 93 -32 125 0 37 37 30 77 -15 86
-18 4 -37 13 -42 21 -16 24 -10 126 11 178 20 50 70 133 76 127 2 -2 -3 -25
-12 -51 -23 -66 -15 -196 14 -253 28 -54 81 -107 135 -135 33 -18 59 -23 118
-23 67 0 81 3 125 30 59 37 109 108 118 169 19 126 -79 246 -203 246 -61 0
-97 -13 -134 -48 -42 -39 -58 -77 -59 -133 0 -122 127 -204 210 -134 36 30 44
57 25 84 -31 44 -93 19 -93 -38 0 -27 -15 -27 -34 1 -29 41 -11 148 24 148 5
0 20 -11 34 -25 34 -34 67 -40 111 -20 19 10 39 15 42 11 13 -13 5 -103 -12
-137 -78 -155 -245 -142 -333 26 -22 42 -27 63 -27 130 0 70 4 87 30 134 16
29 47 69 69 87 55 47 157 78 241 72 74 -5 87 -12 57 -34 -31 -22 -54 -69 -46
-99 15 -61 104 -102 119 -55 4 11 18 28 31 37 24 15 27 15 52 -3 44 -33 74
-105 81 -197 l6 -82 70 -3 c105 -3 161 -19 200 -57 46 -42 45 -72 -1 -114 -33
-30 -34 -34 -21 -54 21 -33 77 -59 112 -52 16 3 41 17 56 31 l27 26 8 -47 c17
-115 -19 -236 -91 -307 -52 -51 -99 -71 -178 -76 -60 -4 -75 -1 -131 27 -95
46 -145 126 -133 213 12 93 141 179 222 148 l28 -11 -22 -22 c-31 -34 -27 -79
9 -121 35 -39 32 -59 -11 -81 -39 -21 -64 -19 -95 8 -28 25 -26 47 5 47 33 0
55 25 47 53 -14 57 -104 37 -132 -30 -14 -32 -13 -38 6 -77 59 -122 259 -112
326 16 18 35 18 121 0 156 -38 72 -122 122 -206 122 -93 0 -168 -46 -215 -131
-70 -130 -9 -284 139 -350 74 -32 194 -37 270 -10 33 11 61 19 63 17 2 -2 -27
-24 -64 -49 -113 -75 -213 -97 -253 -57 -11 11 -20 28 -20 39 0 46 -71 43
-110 -6 -23 -30 -20 -50 17 -105 20 -30 23 -43 18 -80 -13 -86 29 -138 111
-138 74 0 88 20 44 65 -29 30 -32 37 -22 59 6 14 50 47 109 82 136 79 208 137
259 206 24 33 44 55 44 49 0 -34 -68 -151 -152 -263 -52 -69 -100 -141 -107
-159 -30 -86 4 -139 89 -139 41 0 56 5 75 25 14 13 25 31 25 40 0 19 -35 55
-55 55 -17 0 -55 -35 -55 -51 0 -5 -4 -7 -10 -4 -31 19 11 116 79 180 27 25
34 28 51 17 48 -30 55 -20 93 126 75 286 75 352 6 527 -24 61 -45 113 -47 116
-1 3 33 4 76 1 91 -5 132 10 157 58 24 47 19 87 -15 122 -27 27 -36 30 -71 25
-54 -7 -79 -31 -79 -77 0 -43 14 -60 53 -60 18 0 26 -4 21 -11 -12 -21 -87 -2
-219 53 -123 52 -244 88 -299 88 -21 0 -25 6 -31 43 -13 74 -46 168 -101 287
-57 123 -77 185 -53 163 7 -7 34 -13 59 -13 53 0 76 18 86 67 14 72 -98 121
-172 74z m93 -46 c1 -5 -11 -11 -28 -12 -27 -2 -29 0 -18 13 13 16 40 15 46
-1z m683 -664 c0 -4 -6 -15 -13 -26 -13 -16 -14 -15 -9 13 2 18 8 29 13 26 5
-3 9 -9 9 -13z"/>
<path d="M12214 12718 c-48 -23 -55 -87 -14 -128 22 -22 79 -27 112 -9 20 11
21 9 15 -19 -3 -16 -31 -88 -61 -159 -51 -117 -76 -193 -64 -193 10 0 131 51
237 100 69 32 129 53 152 54 43 1 80 -26 78 -58 -2 -20 -2 -20 -6 1 -10 52
-78 59 -101 10 -37 -76 71 -142 141 -87 32 26 44 78 25 116 -30 64 -110 88
-210 65 -36 -8 -36 -8 -27 17 5 14 20 47 33 73 13 27 20 49 15 49 -4 0 -29 -9
-56 -21 -101 -44 -93 -47 -86 31 7 78 -6 120 -45 150 -27 22 -101 26 -138 8z
m96 -57 c0 -4 -14 -6 -30 -3 -24 3 -28 7 -19 18 8 10 16 11 30 3 10 -5 19 -13
19 -18z"/>
<path d="M828 12010 c-25 -15 -58 -74 -58 -104 0 -32 49 -86 78 -86 25 0 38
16 47 58 7 34 9 36 58 46 35 8 36 38 2 71 -18 19 -35 25 -67 25 -24 0 -51 -5
-60 -10z"/>
<path d="M11863 12010 c-28 -11 -57 -55 -50 -74 3 -8 22 -18 41 -21 40 -8 50
-18 60 -57 9 -38 57 -39 91 -2 45 49 24 120 -45 148 -45 18 -64 19 -97 6z"/>
<path d="M1970 11997 c-45 -14 -105 -76 -113 -115 -17 -85 62 -182 148 -182
43 0 95 30 112 64 36 77 -56 135 -101 63 -7 -12 -6 -21 7 -35 9 -10 17 -21 17
-24 0 -11 -37 -15 -54 -6 -28 16 -19 54 21 86 31 25 37 35 36 66 -1 45 21 48
66 11 64 -54 66 -157 4 -226 -77 -86 -208 -69 -306 40 -30 33 -80 124 -100
184 -10 26 -38 33 -53 13 -10 -15 -10 -25 1 -55 42 -121 115 -215 200 -259 41
-21 64 -26 130 -26 92 -1 137 17 198 80 24 25 37 33 37 23 0 -28 59 -98 100
-119 97 -50 191 -35 276 42 97 89 174 298 109 298 -16 0 -23 -15 -59 -111 -64
-174 -217 -254 -315 -166 -68 62 -67 204 3 252 33 24 44 18 43 -21 -1 -29 6
-42 36 -69 20 -19 37 -41 37 -49 0 -21 -28 -46 -45 -40 -18 7 -19 26 -4 41 31
31 -27 76 -70 53 -23 -12 -29 -66 -11 -101 14 -25 62 -49 97 -49 63 0 133 82
133 154 0 44 -30 96 -72 123 -74 49 -191 28 -228 -42 -17 -32 -25 -32 -40 4
-35 86 -142 129 -240 98z"/>
<path d="M4770 11988 c-65 -33 -93 -79 -88 -145 10 -123 134 -185 212 -106 47
47 26 128 -32 121 -34 -4 -51 -32 -34 -58 18 -29 15 -40 -13 -40 -18 0 -26 7
-31 26 -5 21 1 33 31 64 31 32 37 44 33 69 -8 57 57 28 87 -39 34 -76 8 -165
-63 -212 -33 -22 -112 -24 -151 -4 -59 31 -132 140 -174 259 -8 23 -35 33 -50
18 -8 -8 -6 -26 7 -68 62 -198 184 -301 330 -279 51 8 115 47 141 87 l20 28
17 -32 c24 -47 90 -104 135 -116 150 -42 281 51 348 248 27 79 25 111 -5 111
-13 0 -23 -14 -35 -47 -70 -195 -168 -290 -270 -262 -42 12 -90 51 -110 90
-32 60 -13 146 41 188 37 29 44 27 44 -14 0 -27 8 -42 35 -66 39 -35 46 -73
17 -88 -25 -13 -52 3 -34 21 40 40 -14 96 -63 64 -38 -25 -34 -69 10 -113 33
-33 39 -35 81 -30 102 11 160 141 101 227 -65 98 -208 99 -273 2 l-22 -32 -10
28 c-14 41 -62 93 -99 108 -46 20 -82 17 -133 -8z"/>
<path d="M7565 11995 c-77 -27 -119 -108 -96 -185 25 -85 107 -130 177 -97 61
30 80 112 32 138 -47 25 -98 -23 -64 -60 18 -20 12 -31 -15 -31 -22 0 -39 29
-30 52 3 9 18 26 34 38 21 17 27 30 27 61 0 45 14 50 53 19 34 -27 61 -100 53
-142 -9 -47 -40 -95 -78 -119 -48 -29 -133 -23 -182 14 -48 38 -91 102 -124
189 -22 56 -32 73 -47 73 -69 0 30 -229 130 -304 57 -43 129 -58 202 -42 45
11 65 22 103 60 l48 48 16 -38 c63 -142 264 -158 380 -29 80 89 142 275 92
275 -15 0 -27 -19 -51 -81 -41 -105 -85 -167 -141 -200 -112 -66 -221 -8 -232
121 -5 63 9 107 46 135 37 30 53 26 45 -10 -5 -25 0 -35 29 -63 45 -42 51 -61
29 -89 -16 -19 -21 -20 -35 -9 -15 12 -15 16 -1 31 20 22 19 33 -5 55 -45 40
-104 -16 -80 -76 17 -40 43 -60 88 -66 71 -10 131 43 147 129 10 50 -24 120
-72 149 -71 44 -182 23 -220 -41 -9 -16 -20 -30 -23 -30 -3 0 -16 21 -30 48
-18 34 -37 53 -70 70 -51 25 -79 27 -135 7z"/>
<path d="M10354 11999 c-18 -5 -48 -27 -68 -49 -31 -35 -36 -47 -36 -91 0 -56
15 -92 55 -129 21 -20 37 -25 77 -25 43 0 53 4 79 33 33 36 38 81 13 106 -18
19 -55 21 -72 4 -15 -15 -16 -58 -2 -58 6 0 10 -7 10 -16 0 -11 -8 -14 -27
-12 -44 5 -43 42 3 89 31 32 36 42 31 68 -5 26 -3 31 12 31 27 0 77 -61 85
-105 13 -69 -15 -144 -67 -175 -35 -22 -100 -26 -144 -9 -61 23 -131 112 -168
214 -22 61 -38 80 -61 71 -23 -9 -14 -61 30 -151 59 -125 135 -190 234 -202
74 -8 130 12 185 67 l48 48 20 -39 c11 -22 38 -53 61 -69 145 -105 349 -36
443 151 58 114 66 174 23 167 -16 -2 -30 -24 -56 -86 -60 -146 -154 -224 -265
-223 -89 0 -147 54 -155 144 -5 65 15 115 57 140 42 25 51 21 51 -18 0 -24 7
-41 22 -53 41 -34 58 -52 58 -65 0 -21 -35 -48 -54 -41 -18 7 -22 34 -5 34 6
0 9 12 7 27 -7 62 -108 48 -108 -15 0 -77 103 -127 179 -87 67 34 104 118 81
180 -26 68 -89 108 -170 108 -64 0 -105 -18 -147 -67 l-31 -34 -17 38 c-41 90
-118 126 -211 99z"/>
<path d="M1405 11891 c-54 -23 -71 -75 -49 -157 14 -54 14 -59 -2 -71 -10 -7
-35 -13 -55 -13 -55 0 -83 38 -75 102 6 40 4 47 -12 53 -42 13 -112 -38 -112
-82 0 -16 -7 -24 -25 -29 -33 -8 -75 -59 -75 -91 0 -25 1 -26 54 -19 75 8 101
-13 101 -81 0 -72 -8 -85 -42 -72 -43 16 -131 13 -159 -6 -54 -35 -50 -101 7
-131 39 -20 93 -15 150 15 l40 21 14 -35 c23 -53 20 -63 -19 -62 -62 2 -86
-43 -46 -83 50 -50 138 -1 147 82 5 38 0 57 -21 98 l-27 51 26 70 c14 39 25
81 25 94 0 18 7 25 30 30 17 4 57 17 89 30 l59 23 33 -22 c46 -29 137 -29 176
0 78 58 36 158 -51 124 -26 -10 -28 -14 -23 -50 4 -35 3 -40 -15 -40 -16 0
-52 14 -66 25 -1 1 7 23 18 49 25 59 26 126 3 155 -20 24 -68 35 -98 22z m45
-104 c0 -12 -4 -29 -9 -36 -8 -12 -11 -9 -16 12 -8 31 0 61 15 52 5 -3 10 -16
10 -28z m-365 -417 c6 -10 -34 -30 -61 -30 -8 0 -14 9 -14 20 0 16 7 20 34 20
19 0 38 -5 41 -10z"/>
<path d="M11291 11844 c-28 -35 -26 -77 4 -142 14 -30 25 -56 25 -58 0 -8 -62
-35 -73 -31 -6 2 -11 21 -11 42 -1 34 -5 41 -29 49 -33 12 -80 -9 -85 -38 -17
-87 112 -139 212 -85 l39 21 93 -28 c90 -27 93 -29 102 -63 5 -20 19 -59 30
-86 l20 -51 -24 -49 c-35 -74 -30 -130 17 -174 45 -42 129 -20 129 33 0 32
-19 46 -62 46 -21 0 -38 3 -38 8 0 15 21 82 26 82 2 0 32 -9 66 -21 100 -33
168 -7 168 65 0 66 -86 96 -190 66 -25 -7 -36 -7 -42 3 -10 15 -10 108 0 123
15 22 48 32 95 27 46 -5 47 -5 47 21 0 33 -49 86 -79 86 -14 0 -25 11 -34 33
-18 42 -37 57 -82 64 -43 7 -58 -8 -44 -44 15 -39 11 -62 -16 -88 -27 -28 -80
-33 -110 -12 -16 12 -16 18 -7 47 24 68 7 158 -33 174 -9 3 -34 6 -55 6 -30 0
-43 -6 -59 -26z m79 -91 c0 -35 -3 -44 -10 -33 -13 20 -13 80 0 80 6 0 10 -21
10 -47z m440 -388 c0 -22 -27 -30 -56 -16 -33 15 -22 31 22 31 24 0 34 -5 34
-15z"/>
<path d="M1738 11451 c-14 -19 -16 -19 -60 -3 -37 13 -51 14 -72 4 -34 -15
-33 -22 10 -51 48 -33 135 -144 219 -279 91 -147 142 -204 213 -239 50 -24 69
-28 147 -28 83 0 96 3 160 35 96 48 258 208 303 299 41 82 41 109 3 124 -16 6
-36 22 -43 36 -7 13 -33 37 -57 53 -81 51 -192 32 -255 -42 -49 -59 -26 -170
35 -170 31 0 77 27 84 50 10 30 -3 41 -43 38 -48 -4 -55 23 -16 63 37 39 90
40 135 2 66 -56 78 -149 30 -248 -27 -56 -90 -130 -92 -109 -1 5 -2 29 -3 54
-1 39 -5 46 -31 59 -26 13 -33 12 -64 -5 -48 -26 -62 -65 -34 -102 14 -19 30
-28 56 -30 21 -2 37 -7 37 -12 0 -13 -80 -48 -138 -61 -97 -20 -204 14 -276
89 -50 53 -42 66 36 57 49 -6 62 -4 79 11 25 22 24 56 -2 80 -40 37 -40 48 1
98 65 79 74 140 26 172 -17 11 -30 12 -49 5 -48 -19 -56 -71 -11 -71 37 0 29
-21 -27 -75 -56 -55 -88 -113 -89 -161 0 -47 -27 -53 -46 -9 -18 43 -17 59 2
165 16 91 12 161 -11 180 -18 15 -40 0 -50 -31 -9 -26 -25 -24 -25 4 0 31 -27
67 -50 67 -10 0 -25 -9 -32 -19z m287 -331 c3 -5 1 -10 -4 -10 -6 0 -11 5 -11
10 0 6 2 10 4 10 3 0 8 -4 11 -10z"/>
<path d="M11032 11461 c-7 -4 -19 -25 -26 -46 l-14 -39 -16 32 c-22 42 -44 40
-63 -5 -11 -28 -14 -54 -9 -98 19 -172 19 -181 2 -214 -19 -36 -40 -37 -44 0
-8 75 -16 93 -72 158 -33 38 -60 74 -60 80 0 6 11 11 24 11 47 0 43 50 -5 70
-35 15 -53 9 -75 -25 -22 -34 -8 -83 41 -148 19 -25 35 -50 35 -55 0 -4 -13
-21 -30 -37 -35 -33 -38 -64 -10 -90 16 -14 30 -17 72 -12 78 9 91 -3 48 -48
-19 -20 -57 -49 -85 -63 -43 -23 -62 -27 -136 -27 -75 0 -92 3 -144 30 -62 32
-73 52 -25 47 35 -4 80 35 80 68 0 29 -53 80 -82 80 -13 0 -34 -7 -46 -16 -19
-13 -23 -24 -20 -57 3 -53 -12 -57 -46 -12 -89 116 -93 259 -10 324 15 12 38
24 51 27 49 13 120 -40 111 -83 -3 -14 -13 -18 -43 -18 -34 0 -40 -4 -43 -22
-2 -16 6 -28 30 -43 44 -26 64 -25 95 6 22 22 25 32 21 75 -11 108 -144 180
-251 136 -18 -8 -49 -33 -69 -55 -21 -23 -44 -42 -51 -42 -20 0 -37 -22 -37
-48 0 -58 63 -155 170 -264 130 -132 183 -161 305 -166 158 -7 236 47 385 267
91 135 172 228 227 262 33 21 34 23 17 36 -22 16 -60 17 -103 2 -29 -10 -34
-9 -47 10 -16 22 -31 26 -52 12z m-237 -331 c3 -5 -1 -10 -10 -10 -9 0 -13 5
-10 10 3 6 8 10 10 10 2 0 7 -4 10 -10z"/>
<path d="M1489 11358 c-7 -12 -9 -42 -6 -73 5 -45 3 -52 -16 -61 -44 -19 -30
-65 28 -90 27 -11 28 -13 10 -19 -60 -20 -65 -40 -16 -69 27 -15 58 -21 145
-24 88 -3 119 -9 149 -25 59 -33 45 -52 -37 -48 -45 2 -59 -3 -121 -43 -81
-53 -105 -58 -105 -21 0 30 -20 41 -49 25 -45 -23 -38 -90 10 -110 34 -15 90
-3 145 31 43 26 55 24 87 -16 51 -64 107 -37 107 52 0 75 20 85 59 31 82 -112
76 -266 -15 -385 -33 -43 -47 -42 -38 2 4 25 1 43 -10 60 -36 55 -136 14 -136
-56 0 -35 44 -73 76 -65 34 9 38 -10 7 -32 -145 -100 -353 -48 -353 88 0 44
20 73 60 90 24 10 33 10 45 0 13 -10 13 -16 0 -40 -15 -30 -5 -50 26 -50 19 0
54 39 64 70 15 47 -57 97 -122 85 -69 -13 -143 -108 -143 -185 0 -40 28 -105
59 -137 11 -12 21 -31 21 -41 0 -85 181 -34 361 102 127 96 189 198 190 312 2
133 -28 184 -225 379 -113 113 -171 178 -196 222 -19 34 -38 63 -42 63 -4 0
-13 -10 -19 -22z m261 -478 c0 -5 -4 -10 -10 -10 -5 0 -10 5 -10 10 0 6 5 10
10 10 6 0 10 -4 10 -10z"/>
<path d="M11280 11323 c-26 -49 -121 -149 -292 -306 -136 -124 -163 -173 -163
-292 0 -69 4 -89 31 -146 63 -132 255 -283 411 -324 51 -14 58 -13 75 2 10 9
18 23 18 31 0 8 16 32 34 53 80 87 67 212 -29 285 -44 34 -91 40 -134 17 -43
-22 -53 -49 -35 -91 27 -65 102 -67 77 -2 -15 41 4 58 47 40 90 -37 74 -155
-30 -207 -72 -37 -171 -25 -256 30 -42 28 -45 51 -6 42 20 -4 36 0 55 15 34
27 34 60 1 99 -53 64 -135 27 -120 -54 9 -45 -4 -45 -39 1 -72 95 -86 228 -35
331 33 65 63 99 79 88 6 -3 11 -32 11 -64 0 -95 51 -120 112 -56 l34 36 68
-36 c37 -19 80 -35 95 -35 40 0 71 26 71 61 0 26 -29 69 -47 69 -20 -1 -34
-20 -31 -41 4 -34 -24 -27 -89 22 -63 47 -96 61 -143 59 -19 -1 -41 -2 -47 -1
-22 2 -14 28 15 47 22 15 53 20 163 24 116 4 140 8 158 24 29 26 27 35 -16 52
l-36 16 40 18 c52 23 62 48 30 76 -21 18 -24 27 -20 71 5 47 -8 93 -25 93 -4
0 -18 -21 -32 -47z m-210 -433 c0 -5 -4 -10 -10 -10 -5 0 -10 5 -10 10 0 6 5
10 10 10 6 0 10 -4 10 -10z"/>
<path d="M9953 11129 c-7 -7 -13 -21 -13 -30 0 -9 -14 -32 -31 -50 -59 -63
-74 -134 -44 -207 43 -100 155 -146 221 -89 23 20 26 28 20 59 -8 43 -36 71
-68 66 -17 -2 -22 -8 -20 -23 9 -55 7 -60 -19 -63 -40 -5 -79 41 -79 93 0 133
201 182 345 84 40 -28 40 -45 1 -41 -74 9 -104 -73 -45 -122 39 -33 63 -33 95
0 22 21 25 31 20 60 -9 46 7 44 44 -8 42 -58 64 -137 57 -210 -6 -65 -43 -151
-81 -187 -23 -22 -25 -22 -34 -4 -6 11 -10 41 -9 67 2 39 -2 51 -22 67 -32 26
-39 25 -81 -21 l-38 -41 -64 36 c-73 40 -125 46 -151 17 -35 -38 -12 -107 34
-100 18 2 24 9 24 27 1 36 17 35 71 -4 81 -57 106 -68 164 -69 65 -1 73 -19
22 -49 -28 -16 -54 -20 -150 -21 -124 -1 -174 -15 -180 -49 -3 -12 6 -21 27
-28 39 -14 39 -20 -1 -39 -17 -8 -36 -23 -42 -33 -9 -15 -6 -22 16 -40 25 -21
27 -25 17 -59 -7 -28 -6 -45 5 -73 8 -19 19 -35 23 -35 4 0 16 17 25 38 27 58
112 150 245 266 172 149 214 218 214 346 0 78 -19 137 -68 208 -94 137 -399
314 -450 261z"/>
<path d="M11802 11105 c-207 -97 -283 -297 -169 -446 18 -23 49 -51 71 -62
l39 -20 -46 -12 c-92 -23 -147 -88 -155 -180 -11 -129 102 -245 290 -300 43
-12 62 -14 78 -5 27 14 25 1 -5 -40 -14 -19 -25 -44 -25 -56 0 -30 45 -64 85
-64 27 0 34 5 40 27 11 45 24 53 81 53 64 0 130 -21 202 -63 55 -34 69 -53 26
-37 -49 19 -148 28 -212 19 -225 -31 -330 -246 -185 -380 53 -50 92 -64 178
-64 69 0 86 4 127 28 75 44 107 102 94 172 -26 134 -238 183 -329 76 -47 -56
-30 -119 38 -141 30 -10 40 -9 60 4 42 28 25 66 -28 66 -24 0 -28 4 -25 23 7
48 112 52 142 4 8 -13 4 -23 -22 -48 -37 -37 -40 -56 -11 -93 11 -14 17 -30
14 -36 -11 -18 -97 -11 -142 11 -63 31 -93 74 -93 136 0 89 70 159 188 189
103 25 203 -6 276 -86 55 -61 84 -155 71 -236 l-6 -44 -29 20 c-38 27 -108 27
-144 -1 -34 -27 -33 -51 4 -72 32 -19 39 -51 20 -86 -19 -37 -107 -64 -222
-69 -60 -2 -108 -1 -108 3 0 4 11 20 25 37 46 54 28 117 -38 133 -33 9 -57 -8
-57 -41 0 -36 -41 -58 -95 -51 -87 9 -171 91 -182 176 l-6 41 46 -6 c59 -8
103 9 123 48 21 40 4 62 -40 52 -71 -17 -106 6 -106 70 0 64 8 70 74 56 65
-13 104 -7 141 21 49 39 22 101 -50 115 -25 4 -55 0 -98 -14 -57 -19 -63 -19
-74 -4 -7 8 -13 26 -13 38 0 19 6 23 36 26 24 2 42 10 51 25 13 19 12 24 -6
42 -31 31 -91 28 -125 -5 -38 -38 -39 -85 -5 -150 l22 -41 -27 -66 c-20 -50
-26 -83 -26 -140 0 -74 6 -102 54 -235 28 -78 25 -105 -15 -117 -26 -9 -20
-26 15 -43 45 -23 88 1 109 62 1 5 25 -3 52 -17 28 -13 79 -34 115 -45 179
-55 308 -37 594 83 50 21 107 38 127 39 43 1 80 -26 78 -58 -1 -20 -2 -20 -6
-1 -8 32 -23 45 -54 45 -17 0 -34 -8 -43 -22 -22 -31 -20 -45 9 -73 18 -19 35
-25 70 -25 73 0 112 57 81 119 -26 50 -67 64 -162 58 l-82 -5 34 72 c73 160
73 265 -1 484 -51 150 -58 159 -105 130 -16 -11 -25 -7 -66 28 -54 45 -90 105
-79 132 6 15 8 15 22 -5 17 -26 70 -32 91 -11 34 34 -15 88 -79 88 -52 0 -85
-17 -99 -51 -21 -49 0 -85 125 -222 79 -86 155 -197 155 -226 0 -8 -13 3 -30
26 -44 60 -122 116 -260 186 -68 34 -128 70 -134 79 -8 14 -4 24 22 51 41 42
29 57 -46 57 -46 0 -58 -4 -84 -30 -25 -26 -29 -37 -26 -70 3 -33 1 -39 -12
-34 -8 3 -39 15 -69 25 -157 55 -244 160 -226 271 14 81 100 139 183 123 42
-8 102 -63 102 -94 0 -18 -6 -21 -40 -21 -32 0 -43 -5 -61 -30 -12 -16 -29
-32 -37 -35 -20 -7 -42 13 -42 40 0 19 5 22 41 21 29 -1 45 4 53 17 19 29 -4
52 -58 55 -40 3 -50 -1 -76 -27 -45 -45 -42 -93 10 -142 82 -79 219 -61 264
35 37 79 9 160 -73 205 l-43 24 38 13 c88 30 134 90 134 173 0 105 -62 171
-161 171 -98 0 -169 -72 -156 -158 13 -76 108 -121 157 -72 11 11 20 25 20 30
0 32 -70 65 -85 40 -10 -16 -25 -1 -25 24 0 22 17 46 32 46 4 0 26 -18 48 -41
33 -34 46 -40 70 -37 27 4 30 2 30 -25 0 -40 -54 -93 -104 -103 -146 -27 -236
147 -151 292 41 70 138 139 248 177 9 4 17 13 17 22 0 26 -69 17 -148 -20z
m-14 -1228 c3 -14 -4 -17 -37 -17 -45 0 -54 15 -18 30 31 13 51 8 55 -13z"/>
<path d="M2755 11086 c-120 -38 -301 -163 -364 -253 -56 -77 -75 -139 -69
-228 8 -115 29 -148 208 -325 147 -145 240 -260 240 -299 1 -11 8 -7 26 13 26
29 28 59 9 107 -4 10 3 19 20 27 41 19 31 62 -19 86 l-40 20 35 11 c46 16 49
39 7 61 -23 13 -67 19 -148 24 -109 5 -167 20 -184 49 -10 16 23 34 53 28 41
-9 84 6 156 53 74 48 95 51 92 13 -2 -22 3 -29 21 -31 46 -7 71 68 34 101 -28
25 -80 21 -151 -13 l-64 -30 -37 40 c-42 46 -49 47 -81 21 -18 -15 -25 -32
-29 -77 -4 -44 -9 -59 -20 -59 -24 0 -78 90 -90 152 -20 92 13 207 77 275 28
30 49 28 33 -2 -16 -29 -12 -49 15 -75 31 -32 56 -31 94 1 58 49 32 130 -40
122 -18 -2 -34 2 -36 9 -5 15 110 70 164 78 58 9 141 -16 177 -54 69 -72 40
-181 -50 -181 -24 0 -26 3 -20 28 13 53 12 57 -15 60 -33 4 -69 -38 -69 -79 0
-58 92 -90 158 -55 36 19 78 65 91 99 26 68 7 160 -43 206 -14 14 -26 34 -26
46 0 45 -38 55 -115 31z"/>
<path d="M10585 10507 c-112 -37 -143 -69 -329 -336 -47 -68 -150 -175 -191
-199 -20 -12 -20 -12 -1 -27 24 -18 60 -19 101 -1 27 11 31 10 52 -13 28 -33
52 -21 74 39 l16 42 12 -30 c30 -73 71 -33 71 68 0 37 -5 93 -11 125 -9 48 -8
65 6 102 19 49 48 56 53 13 8 -74 16 -91 72 -155 33 -37 60 -74 60 -81 0 -7
-12 -14 -27 -16 -58 -7 -29 -68 32 -68 68 0 73 84 11 170 -20 28 -36 55 -36
62 0 7 14 27 32 45 28 29 30 35 20 58 -15 33 -47 44 -92 34 -41 -10 -70 -3
-70 16 0 20 68 75 128 102 80 37 170 35 256 -5 73 -34 84 -52 31 -52 -86 0
-102 -95 -24 -136 59 -30 111 15 95 80 -15 62 45 12 89 -73 22 -44 31 -138 16
-183 -14 -42 -57 -85 -98 -97 -55 -16 -113 24 -113 79 0 20 4 21 39 15 43 -7
56 3 46 35 -13 40 -100 65 -124 36 -40 -47 -30 -124 21 -173 85 -83 190 -82
273 2 24 24 53 46 64 50 38 12 37 50 -5 133 -53 108 -209 267 -308 313 -79 37
-176 47 -241 26z"/>
<path d="M2041 10498 c-78 -12 -163 -62 -258 -151 -127 -121 -206 -253 -173
-292 7 -8 20 -15 29 -15 9 -1 29 -19 44 -41 37 -53 102 -83 168 -77 53 5 118
43 145 83 22 34 22 110 -1 135 -26 29 -79 26 -111 -5 -34 -34 -26 -50 22 -50
35 0 39 -3 42 -26 5 -40 -50 -83 -96 -75 -79 12 -116 66 -116 166 0 48 6 77
23 110 23 45 78 110 93 110 5 0 5 -18 2 -40 -5 -31 -3 -45 11 -60 25 -28 76
-26 109 5 52 48 22 120 -49 118 -49 -1 -43 12 18 44 46 24 63 28 142 28 101 0
143 -16 215 -82 62 -56 47 -83 -35 -62 -84 21 -121 -33 -66 -96 17 -20 31 -38
31 -42 0 -3 -15 -24 -33 -47 -46 -56 -57 -79 -57 -120 0 -62 53 -86 101 -47
20 16 22 23 13 38 -6 10 -19 18 -29 18 -35 0 -25 23 39 93 63 69 69 81 79 162
4 29 34 22 46 -11 14 -42 14 -77 -4 -176 -8 -46 -12 -98 -8 -115 12 -65 43
-77 70 -25 l17 32 7 -33 c7 -33 34 -72 51 -72 4 0 17 9 29 21 18 18 25 19 46
10 31 -14 96 -14 110 0 9 9 2 19 -27 40 -52 38 -132 140 -226 289 -43 69 -98
144 -121 167 -78 75 -180 107 -292 91z"/>
<path d="M12600 9133 c-31 -16 -35 -22 -35 -58 0 -34 4 -41 28 -49 34 -12 61
1 65 33 2 12 8 19 13 16 14 -10 11 -23 -13 -45 -36 -33 -92 -26 -236 29 -178
68 -260 85 -386 79 -107 -6 -206 -34 -293 -85 -42 -25 -43 -25 -43 -4 0 51
-87 83 -124 45 -21 -20 -21 -21 14 -39 39 -20 38 -33 -5 -166 -49 -151 -44
-234 18 -356 15 -28 14 -32 -10 -81 -32 -64 -26 -109 18 -146 35 -29 74 -33
107 -10 49 34 13 92 -49 79 -33 -8 -36 0 -14 51 l14 35 32 -17 c18 -9 57 -18
88 -21 47 -4 60 -2 84 17 36 29 34 74 -5 103 -29 22 -113 26 -159 9 -36 -14
-49 1 -49 60 0 62 27 83 94 73 53 -8 67 8 47 51 -20 45 -91 63 -155 38 -17 -7
-19 -4 -13 34 12 96 96 179 191 189 35 4 48 1 65 -16 11 -11 21 -30 21 -41 0
-23 33 -40 62 -32 26 6 58 50 58 78 0 13 -14 39 -31 59 -40 45 -29 50 94 42
110 -7 156 -19 197 -53 41 -35 39 -66 -5 -100 -29 -21 -33 -29 -25 -45 28 -51
120 -64 169 -24 l30 26 7 -37 c11 -59 -2 -146 -29 -201 -59 -115 -188 -172
-317 -139 -142 37 -224 151 -175 246 35 68 164 123 214 91 11 -7 11 -13 -3
-32 -26 -37 -20 -74 14 -101 36 -28 33 -51 -12 -74 -35 -18 -78 -11 -104 17
-20 23 -16 29 28 38 59 12 45 71 -17 71 -73 0 -110 -85 -63 -145 65 -84 243
-70 305 24 27 40 30 108 8 152 -36 68 -157 119 -248 104 -80 -14 -162 -74
-186 -138 -30 -78 0 -182 67 -237 84 -69 247 -94 365 -57 48 15 49 15 31 -4
-26 -28 -130 -77 -194 -91 -70 -14 -113 2 -118 45 -4 35 -39 44 -81 23 -44
-23 -55 -49 -37 -84 8 -16 22 -34 31 -42 13 -11 15 -24 10 -65 -6 -48 -5 -55
22 -85 24 -26 38 -33 79 -37 34 -3 55 0 69 10 20 15 20 16 -9 46 -49 51 -36
69 114 146 127 66 207 127 253 195 l18 25 -7 -25 c-11 -45 -66 -126 -156 -231
-94 -111 -118 -160 -102 -207 21 -61 159 -66 186 -7 9 20 8 29 -7 45 -25 28
-60 25 -84 -6 -17 -22 -22 -24 -27 -10 -12 31 7 68 61 123 47 46 58 52 74 43
47 -25 57 -15 89 88 83 260 83 351 -2 521 -20 40 -36 74 -36 75 0 1 34 0 75
-2 85 -5 125 7 155 46 26 33 25 75 -2 106 -31 35 -74 41 -118 19z m-790 -638
c0 -22 -27 -30 -56 -16 -33 15 -22 31 22 31 24 0 34 -5 34 -15z"/>
<path d="M565 9111 c-38 -11 -117 -40 -175 -64 -131 -57 -192 -73 -217 -58
-16 9 -14 10 12 11 38 0 55 16 55 50 0 46 -34 70 -99 70 -90 0 -111 -116 -29
-165 32 -19 133 -25 177 -11 18 6 23 5 18 -5 -110 -259 -111 -313 -17 -577 31
-87 42 -108 59 -110 12 -2 28 2 36 8 11 9 21 7 43 -9 55 -39 102 -99 102 -131
0 -34 -14 -39 -30 -10 -7 13 -21 20 -38 20 -55 0 -74 -39 -37 -76 32 -32 110
-34 149 -3 56 44 30 107 -108 257 -82 91 -166 215 -153 228 2 2 16 -14 32 -35
40 -59 117 -114 240 -172 160 -75 179 -98 129 -150 -32 -33 -26 -45 25 -54 78
-13 151 48 137 115 l-5 28 77 -29 c92 -34 168 -85 202 -135 36 -54 40 -147 8
-194 -69 -102 -240 -86 -260 24 -2 15 4 19 35 21 29 1 46 10 73 41 l36 39 18
-23 c10 -12 16 -31 13 -41 -4 -17 -8 -18 -24 -8 -24 15 -73 -2 -77 -26 -6 -31
17 -47 67 -47 56 0 86 19 101 65 32 97 -101 184 -215 141 -139 -54 -134 -216
9 -288 l29 -15 -35 -7 c-56 -10 -113 -58 -133 -110 -20 -52 -15 -93 16 -137
30 -42 69 -59 137 -59 68 0 114 24 145 77 33 58 -5 128 -77 140 -69 11 -118
-53 -60 -79 20 -9 30 -9 45 0 24 15 26 15 33 -4 7 -19 -10 -54 -28 -54 -7 0
-29 16 -50 36 -29 28 -43 35 -69 32 -29 -2 -32 0 -29 22 1 14 16 38 32 54 24
25 39 30 87 33 71 5 118 -17 145 -68 22 -42 23 -119 2 -165 -26 -55 -106 -119
-196 -156 -91 -38 -110 -58 -54 -58 66 0 195 59 259 119 122 112 103 289 -38
365 l-30 15 24 7 c143 41 209 186 139 305 -37 63 -88 105 -177 148 -60 28 -88
36 -133 36 -55 0 -57 1 -43 20 53 72 53 105 4 131 -44 22 -83 15 -87 -16 -5
-35 -18 -47 -57 -54 -60 -12 -197 37 -265 92 l-25 21 50 -16 c61 -19 195 -22
252 -5 112 33 197 132 197 227 0 172 -231 276 -385 172 -111 -75 -106 -216 11
-274 88 -45 200 -24 247 46 30 45 29 67 -6 102 -45 45 -121 37 -121 -12 0 -18
19 -29 50 -29 28 0 34 -19 14 -41 -24 -27 -97 -26 -125 2 l-21 21 31 32 c36
37 39 67 11 106 -17 25 -18 29 -4 34 48 18 137 -4 182 -47 55 -51 65 -105 31
-173 -38 -79 -124 -126 -234 -127 -170 -3 -285 118 -285 299 0 70 9 83 35 54
38 -42 138 -30 165 21 11 20 8 25 -26 54 -35 30 -38 35 -29 61 7 21 26 37 67
58 50 24 73 29 168 34 60 2 110 2 110 -2 0 -4 -11 -19 -25 -34 -48 -51 -41
-109 16 -132 41 -17 62 -9 71 27 16 62 77 79 154 44 68 -31 134 -126 134 -194
0 -13 -6 -13 -34 -5 -70 22 -152 -22 -144 -76 3 -18 9 -21 48 -18 25 2 55 1
66 -2 29 -8 48 -57 39 -102 l-6 -36 -47 8 c-65 11 -104 10 -139 -5 -37 -15
-57 -54 -43 -81 28 -52 94 -63 180 -31 54 21 63 17 75 -32 7 -26 5 -27 -28
-27 -73 0 -91 -64 -26 -88 38 -15 76 -3 105 31 22 26 25 38 21 75 -3 24 -15
57 -26 73 l-22 30 27 67 c15 39 29 95 32 133 4 58 0 80 -37 185 -22 66 -41
129 -41 141 0 11 10 24 25 31 26 12 33 36 14 47 -21 13 -81 7 -100 -11 -10 -9
-19 -26 -19 -37 0 -14 -4 -17 -17 -12 -159 69 -197 78 -323 82 -100 2 -139 -1
-195 -16z m-422 -91 c4 -17 3 -19 -9 -9 -8 6 -14 18 -14 26 0 20 16 8 23 -17z
m942 -520 c7 -12 -43 -33 -62 -26 -7 3 -13 12 -13 21 0 17 65 22 75 5z"/>
<path d="M11824 8271 c-158 -62 -244 -158 -244 -270 0 -80 70 -180 138 -198
20 -5 16 -8 -28 -23 -167 -57 -200 -244 -65 -369 70 -65 216 -128 276 -119 16
3 29 3 29 2 0 -2 -11 -20 -25 -40 -35 -51 -33 -80 8 -104 49 -30 74 -26 91 14
26 62 78 71 186 33 61 -22 156 -74 148 -82 -1 -2 -28 3 -58 11 -166 43 -344
-16 -408 -136 -88 -165 97 -352 293 -295 170 49 209 232 65 305 -85 43 -178
34 -237 -25 -43 -43 -45 -85 -4 -126 20 -19 40 -29 60 -29 34 0 65 26 57 47
-3 8 -6 17 -6 19 0 2 -14 4 -30 4 -41 0 -51 27 -21 52 28 22 62 23 101 3 37
-19 37 -29 0 -72 -35 -39 -37 -59 -10 -93 26 -33 25 -37 -9 -45 -50 -11 -120
14 -167 60 -41 39 -44 45 -44 95 0 66 24 108 86 148 91 61 211 67 305 16 96
-53 142 -131 143 -246 1 -42 -2 -79 -6 -83 -4 -4 -19 2 -34 14 -47 37 -144 19
-159 -30 -6 -17 0 -27 24 -46 36 -29 42 -70 12 -97 -33 -30 -114 -54 -208 -61
-50 -4 -96 -4 -102 -1 -7 5 -3 18 14 40 47 62 18 136 -53 136 -26 0 -33 -5
-38 -27 -11 -46 -33 -63 -80 -63 -55 0 -83 11 -129 52 -41 36 -74 98 -75 139
0 25 1 25 60 21 56 -4 61 -2 90 27 49 48 38 66 -38 66 -75 0 -92 15 -92 79 0
58 9 68 50 56 130 -37 243 36 167 108 -29 27 -107 30 -168 5 -40 -16 -42 -15
-55 2 -8 10 -14 29 -14 41 0 19 5 22 36 21 34 -1 64 20 64 44 0 30 -68 57
-108 43 -63 -22 -81 -102 -41 -173 l23 -41 -27 -77 c-40 -114 -37 -175 15
-330 45 -136 46 -124 -9 -160 -17 -12 -17 -13 1 -28 32 -24 81 -19 105 11 12
15 21 33 21 40 0 8 25 1 76 -22 107 -50 198 -67 314 -61 107 6 179 26 335 93
125 53 183 64 220 40 15 -10 24 -25 24 -39 l-2 -22 -4 23 c-9 46 -81 54 -104
11 -17 -33 -3 -69 36 -85 47 -19 78 -18 108 6 34 27 41 63 22 105 -27 55 -111
78 -207 56 l-36 -8 27 61 c55 121 64 161 59 264 -4 83 -11 116 -51 231 -26 74
-51 139 -57 145 -8 8 -20 6 -40 -6 l-30 -17 -54 49 c-56 52 -83 98 -72 126 5
14 10 13 31 -10 37 -40 95 -29 95 19 0 36 -43 60 -104 59 -41 0 -53 -5 -73
-29 -44 -51 -23 -96 120 -253 71 -79 147 -190 147 -217 0 -4 -23 18 -50 48
-59 65 -116 103 -265 177 -126 63 -136 78 -84 123 33 27 33 29 15 43 -28 20
-95 17 -133 -6 -36 -21 -49 -55 -39 -102 5 -23 3 -28 -7 -21 -6 6 -41 20 -77
32 -166 54 -259 179 -220 295 33 100 196 130 260 48 32 -39 26 -62 -14 -62
-26 0 -42 -9 -69 -36 -23 -24 -41 -35 -51 -31 -20 8 -30 32 -22 52 4 13 9 13
25 3 29 -18 71 4 71 36 0 30 -25 46 -70 46 -41 0 -100 -56 -100 -94 0 -70 72
-128 160 -129 88 -1 160 66 160 150 0 59 -25 99 -82 132 l-47 27 49 18 c30 11
63 33 85 57 31 34 35 45 35 92 0 63 -31 116 -83 141 -137 64 -305 -77 -208
-175 24 -23 38 -29 74 -29 49 0 82 25 71 54 -8 21 -52 32 -75 18 -23 -14 -33
0 -25 32 10 39 34 40 69 1 25 -28 38 -35 69 -35 34 0 38 -3 38 -24 0 -33 -53
-84 -95 -92 -87 -16 -181 43 -192 121 -16 124 64 211 270 294 16 6 27 17 25
24 -8 21 -51 17 -124 -12z m-39 -1181 c0 -18 -43 -25 -65 -10 -13 9 -13 11 0
20 22 15 65 8 65 -10z"/>
<path d="M402 7528 c-27 -13 -39 -53 -22 -73 18 -22 60 -18 87 6 19 19 23 20
29 6 9 -24 -24 -82 -72 -127 -43 -40 -67 -49 -79 -30 -3 6 -15 10 -25 10 -19
0 -24 -12 -90 -235 -40 -133 -34 -218 27 -359 19 -45 37 -87 40 -95 5 -11 -4
-12 -50 -7 -74 10 -121 -1 -157 -34 -41 -38 -42 -99 -4 -129 73 -58 192 13
141 83 -20 27 -78 18 -94 -14 -9 -17 -13 -20 -13 -8 0 9 12 26 28 38 37 29 81
23 228 -35 143 -56 207 -73 309 -80 107 -9 216 14 323 65 46 22 85 40 87 40 1
0 5 -14 9 -30 7 -37 46 -56 91 -43 39 11 45 40 10 53 -14 5 -28 16 -31 23 -3
8 11 62 31 120 51 154 49 247 -11 373 -16 34 -16 37 5 74 30 53 28 110 -5 149
-21 26 -33 31 -68 31 -56 0 -85 -28 -68 -65 10 -21 19 -25 52 -25 35 0 40 -3
40 -23 0 -13 -6 -31 -13 -40 -11 -16 -16 -17 -56 -2 -68 24 -137 20 -166 -10
-32 -31 -32 -55 -1 -84 30 -28 93 -37 156 -22 38 9 47 8 58 -6 18 -25 15 -77
-7 -104 -16 -20 -28 -24 -78 -24 -56 0 -58 -1 -55 -25 5 -48 35 -65 113 -64
l70 1 -6 -31 c-12 -59 -48 -118 -88 -147 -86 -62 -169 -57 -191 11 -13 41 -44
50 -82 25 -52 -34 -51 -79 4 -137 l26 -28 -50 -1 c-192 -5 -282 23 -308 95 -4
13 4 27 30 51 40 37 40 54 -1 81 -36 23 -100 22 -135 -4 -15 -12 -30 -18 -34
-15 -3 4 -6 42 -6 85 0 93 21 147 82 207 84 84 218 103 333 46 87 -42 131
-116 114 -193 -13 -64 -96 -123 -174 -124 -59 -1 -70 8 -45 39 28 36 25 67
-10 96 -38 32 -38 52 0 72 37 19 70 19 98 -1 30 -20 28 -44 -2 -44 -36 0 -59
-26 -45 -51 21 -39 72 -37 115 6 35 35 32 79 -9 120 -83 83 -245 62 -305 -40
-66 -115 43 -245 206 -245 73 0 124 19 170 63 102 98 93 231 -23 319 -87 66
-241 88 -353 49 -51 -18 -52 -18 -35 1 30 34 160 91 217 96 64 5 92 -8 101
-48 6 -26 11 -30 39 -30 41 0 86 34 86 64 0 13 -13 39 -29 59 -25 32 -28 42
-23 87 4 46 2 54 -24 81 -24 25 -35 29 -79 29 -28 0 -59 -6 -69 -13 -16 -11
-15 -15 14 -42 16 -16 30 -34 30 -41 0 -22 -40 -52 -134 -100 -152 -79 -210
-123 -269 -204 -17 -24 -17 -24 -2 15 22 57 71 127 155 224 88 103 117 160
100 201 -6 15 -23 32 -36 39 -31 14 -92 13 -122 -1z m655 -435 c6 -17 -57 -28
-68 -12 -4 7 -5 17 -2 22 7 12 66 4 70 -10z"/>
<path d="M11963 6349 c-61 -10 -172 -51 -220 -80 -19 -12 -35 -20 -37 -18 -1
2 -7 16 -14 32 -14 32 -46 47 -85 40 -45 -9 -52 -28 -17 -53 38 -27 38 -45 -2
-151 -27 -72 -32 -98 -32 -179 -1 -88 2 -101 30 -159 l32 -64 -24 -45 c-28
-52 -30 -81 -9 -122 18 -35 43 -50 85 -50 43 0 70 17 70 43 0 33 -19 47 -63
47 -32 0 -38 3 -33 18 20 72 16 69 69 47 54 -22 142 -20 167 5 25 25 26 72 0
95 -25 23 -98 30 -156 16 -56 -14 -64 -7 -64 55 0 62 17 78 86 79 53 0 59 2
62 22 2 12 -6 30 -20 43 -20 18 -33 21 -91 18 -60 -3 -67 -1 -67 16 0 116 151
246 237 204 24 -12 32 -22 53 -68 12 -26 54 -23 83 6 36 36 35 74 -3 112 -16
17 -30 34 -30 37 0 4 55 5 123 3 93 -3 131 -8 160 -22 74 -36 86 -95 27 -129
-25 -15 -28 -21 -20 -38 29 -54 121 -70 165 -29 14 13 28 20 32 16 16 -16 15
-135 -2 -187 -26 -77 -103 -152 -180 -175 -220 -63 -440 139 -302 277 39 40
88 61 144 62 54 0 60 -6 39 -37 -24 -38 -20 -66 17 -104 l32 -33 -28 -25 c-35
-30 -89 -32 -117 -4 -24 24 -18 40 14 40 44 0 63 50 27 70 -31 16 -57 12 -90
-16 -90 -76 25 -201 163 -178 56 9 87 26 125 69 26 30 31 44 31 88 0 69 -31
116 -102 151 -122 61 -282 15 -340 -97 -56 -109 5 -238 141 -301 60 -27 231
-29 301 -3 l45 17 -30 -25 c-88 -74 -260 -120 -296 -79 -10 11 -19 28 -21 39
-7 40 -100 25 -115 -19 -10 -29 -5 -44 23 -82 20 -26 23 -39 18 -71 -7 -45 13
-96 45 -113 21 -11 100 -14 125 -4 23 9 19 29 -9 48 -29 19 -33 56 -7 78 9 9
67 41 128 72 117 59 187 113 236 180 34 48 36 32 4 -32 -30 -59 -67 -108 -146
-197 -101 -114 -122 -174 -75 -220 19 -20 34 -25 73 -25 75 0 127 51 90 88
-20 20 -76 15 -88 -8 -16 -29 -30 -24 -30 10 0 22 14 45 58 92 59 62 59 62 91
48 22 -9 35 -10 42 -3 6 6 28 68 50 139 68 219 65 324 -17 486 -19 37 -34 69
-34 72 0 2 19 -1 43 -6 51 -12 119 -4 157 19 54 32 66 98 24 140 -22 22 -32
25 -74 21 -61 -6 -80 -21 -80 -62 0 -40 15 -56 54 -57 30 0 30 -1 8 -11 -26
-13 -79 1 -257 67 -158 59 -278 75 -402 54z m706 -91 c-14 -25 -16 -23 -11 13
3 21 7 27 13 18 4 -7 3 -21 -2 -31z m-861 -550 c3 -13 -3 -18 -21 -18 -50 0
-77 23 -39 33 31 9 57 2 60 -15z"/>
<path d="M605 6335 c-72 -16 -142 -41 -255 -90 -47 -20 -107 -38 -135 -40 -27
-3 -41 -2 -30 1 33 10 55 35 55 64 0 51 -62 81 -125 60 -40 -13 -55 -35 -55
-80 0 -71 93 -114 201 -93 27 6 49 8 49 6 0 -3 -14 -37 -32 -76 -78 -180 -77
-261 12 -509 43 -122 55 -135 90 -103 15 14 21 12 62 -20 54 -41 88 -91 88
-131 l0 -29 -25 28 c-14 15 -35 27 -45 27 -20 0 -60 -32 -60 -48 0 -17 47 -52
77 -58 39 -8 100 12 113 36 28 52 2 108 -99 215 -83 87 -125 143 -155 203
l-27 52 68 -68 c58 -59 87 -79 202 -135 73 -37 140 -72 147 -78 21 -18 17 -47
-11 -71 -45 -39 -29 -58 51 -58 63 0 109 42 109 99 0 36 2 40 20 35 116 -36
199 -85 248 -146 59 -74 46 -187 -29 -244 -71 -55 -165 -34 -207 47 l-17 34
41 6 c28 4 50 15 70 37 17 18 36 32 44 32 18 0 37 -34 29 -54 -5 -12 -10 -13
-29 -4 -19 9 -30 7 -50 -6 -53 -35 1 -88 71 -71 40 10 84 60 84 95 0 27 -42
82 -78 103 -47 28 -129 27 -175 -2 -37 -22 -77 -90 -77 -129 0 -56 42 -114
103 -142 l37 -17 -41 -12 c-52 -16 -115 -72 -129 -117 -24 -72 22 -160 97
-185 120 -39 253 59 208 154 -20 44 -50 59 -105 55 -50 -3 -72 -27 -54 -55 13
-21 60 -29 78 -14 22 18 27 -25 7 -51 l-18 -21 -40 36 c-31 28 -49 37 -77 37
-42 0 -45 11 -16 58 36 58 122 79 190 44 53 -26 80 -74 80 -142 0 -104 -79
-187 -232 -245 l-68 -25 0 40 c0 76 -82 122 -160 90 -38 -16 -38 -23 0 -50 34
-24 38 -50 13 -72 -10 -8 -65 -39 -121 -69 -116 -60 -218 -139 -252 -194 -28
-45 -35 -40 -14 11 22 53 66 116 142 203 120 139 141 188 100 235 -48 57 -178
36 -178 -29 0 -48 67 -61 98 -17 18 24 21 25 27 9 11 -28 -12 -70 -70 -127
-45 -44 -56 -51 -69 -41 -8 7 -25 11 -37 9 -18 -2 -27 -20 -55 -108 -77 -239
-77 -339 0 -498 l43 -87 -93 0 c-89 0 -94 -1 -123 -29 -24 -23 -31 -38 -31
-68 0 -66 56 -101 125 -78 76 25 72 109 -5 123 -16 3 -10 5 18 6 29 1 86 -15
180 -50 178 -65 237 -79 351 -79 113 0 191 19 288 69 74 39 83 40 83 11 0 -27
33 -50 71 -50 56 0 83 44 35 56 -14 3 -27 12 -30 20 -3 8 10 63 28 122 18 59
36 127 40 152 8 59 -7 137 -40 205 l-27 54 22 36 c28 47 28 113 1 148 -37 47
-130 44 -145 -4 -10 -31 28 -63 67 -55 23 4 28 2 28 -14 0 -10 -5 -30 -11 -43
l-11 -23 -51 17 c-61 21 -92 23 -136 8 -55 -19 -66 -65 -26 -104 21 -21 33
-25 89 -25 36 0 76 4 91 10 23 9 27 7 35 -16 16 -41 12 -82 -11 -105 -18 -18
-29 -20 -69 -15 -60 8 -81 -10 -56 -49 25 -37 53 -48 118 -43 l58 4 -6 -35
c-14 -79 -67 -147 -136 -175 -73 -31 -130 -13 -141 44 -6 25 -11 30 -36 30
-43 0 -60 -9 -76 -41 -18 -33 -9 -63 29 -98 14 -13 23 -28 20 -32 -8 -13 -154
-11 -216 2 -72 15 -105 34 -123 69 -18 35 -11 56 26 76 16 8 29 20 29 28 0 25
-48 58 -92 63 -37 4 -49 1 -75 -21 -16 -14 -33 -23 -37 -19 -3 3 -6 43 -6 88
0 67 4 90 26 133 49 98 142 155 254 155 233 0 345 -234 157 -328 -49 -24 -99
-31 -131 -19 -14 5 -13 9 4 34 28 39 25 61 -10 95 -35 33 -37 46 -12 68 28 26
67 30 102 12 37 -19 37 -48 0 -53 -27 -4 -50 -19 -50 -33 0 -17 33 -39 60 -39
38 0 90 44 90 76 0 68 -72 124 -157 124 -66 0 -111 -16 -150 -53 -63 -59 -67
-139 -11 -203 50 -57 101 -78 189 -78 67 -1 81 3 125 29 96 60 135 157 100
250 -23 58 -100 128 -169 151 -64 22 -192 22 -262 0 -27 -8 -51 -14 -52 -12
-7 7 92 66 142 85 114 43 165 36 191 -24 17 -41 42 -45 92 -15 41 25 42 54 2
108 -33 45 -38 61 -15 42 22 -18 84 -4 172 40 118 59 171 114 193 202 18 69
-6 143 -63 195 -24 23 -54 44 -67 48 -20 6 -15 10 31 25 37 13 65 31 90 59
123 138 31 326 -200 407 -74 26 -111 30 -129 12 -21 -21 -13 4 12 37 38 49 41
77 13 103 -13 13 -41 25 -61 29 -34 5 -36 4 -42 -26 -13 -61 -80 -77 -180 -43
-47 17 -167 82 -161 88 2 2 27 -4 56 -13 83 -24 212 -15 284 21 109 53 173
161 148 253 -14 51 -70 116 -124 142 -65 31 -167 29 -236 -5 -156 -78 -129
-266 43 -305 43 -9 64 -9 99 0 80 23 129 88 106 143 -27 67 -139 79 -139 16 0
-19 5 -22 53 -32 32 -8 34 -19 7 -46 -28 -28 -82 -26 -117 4 l-28 25 33 33
c37 39 41 72 11 105 l-22 22 29 11 c58 23 160 -17 201 -79 99 -146 -130 -323
-330 -255 -61 21 -129 82 -161 146 -21 41 -26 67 -26 123 0 40 3 74 6 78 3 3
21 -4 40 -15 43 -26 105 -20 140 13 32 30 30 43 -11 68 -43 25 -46 57 -9 94
34 35 101 55 206 63 117 9 129 4 89 -41 -38 -43 -39 -78 -6 -111 36 -36 86
-31 97 11 10 41 33 55 88 55 87 0 177 -84 195 -181 l6 -35 -63 4 c-58 4 -65 2
-91 -23 -15 -16 -27 -39 -27 -53 0 -24 1 -25 55 -18 51 6 58 4 82 -20 21 -22
25 -32 20 -66 -7 -52 -17 -61 -51 -48 -65 24 -162 4 -186 -39 -15 -29 -13 -39
15 -66 20 -21 34 -25 82 -25 32 1 69 7 83 15 37 21 55 18 68 -10 20 -43 16
-58 -14 -51 -32 8 -74 -16 -74 -44 0 -23 36 -50 68 -50 35 0 77 25 90 55 18
40 14 76 -13 124 l-25 44 26 66 c47 116 43 199 -16 348 -37 93 -38 120 -5 135
45 20 24 58 -32 58 -37 0 -73 -29 -73 -59 0 -18 -4 -18 -67 10 -143 65 -293
84 -428 54z m-468 -72 c-4 -3 0 -18 9 -32 l16 -26 -22 21 c-19 19 -21 44 -3
44 4 0 3 -3 0 -7z m938 -542 c19 -8 19 -8 -2 -19 -29 -16 -63 -15 -63 1 0 27
24 34 65 18z m-17 -1406 c10 -10 -12 -25 -37 -25 -35 0 -44 9 -29 27 10 12 53
11 66 -2z m-921 -566 c-8 -21 -13 -26 -15 -15 -2 10 2 23 8 31 18 22 20 18 7
-16z"/>
<path d="M11832 5490 c-197 -71 -295 -220 -233 -355 19 -43 92 -115 116 -115
8 0 15 -4 15 -10 0 -5 -9 -10 -20 -10 -28 0 -90 -33 -117 -62 -53 -57 -67
-151 -34 -225 44 -97 202 -196 313 -197 32 -1 58 -2 58 -4 0 -2 -11 -20 -25
-40 -14 -20 -25 -47 -25 -59 0 -29 45 -63 86 -63 28 0 33 4 39 29 8 35 20 47
60 55 57 12 216 -46 260 -95 16 -16 14 -16 -27 -2 -61 22 -199 22 -265 0 -63
-22 -140 -88 -164 -142 -60 -132 36 -276 197 -292 97 -10 186 30 231 105 39
63 27 126 -34 185 -98 92 -303 41 -303 -76 0 -48 70 -94 117 -76 47 17 34 69
-18 69 -22 0 -29 5 -29 20 0 25 29 40 78 40 25 0 45 -7 55 -18 23 -25 22 -34
-13 -64 -35 -31 -38 -55 -9 -92 29 -37 16 -49 -46 -44 -168 14 -234 170 -118
280 77 74 222 94 319 45 56 -28 119 -92 139 -141 19 -45 28 -119 20 -165 l-7
-40 -29 22 c-39 28 -99 29 -136 1 -39 -29 -40 -55 -3 -76 59 -33 32 -97 -55
-134 -41 -17 -255 -34 -255 -19 0 4 11 20 25 37 34 41 34 90 -1 117 -46 36
-94 23 -94 -26 0 -59 -94 -68 -179 -16 -50 30 -101 113 -101 162 0 25 2 26 54
23 61 -4 111 16 121 48 10 32 -3 40 -64 40 -70 0 -91 18 -91 76 0 60 8 66 71
57 101 -16 169 11 169 67 0 62 -86 87 -180 51 -51 -20 -56 -20 -67 -4 -7 9
-13 29 -13 43 0 24 3 26 34 22 26 -3 37 1 50 19 31 45 -24 85 -91 67 -66 -17
-86 -103 -43 -174 l24 -37 -29 -81 c-44 -122 -41 -170 28 -359 28 -77 25 -104
-10 -118 -30 -11 -26 -29 11 -47 45 -23 88 1 109 62 1 5 25 -3 52 -17 93 -47
182 -68 285 -69 120 0 196 18 374 89 77 30 157 56 177 57 40 1 79 -25 79 -53
0 -10 -5 -7 -13 9 -17 35 -69 40 -91 8 -22 -31 -20 -45 9 -73 18 -19 35 -25
70 -25 102 0 127 111 37 163 -35 21 -109 26 -169 13 l-32 -7 42 93 c41 92 42
94 42 208 0 112 -1 119 -49 258 -51 149 -59 159 -105 130 -39 -24 -164 113
-147 159 6 14 10 13 29 -6 38 -35 97 -23 97 20 0 49 -98 76 -159 44 -69 -35
-44 -107 86 -249 84 -92 143 -174 159 -221 3 -11 -12 1 -35 27 -50 57 -153
126 -258 175 -93 42 -133 69 -133 89 0 7 14 26 30 41 17 14 30 30 30 34 0 4
-15 13 -34 19 -80 26 -161 -26 -154 -100 l3 -37 -75 27 c-160 57 -240 142
-240 257 0 34 33 87 70 115 62 45 174 28 205 -33 23 -44 19 -55 -21 -55 -28 0
-42 -8 -69 -37 -30 -32 -38 -36 -55 -27 -11 6 -20 21 -20 34 0 20 5 23 41 22
29 -1 45 4 53 17 19 29 -4 52 -58 55 -40 3 -50 -1 -76 -27 -102 -102 80 -245
214 -168 68 39 96 129 61 197 -15 30 -64 71 -100 85 -17 6 -13 9 22 20 88 27
133 80 133 158 0 49 -27 96 -73 131 -80 59 -247 -10 -247 -103 0 -79 107 -134
160 -81 26 26 25 36 -5 56 -21 14 -31 15 -51 5 -20 -9 -26 -8 -30 4 -4 8 -4
22 0 30 11 31 36 27 77 -10 32 -29 47 -36 70 -33 24 4 29 1 29 -17 0 -51 -61
-95 -132 -95 -124 0 -189 108 -138 228 12 29 38 66 57 82 37 33 125 80 186 99
20 7 37 19 37 27 0 20 -54 17 -118 -6z m-44 -1183 c3 -14 -4 -17 -37 -17 -45
0 -54 15 -18 30 31 13 51 8 55 -13z"/>
<path d="M12610 3573 c-29 -11 -50 -36 -50 -62 0 -35 11 -50 46 -61 24 -8 19
-9 -26 -6 -32 3 -99 22 -160 46 -153 61 -237 80 -348 80 -109 0 -186 -17 -291
-66 -86 -39 -81 -38 -81 -19 0 26 -38 55 -72 55 -58 0 -80 -31 -38 -53 35 -18
35 -48 0 -152 -53 -154 -50 -244 11 -367 19 -36 19 -36 -7 -83 -20 -35 -25
-55 -21 -82 12 -71 89 -114 142 -79 50 33 19 95 -41 83 -33 -6 -37 5 -20 47
l14 35 54 -21 c93 -35 178 -10 178 53 0 35 -31 65 -76 74 -35 6 -97 -1 -125
-16 -25 -13 -39 10 -39 61 0 66 23 85 90 76 57 -8 71 6 51 50 -18 39 -72 60
-126 47 -45 -10 -45 -10 -45 17 0 45 51 132 96 164 80 54 178 43 186 -21 3
-24 8 -28 39 -31 30 -3 41 2 58 24 29 37 26 67 -9 107 -16 19 -30 38 -30 42 0
15 224 -1 265 -19 90 -38 108 -87 50 -132 -29 -21 -33 -29 -25 -45 14 -25 62
-49 98 -49 16 0 45 11 65 24 l36 25 7 -46 c28 -185 -97 -333 -281 -333 -138 0
-255 91 -255 197 0 87 130 173 226 149 l27 -7 -23 -24 c-33 -35 -29 -74 10
-106 27 -23 30 -30 21 -47 -22 -42 -103 -48 -137 -11 -21 23 -11 36 31 41 59
6 39 68 -22 68 -68 0 -107 -81 -67 -138 43 -61 162 -81 244 -39 117 58 122
199 11 274 -98 66 -230 53 -319 -31 -47 -44 -65 -83 -65 -142 0 -93 66 -174
174 -215 61 -24 195 -25 265 -4 62 19 60 19 40 -4 -25 -28 -136 -80 -193 -91
-72 -13 -105 -2 -119 41 -7 21 -19 35 -31 37 -30 5 -70 -15 -88 -42 -15 -22
-15 -27 -1 -53 8 -16 22 -35 31 -43 13 -11 15 -24 10 -65 -7 -49 -5 -55 23
-86 28 -31 35 -34 86 -34 77 0 89 15 47 59 -26 27 -31 38 -23 52 6 11 66 48
133 84 100 52 139 80 202 141 117 115 76 19 -61 -142 -103 -121 -121 -147
-128 -187 -13 -70 46 -112 131 -92 59 13 81 52 49 84 -23 24 -60 19 -83 -10
-17 -22 -22 -24 -27 -10 -10 27 4 61 47 110 49 56 76 73 92 57 6 -6 21 -11 33
-11 18 0 26 14 52 98 80 251 82 340 10 500 l-44 99 73 -5 c82 -5 123 7 153 46
56 70 -23 167 -110 135z m52 -103 c-12 -11 -17 -15 -12 -8 6 7 10 21 10 32 0
16 3 17 12 8 10 -10 7 -17 -10 -32z m-852 -545 c0 -22 -22 -28 -54 -15 -35 13
-24 30 20 30 24 0 34 -5 34 -15z"/>
<path d="M655 3561 c-78 -13 -161 -39 -273 -87 -131 -55 -173 -67 -203 -55
-23 9 -22 10 8 10 52 1 72 62 33 101 -15 15 -33 20 -69 20 -42 0 -53 -4 -70
-26 -30 -38 -27 -77 8 -116 29 -33 30 -33 125 -33 61 0 94 -4 92 -10 -106
-225 -108 -310 -17 -570 32 -90 43 -111 60 -113 12 -2 28 2 36 8 19 16 40 3
98 -59 35 -37 47 -58 47 -81 0 -35 -10 -38 -28 -10 -8 14 -23 20 -47 20 -63 0
-69 -67 -9 -90 74 -28 154 4 154 62 0 48 -24 86 -114 184 -89 98 -139 165
-161 217 -12 29 -4 24 58 -38 60 -59 95 -82 213 -143 78 -39 145 -80 149 -89
4 -13 -3 -26 -25 -46 -38 -34 -33 -54 14 -62 79 -15 153 43 141 111 l-5 31 53
-17 c173 -57 257 -141 257 -256 0 -64 -28 -109 -83 -134 -53 -25 -81 -25 -135
0 -31 14 -47 29 -57 54 -20 47 -21 46 24 46 33 0 46 7 73 36 35 36 62 39 70 6
8 -31 -2 -41 -38 -35 -35 6 -64 -9 -64 -33 0 -48 100 -61 143 -18 57 57 39
130 -43 172 -100 50 -223 2 -245 -97 -15 -68 38 -153 114 -183 26 -10 25 -10
-20 -24 -84 -25 -150 -126 -135 -206 28 -150 208 -189 300 -65 38 51 20 134
-36 163 -59 31 -127 2 -114 -49 7 -30 50 -47 69 -28 16 16 24 14 30 -9 3 -12
-3 -30 -13 -43 l-19 -22 -40 44 c-36 38 -45 43 -77 39 -35 -4 -36 -4 -30 26 8
37 41 74 83 92 44 19 69 18 119 -7 116 -56 111 -255 -9 -353 -23 -19 -78 -52
-121 -73 -97 -46 -111 -68 -39 -61 110 11 262 117 305 215 52 117 11 257 -95
323 l-29 18 38 12 c61 20 122 84 140 147 34 116 -34 227 -181 298 -93 44 -146
58 -179 45 -31 -11 -34 0 -7 24 11 10 25 31 31 47 22 51 -26 97 -91 87 -16 -2
-25 -12 -31 -35 -10 -39 -36 -48 -112 -40 -56 6 -164 50 -206 85 l-25 20 55
-14 c83 -23 204 -20 271 5 111 42 188 144 176 234 -14 102 -108 185 -220 194
-138 11 -247 -67 -247 -177 0 -89 66 -149 173 -157 79 -6 142 23 172 79 18 35
19 40 5 65 -33 59 -124 76 -136 26 -7 -28 7 -43 43 -43 47 0 37 -40 -15 -58
-35 -12 -89 3 -102 28 -9 16 -5 24 20 46 36 32 39 70 10 107 -17 22 -18 26 -4
31 79 30 215 -42 230 -122 15 -79 -37 -155 -136 -201 -151 -69 -340 11 -385
163 -15 49 -21 167 -9 179 4 3 19 -3 34 -15 35 -26 97 -27 133 -3 29 18 46 57
29 63 -25 8 -62 45 -62 61 0 64 112 111 262 111 l90 0 -26 -31 c-14 -17 -29
-41 -32 -55 -7 -28 15 -67 47 -84 30 -16 69 -4 69 21 0 32 44 69 82 69 77 -1
172 -77 196 -159 20 -65 19 -66 -51 -63 -52 3 -67 0 -90 -18 -52 -41 -23 -93
39 -70 34 13 72 -4 85 -37 10 -25 7 -89 -5 -100 -2 -3 -29 0 -60 7 -118 24
-211 -39 -154 -105 30 -34 88 -42 148 -20 79 29 77 29 89 -6 16 -47 15 -49
-27 -49 -59 0 -82 -39 -44 -73 30 -28 89 -22 123 12 37 38 39 88 4 146 l-25
43 26 63 c48 116 43 203 -17 357 -37 92 -37 119 -3 132 42 16 28 44 -25 48
-47 4 -81 -17 -81 -50 0 -10 -2 -18 -4 -18 -2 0 -32 13 -68 29 -121 55 -265
79 -373 62z m-512 -113 c6 -22 5 -22 -8 -4 -17 22 -20 40 -6 32 5 -3 11 -16
14 -28z m941 -517 c7 -11 -52 -33 -65 -25 -5 3 -9 12 -9 20 0 16 65 20 74 5z"/>
<path d="M1805 2904 c-16 -8 -44 -28 -60 -45 -17 -16 -38 -29 -46 -29 -72 0
-37 -144 70 -289 112 -151 224 -229 345 -238 125 -10 216 38 333 177 129 153
217 241 274 277 33 19 59 39 59 43 0 4 -13 13 -30 20 -28 12 -68 10 -100 -4
-10 -4 -19 1 -25 16 -7 15 -19 23 -35 23 -20 0 -29 -9 -46 -43 l-20 -43 -15
33 c-18 43 -40 42 -62 -2 -14 -28 -17 -56 -15 -146 2 -95 -1 -115 -18 -145
-31 -53 -48 -44 -54 26 -6 65 -14 84 -66 152 -43 56 -45 83 -7 80 37 -3 44 34
11 57 -37 26 -75 21 -93 -14 -19 -36 -13 -66 26 -137 36 -65 36 -78 4 -99 -37
-24 -47 -48 -33 -79 13 -29 44 -40 93 -32 19 3 40 0 50 -7 16 -12 15 -15 -11
-40 -80 -77 -227 -103 -327 -58 -91 40 -142 91 -80 79 56 -10 101 30 89 79
-22 88 -157 83 -144 -6 10 -68 -25 -44 -69 49 -71 149 3 307 137 292 22 -3 70
-58 70 -81 0 -26 -22 -35 -50 -20 -18 10 -25 9 -37 -3 -20 -20 -3 -51 38 -73
91 -47 145 78 74 171 -51 68 -159 96 -230 59z"/>
<path d="M10840 2904 c-70 -30 -110 -86 -110 -154 0 -30 6 -47 25 -65 28 -29
45 -31 85 -10 55 29 50 102 -5 77 -31 -14 -45 -8 -45 19 0 80 117 111 178 46
70 -74 68 -197 -4 -306 -32 -49 -50 -48 -46 1 4 45 -18 68 -64 68 -66 0 -104
-66 -68 -118 13 -19 24 -23 57 -20 22 1 42 -2 44 -7 5 -16 -76 -64 -136 -82
-98 -28 -206 -4 -290 66 -46 38 -34 51 44 51 55 0 66 3 79 22 23 33 20 47 -21
86 l-37 34 19 32 c43 72 55 102 55 137 0 61 -49 87 -98 53 -32 -22 -26 -58 11
-62 15 -2 27 -6 27 -10 0 -8 -25 -47 -75 -116 -29 -41 -35 -56 -35 -101 0 -67
-21 -80 -51 -32 -18 29 -20 43 -16 137 7 129 -7 193 -41 198 -18 3 -25 -3 -33
-27 -13 -36 -24 -33 -32 8 -11 51 -68 64 -83 19 -4 -15 -11 -18 -27 -13 -45
14 -85 17 -106 6 -29 -16 -26 -28 9 -46 44 -23 166 -140 222 -215 88 -115 174
-205 226 -233 140 -76 287 -50 421 77 112 107 200 240 216 329 8 40 -6 67 -32
67 -8 0 -25 13 -39 29 -53 63 -150 87 -224 55z m-340 -354 c0 -5 -4 -10 -10
-10 -5 0 -10 5 -10 10 0 6 5 10 10 10 6 0 10 -4 10 -10z"/>
<path d="M9942 2740 c-15 -24 -15 -60 -1 -97 9 -24 7 -30 -10 -42 -41 -27 -12
-91 41 -91 28 0 21 -14 -12 -27 -41 -15 -38 -41 8 -60 30 -12 56 -14 132 -8
121 9 145 8 182 -11 42 -22 30 -38 -35 -45 -31 -4 -62 -11 -69 -16 -7 -5 -39
-31 -71 -56 -66 -53 -87 -58 -87 -23 0 34 -16 41 -45 22 -35 -23 -35 -79 0
-102 34 -22 76 -13 142 31 29 19 57 35 62 35 5 0 23 -13 39 -30 33 -33 58 -37
88 -16 16 12 19 25 16 75 -1 35 2 63 9 67 17 10 76 -54 99 -109 30 -70 36
-142 16 -208 -26 -92 -92 -171 -80 -97 9 53 -25 83 -89 79 -19 -1 -57 -56 -57
-84 0 -10 11 -29 25 -43 21 -21 31 -24 60 -18 47 9 45 -8 -6 -45 -92 -67 -211
-79 -288 -28 -74 49 -78 147 -9 183 44 23 60 13 52 -34 -8 -53 16 -63 57 -23
51 52 33 113 -39 127 -42 9 -74 -1 -112 -32 -92 -78 -92 -220 0 -297 16 -14
30 -32 30 -41 0 -8 9 -21 21 -29 73 -52 360 158 446 326 20 40 27 71 31 132 8
153 -39 224 -251 383 -130 98 -249 212 -262 251 -8 26 -17 26 -33 1z m303
-450 c3 -5 1 -10 -4 -10 -6 0 -11 5 -11 10 0 6 2 10 4 10 3 0 8 -4 11 -10z"/>
<path d="M2801 2688 c-41 -59 -125 -132 -252 -219 -129 -89 -193 -150 -226
-217 -24 -50 -28 -69 -28 -147 0 -79 4 -97 29 -149 57 -116 255 -294 367 -331
47 -16 51 -16 70 1 10 9 19 22 19 28 0 6 17 27 39 47 78 74 90 176 31 256 -52
71 -141 93 -191 47 -32 -29 -19 -97 23 -123 17 -11 23 -10 36 3 12 12 13 20 4
40 -23 52 46 56 82 4 40 -56 8 -134 -68 -169 -78 -35 -183 -14 -268 52 -45 36
-42 49 10 42 29 -4 41 0 56 16 55 60 -22 160 -93 120 -22 -12 -26 -22 -27 -59
-1 -53 -11 -55 -42 -10 -78 116 -61 289 39 386 49 48 62 36 53 -47 -6 -51 -4
-58 17 -73 33 -23 44 -21 87 19 l39 34 34 -25 c86 -64 144 -79 179 -44 27 27
25 56 -5 86 -21 21 -29 23 -40 14 -8 -7 -15 -21 -15 -31 0 -30 -26 -22 -80 26
-65 58 -85 68 -145 75 -66 7 -72 31 -14 54 37 15 53 16 133 5 100 -13 177 -6
196 16 15 18 0 40 -31 50 -28 9 -23 20 13 30 17 6 38 20 46 32 13 21 12 24
-10 44 -23 21 -24 24 -11 61 14 40 9 80 -10 97 -8 6 -23 -6 -46 -41z"/>
<path d="M11834 2706 c-162 -60 -254 -159 -254 -273 0 -71 48 -153 106 -180
41 -20 43 -29 6 -38 -40 -8 -99 -60 -124 -108 -11 -23 -23 -69 -26 -104 -4
-56 -1 -70 27 -128 19 -37 49 -80 74 -101 86 -75 277 -144 277 -100 0 10 -15
23 -37 32 -95 38 -151 71 -194 114 -126 126 -94 317 58 346 66 13 137 -32 149
-94 6 -31 6 -32 -30 -32 -22 0 -42 -7 -51 -17 -7 -10 -23 -29 -34 -43 -16 -20
-23 -23 -38 -14 -10 6 -19 25 -21 43 -4 34 -1 37 27 19 31 -19 71 4 71 41 0
57 -78 70 -131 23 -64 -57 -44 -158 41 -204 54 -29 140 -21 181 18 95 89 72
247 -43 295 l-29 12 63 31 c78 38 108 79 108 146 0 113 -121 183 -233 136 -42
-17 -87 -70 -87 -102 0 -33 25 -81 49 -94 30 -15 97 -12 115 6 19 18 19 20 6
45 -12 21 -80 28 -80 8 0 -5 -4 -7 -10 -4 -22 14 -4 75 22 75 4 0 23 -16 42
-35 27 -27 44 -35 71 -35 29 0 35 -4 35 -21 0 -31 -60 -86 -102 -94 -52 -10
-109 10 -148 50 -32 34 -35 41 -34 98 0 116 59 181 224 248 120 49 77 81 -46
35z"/>
<path d="M1462 2628 c-7 -7 -12 -19 -12 -27 0 -9 -16 -29 -36 -45 -42 -33 -73
-96 -74 -147 0 -19 12 -58 26 -87 42 -84 108 -117 177 -89 24 11 38 24 43 42
12 50 -34 115 -73 101 -11 -5 -13 -15 -8 -45 7 -42 -5 -54 -40 -41 -57 22 -77
96 -39 147 35 46 70 66 126 71 69 5 124 -10 185 -52 61 -42 63 -62 6 -58 -35
3 -44 0 -58 -22 -22 -33 -12 -79 22 -106 33 -26 54 -25 87 1 21 16 27 29 25
53 -5 53 15 42 51 -29 30 -60 34 -77 34 -141 -1 -84 -31 -158 -88 -213 -47
-45 -60 -35 -52 40 6 50 4 61 -14 79 -28 28 -51 25 -85 -10 -16 -16 -35 -30
-42 -30 -7 0 -35 16 -63 36 -87 62 -170 54 -170 -16 0 -51 73 -84 76 -35 1 11
2 24 3 28 2 12 40 -12 85 -53 55 -50 82 -63 141 -70 59 -6 67 -27 20 -49 -33
-17 -56 -17 -197 -6 -83 7 -101 5 -123 -9 -33 -21 -32 -33 5 -54 36 -21 38
-32 5 -32 -27 0 -65 -31 -65 -54 0 -7 11 -21 24 -30 23 -15 24 -17 11 -43 -19
-36 -19 -74 0 -99 15 -19 16 -18 33 6 53 77 126 142 299 265 110 77 166 133
200 197 24 47 28 64 28 143 0 79 -4 97 -29 149 -55 112 -237 279 -354 325 -61
24 -74 25 -90 9z m228 -658 c0 -5 -2 -10 -4 -10 -3 0 -8 5 -11 10 -3 6 -1 10
4 10 6 0 11 -4 11 -10z"/>
<path d="M11230 2607 c-75 -31 -140 -77 -232 -166 -60 -56 -87 -92 -116 -150
-33 -68 -37 -83 -37 -156 0 -67 5 -89 28 -137 32 -65 110 -141 230 -226 102
-71 200 -162 242 -225 25 -36 35 -45 43 -35 20 25 24 65 9 101 -15 34 -15 36
9 52 33 21 31 51 -6 70 -16 8 -36 15 -45 15 -26 0 -17 17 16 29 37 13 36 39
-1 59 -19 10 -56 12 -152 7 -106 -5 -132 -4 -158 10 -49 25 -36 49 30 55 62 6
64 7 138 67 29 24 57 43 62 43 6 0 13 0 17 0 4 0 8 -10 8 -23 0 -15 7 -23 23
-25 51 -7 72 75 27 104 -35 23 -87 13 -150 -31 -61 -41 -70 -43 -90 -12 -8 13
-26 29 -39 35 -20 9 -29 7 -52 -10 -24 -19 -26 -26 -21 -70 10 -84 -12 -101
-59 -45 -80 95 -98 230 -46 342 16 33 36 66 45 74 15 12 17 9 17 -31 0 -76 64
-105 115 -53 55 54 17 136 -55 120 -72 -16 3 59 91 90 52 19 130 19 172 1 82
-34 114 -130 62 -182 -17 -17 -34 -24 -53 -22 -27 3 -31 15 -18 48 3 8 2 21
-3 29 -15 24 -59 -3 -77 -46 -14 -33 -14 -38 3 -61 56 -75 174 -37 224 73 35
75 18 150 -47 212 -24 24 -44 49 -44 56 0 18 -21 37 -39 37 -9 0 -41 -11 -71
-23z"/>
<path d="M10600 1947 c-84 -24 -125 -50 -205 -131 -91 -92 -156 -187 -186
-270 -23 -65 -18 -93 16 -102 13 -3 42 -23 64 -45 78 -73 177 -77 255 -8 56
49 74 99 56 153 -6 20 -21 41 -31 47 -28 14 -72 3 -100 -27 -19 -20 -21 -28
-12 -42 6 -9 15 -16 20 -15 4 1 20 4 34 8 34 8 44 -16 24 -55 -42 -80 -153
-62 -202 33 -19 37 -21 115 -5 173 21 73 105 168 88 99 -7 -25 7 -64 28 -77
42 -28 116 16 116 70 0 48 -22 67 -74 65 -25 -1 -46 2 -46 5 0 11 60 49 114
73 96 42 254 11 325 -64 12 -14 20 -30 16 -36 -3 -6 -33 -11 -65 -11 -96 0
-120 -49 -54 -109 35 -33 35 -33 17 -59 -30 -46 -63 -115 -63 -133 0 -63 53
-96 98 -62 36 27 36 57 0 61 -40 5 -35 26 17 93 52 66 67 101 64 144 -6 65 24
73 51 13 16 -35 18 -58 13 -147 -4 -83 -2 -114 10 -143 19 -46 45 -49 60 -8
15 39 20 38 36 -5 18 -52 45 -62 76 -29 22 24 27 25 59 14 37 -12 79 -6 96 15
9 11 4 18 -22 31 -51 26 -151 127 -259 260 -104 129 -152 173 -221 203 -58 26
-152 34 -208 18z"/>
<path d="M12240 1947 c-14 -7 -31 -25 -39 -41 -25 -53 1 -105 141 -277 63 -78
138 -202 138 -229 0 -7 -13 5 -29 26 -45 63 -136 138 -223 186 -121 65 -172
101 -176 122 -2 10 10 32 30 53 32 33 32 35 14 49 -11 8 -37 14 -57 14 -85 0
-125 -48 -115 -137 5 -46 3 -59 -14 -84 -34 -46 -37 -92 -9 -118 26 -24 62
-36 83 -28 8 3 20 24 26 45 11 43 27 52 90 52 45 -1 134 -37 193 -80 26 -18
46 -35 44 -36 -1 -1 -31 4 -67 13 -83 19 -189 13 -252 -15 -63 -27 -132 -100
-152 -159 -33 -96 -15 -174 59 -250 75 -77 173 -95 270 -49 108 51 151 153
106 251 -31 69 -93 105 -178 105 -145 0 -222 -159 -106 -219 32 -16 58 -14 77
8 26 29 12 59 -30 67 -44 8 -46 37 -4 59 39 20 62 19 94 -6 33 -26 33 -32 -5
-79 -25 -31 -30 -44 -24 -68 3 -17 13 -36 21 -43 22 -18 17 -36 -14 -42 -64
-13 -156 29 -191 87 -26 41 -28 123 -5 172 37 78 141 138 239 137 74 0 120
-19 179 -73 79 -73 118 -192 101 -305 l-7 -47 -27 26 c-37 36 -98 36 -140 0
-40 -33 -39 -48 4 -88 26 -25 33 -38 28 -57 -15 -60 -81 -96 -204 -112 l-89
-11 0 -71 c0 -115 -36 -199 -94 -220 -26 -9 -31 -6 -55 23 -33 38 -68 42 -99
10 -43 -47 -38 -100 16 -145 14 -12 23 -26 18 -30 -4 -4 -51 -8 -104 -8 -80 0
-106 4 -147 23 -92 43 -156 128 -171 230 -10 68 20 162 68 217 88 100 180 107
257 19 42 -48 62 -107 53 -163 -4 -31 -5 -31 -28 -16 -38 25 -89 19 -128 -15
l-34 -30 -21 26 c-25 32 -28 90 -5 122 19 27 34 28 34 3 0 -47 33 -65 84 -45
28 11 19 59 -15 88 -85 72 -209 -5 -209 -129 0 -95 69 -170 168 -182 127 -15
251 119 227 246 -15 78 -76 156 -147 185 -93 39 -229 8 -296 -68 -92 -105
-105 -214 -46 -386 13 -36 -40 41 -72 105 -28 56 -34 81 -34 131 0 66 8 80 57
93 38 10 42 43 9 76 -33 33 -81 33 -130 0 -32 -22 -45 -25 -85 -19 -51 7 -78
-2 -118 -39 -37 -33 -27 -137 12 -137 8 0 27 13 42 30 47 53 56 45 161 -140
50 -88 172 -209 245 -245 32 -15 56 -30 53 -32 -7 -7 -129 38 -176 65 -25 15
-91 62 -148 105 -150 114 -207 136 -271 102 -33 -17 -41 -33 -41 -84 0 -69 87
-112 124 -60 19 27 13 40 -26 62 -28 16 -30 20 -16 33 24 25 65 7 137 -61 64
-61 65 -64 48 -82 -35 -40 -28 -43 212 -104 198 -50 357 -37 513 42 22 11 42
19 44 16 2 -2 0 -26 -5 -53 -21 -108 28 -184 117 -184 50 0 84 17 103 51 13
26 -5 85 -31 99 -24 13 -76 13 -101 0 -32 -18 -24 20 35 158 59 137 81 207 91
290 6 45 10 52 29 52 47 0 177 44 296 101 98 46 136 59 170 58 l45 -1 -33 -9
c-59 -17 -66 -96 -11 -124 75 -39 144 -1 144 80 0 78 -69 123 -170 111 -30 -3
-61 -9 -69 -12 -14 -5 -13 2 5 47 95 234 95 301 2 617 -32 109 -38 122 -58
122 -12 0 -28 -7 -35 -16 -12 -13 -20 -9 -66 37 -57 56 -91 118 -80 146 7 16
10 15 28 -9 22 -31 58 -37 82 -12 58 58 -52 133 -134 91z m429 -1126 l-2 -26
-4 25 c-3 14 -10 32 -16 40 -11 13 -10 13 6 1 9 -7 16 -25 16 -40z m-641 -687
c2 -1 -5 -7 -16 -13 -15 -8 -23 -6 -37 9 -18 20 -18 20 16 14 19 -4 36 -8 37
-10z"/>
<path d="M1977 1931 c-73 -30 -138 -85 -229 -195 -123 -149 -249 -266 -287
-266 -26 0 -19 -22 13 -36 27 -14 42 -15 75 -7 37 10 41 9 56 -13 8 -13 21
-24 29 -24 16 0 47 34 62 68 l12 27 7 -32 c4 -17 14 -34 22 -38 43 -16 68 63
60 190 -5 76 -3 97 13 133 14 31 25 43 37 40 14 -3 17 -12 15 -44 -4 -51 14
-97 67 -167 23 -30 41 -59 41 -65 0 -6 -12 -12 -27 -14 -57 -6 -27 -78 33 -78
62 0 71 82 19 175 l-34 62 34 33 c64 62 40 110 -55 110 -32 0 -62 5 -65 11
-11 17 24 47 93 81 108 53 220 43 325 -29 20 -14 37 -29 37 -33 0 -4 -21 -6
-46 -6 -34 1 -49 -4 -60 -18 -53 -74 53 -169 117 -105 16 16 20 29 16 55 -7
44 11 45 40 1 51 -74 68 -191 39 -260 -35 -85 -135 -115 -190 -58 -18 19 -27
37 -24 52 3 24 9 26 63 17 33 -5 32 45 -1 71 -91 72 -168 -55 -95 -156 71 -98
195 -109 292 -26 19 16 46 34 62 41 22 9 27 18 27 44 -1 117 -183 364 -322
438 -54 29 -75 34 -143 37 -61 3 -91 -1 -128 -16z m-37 -227 c0 -8 -5 -12 -10
-9 -6 4 -8 11 -5 16 9 14 15 11 15 -7z"/>
<path d="M396 1919 c-31 -24 -34 -59 -6 -84 26 -23 63 -13 79 22 l13 28 11
-22 c14 -32 -14 -89 -72 -147 -45 -44 -48 -46 -79 -34 -20 8 -35 9 -40 3 -15
-17 -81 -277 -92 -358 -15 -123 13 -259 84 -396 l14 -26 -95 0 c-94 0 -95 0
-124 -33 -33 -37 -40 -102 -14 -139 35 -50 147 -34 161 23 12 45 -7 79 -44 82
-38 4 -59 -10 -65 -41 l-4 -22 -2 22 c0 13 10 30 27 43 38 31 83 23 222 -37
131 -57 202 -79 282 -89 l56 -6 6 -52 c8 -68 31 -135 100 -282 54 -116 72
-179 44 -156 -28 22 -92 18 -118 -8 -43 -43 -17 -120 45 -136 105 -26 181 60
156 177 -6 28 -11 54 -11 58 0 5 41 -7 91 -26 133 -50 221 -60 339 -40 81 14
345 89 358 102 5 5 -3 23 -20 47 -11 15 -6 25 37 69 61 62 113 91 138 78 25
-14 21 -26 -13 -44 -56 -29 -31 -79 37 -73 33 3 41 8 56 40 37 76 -20 147
-105 132 -47 -9 -103 -43 -194 -119 -109 -91 -172 -131 -250 -161 -70 -26
-102 -26 -39 0 103 43 185 133 277 305 28 51 61 105 73 119 l21 25 36 -32 c44
-38 65 -39 79 -3 17 43 0 92 -41 120 -30 21 -43 23 -93 19 -50 -5 -64 -2 -94
19 -51 34 -95 32 -127 -7 -41 -48 -31 -79 25 -79 34 0 52 -44 46 -109 -5 -60
-47 -162 -87 -211 l-20 -25 17 45 c10 28 16 78 17 130 1 99 -21 160 -82 223
-60 62 -105 82 -192 82 -88 0 -137 -22 -190 -81 -43 -49 -60 -93 -60 -151 1
-63 27 -119 78 -165 45 -41 88 -53 162 -46 123 12 198 155 137 262 -48 85
-154 101 -209 32 -39 -47 -4 -97 56 -82 21 5 26 13 26 36 0 38 13 45 36 19 28
-31 26 -102 -3 -131 l-23 -22 -27 26 c-39 37 -71 42 -115 20 -31 -16 -38 -17
-42 -5 -11 29 -5 89 13 128 73 158 243 151 328 -14 80 -154 17 -330 -146 -404
-35 -17 -66 -22 -133 -22 -47 0 -90 3 -93 7 -4 4 6 23 24 43 39 44 40 82 5
124 -36 43 -68 41 -108 -5 -32 -37 -32 -37 -63 -21 -50 27 -93 140 -93 248 l0
39 -73 0 c-90 0 -160 20 -198 56 -41 39 -39 81 3 115 29 24 31 30 21 51 -6 14
-28 33 -49 43 -31 14 -43 15 -75 6 -21 -6 -45 -21 -53 -33 -15 -21 -15 -21
-22 6 -3 15 -4 66 -2 114 4 68 10 98 31 138 83 163 287 206 425 89 52 -44 75
-98 70 -167 -4 -50 -9 -63 -39 -94 -56 -58 -123 -83 -172 -65 l-27 11 20 32
c28 46 25 75 -10 108 -37 35 -38 52 -3 80 21 16 37 20 61 16 68 -11 87 -59 28
-70 -38 -7 -51 -28 -36 -56 22 -42 74 -37 115 11 31 38 32 76 2 120 -64 97
-236 90 -304 -12 -104 -158 72 -346 269 -287 56 16 133 88 154 143 20 54 15
144 -10 194 -25 48 -86 104 -140 130 -86 40 -191 39 -321 -4 -39 -13 50 56
113 87 68 34 147 47 180 29 12 -7 24 -26 28 -46 6 -32 9 -35 41 -35 41 0 83
37 83 73 0 13 -14 43 -30 66 -28 38 -30 45 -20 81 13 47 -4 98 -41 124 -29 20
-108 21 -135 1 -18 -14 -18 -15 14 -45 17 -17 32 -39 32 -49 0 -25 -44 -62
-132 -110 -136 -74 -218 -147 -277 -246 -11 -18 -11 -18 -5 5 15 58 68 152
139 245 42 55 88 119 102 143 55 92 23 172 -67 172 -33 0 -56 -6 -74 -21z
m454 -1784 c-15 -19 -34 -19 -49 -2 -9 11 -4 14 25 15 31 1 34 -1 24 -13z"/>
<path d="M1064 1645 c-14 -21 -15 -31 -6 -50 10 -21 19 -25 52 -25 44 0 50
-13 30 -65 -8 -20 -15 -25 -28 -20 -9 4 -39 14 -67 22 -60 17 -116 5 -140 -30
-22 -32 -19 -55 14 -88 25 -25 37 -29 85 -29 30 0 67 5 82 10 36 14 46 3 52
-59 4 -43 1 -53 -21 -75 -22 -22 -31 -25 -75 -19 -58 6 -70 -4 -52 -47 14 -33
50 -60 80 -60 12 0 20 -7 20 -16 0 -9 16 -32 35 -51 28 -28 41 -34 67 -31 l33
3 -3 56 c-3 52 -1 58 25 79 22 17 37 21 67 17 21 -3 42 -9 47 -14 5 -5 2 -31
-7 -58 -17 -58 -12 -102 17 -139 16 -21 29 -26 64 -26 47 0 70 16 86 58 11 28
7 47 -23 115 -25 54 -18 70 36 83 27 7 28 6 21 -25 -14 -65 62 -98 104 -45 29
36 27 50 -13 90 -30 30 -40 34 -87 34 -33 0 -69 -8 -96 -21 l-43 -21 -90 29
-89 28 -31 87 -31 87 20 40 c13 25 21 59 21 91 0 44 -5 56 -29 81 -40 39 -102
41 -127 4z m-20 -191 c30 -11 18 -34 -17 -34 -38 0 -48 6 -40 26 5 15 30 18
57 8z m402 -399 c7 -30 -2 -59 -16 -50 -13 8 -13 75 0 75 5 0 12 -11 16 -25z"/>
<path d="M11603 1660 c-56 -23 -71 -109 -32 -191 l22 -49 -27 -85 c-15 -46
-25 -89 -21 -95 3 -5 -2 -10 -12 -10 -10 -1 -50 -13 -89 -29 l-71 -28 -39 20
c-78 41 -191 19 -212 -41 -21 -62 40 -113 93 -78 23 15 26 22 20 52 -5 31 -4
34 18 34 13 0 31 -6 42 -14 19 -14 19 -17 -10 -96 -21 -56 -13 -102 22 -130
58 -45 131 -9 140 70 2 25 -2 66 -11 93 -14 48 -14 48 10 58 83 31 147 -18
125 -97 -8 -29 -7 -36 10 -44 10 -6 30 -8 44 -4 29 7 75 58 75 83 0 10 15 24
35 34 37 18 70 69 61 94 -5 13 -16 14 -57 9 -45 -6 -55 -4 -75 15 -41 38 -28
163 14 140 18 -9 78 -16 123 -13 38 3 79 45 79 81 0 21 -9 37 -32 56 -28 24
-38 27 -78 22 -26 -3 -63 -14 -84 -24 -37 -17 -38 -17 -52 2 -8 10 -14 31 -14
47 0 25 3 27 29 22 21 -5 34 -1 50 15 26 26 26 32 0 65 -21 27 -54 33 -96 16z
m185 -222 c3 -15 -4 -18 -37 -18 -43 0 -53 12 -23 29 24 15 56 9 60 -11z
m-418 -418 c0 -22 -4 -40 -10 -40 -11 0 -14 63 -3 73 11 12 13 8 13 -33z"/>
<path d="M1904 1236 c-66 -21 -129 -71 -172 -136 -46 -68 -84 -163 -80 -194 4
-30 39 -27 54 4 7 14 26 54 43 90 40 86 82 135 141 165 74 37 120 42 174 15
73 -35 109 -116 87 -198 -12 -44 -60 -92 -92 -92 -15 0 -17 5 -12 30 5 26 0
35 -36 68 -43 40 -53 74 -25 90 17 9 54 5 54 -6 0 -3 -8 -14 -17 -24 -29 -32
13 -76 61 -64 65 16 50 113 -21 143 -99 41 -203 -33 -203 -144 0 -144 204
-202 314 -89 l40 42 25 -51 c29 -55 90 -95 146 -95 40 0 114 38 138 71 70 97
-18 255 -130 234 -52 -9 -83 -45 -83 -94 0 -30 5 -43 19 -51 33 -17 61 -12 73
15 9 21 8 28 -7 45 -17 19 -17 20 0 26 21 9 49 -7 53 -29 2 -9 -13 -32 -32
-52 -28 -27 -36 -44 -36 -70 0 -39 -13 -44 -48 -19 -27 19 -48 58 -57 106 -10
52 22 119 74 154 35 23 48 26 95 22 91 -8 161 -79 217 -222 20 -51 33 -72 47
-74 11 -2 22 4 25 12 16 41 -64 208 -130 272 -102 99 -269 94 -349 -12 l-28
-36 -14 29 c-22 42 -62 82 -107 105 -49 26 -146 32 -201 14z"/>
<path d="M3890 1210 c-115 -40 -140 -43 -140 -17 0 25 -26 40 -49 28 -47 -26
-28 -96 29 -108 17 -3 30 -7 30 -10 0 -2 -13 -29 -29 -61 -52 -102 -73 -188
-73 -292 -1 -114 21 -203 93 -372 63 -149 63 -154 0 -150 -42 3 -51 0 -65 -19
-26 -37 -21 -94 10 -118 34 -27 93 -27 126 -1 39 30 52 72 45 150 -3 39 -4 70
-2 70 2 0 38 -14 81 -31 111 -44 181 -55 263 -41 91 15 351 100 351 114 0 6
-7 20 -16 29 -15 17 -15 20 0 44 30 45 94 104 121 111 41 10 52 -10 21 -37
-34 -29 -34 -66 -1 -79 73 -28 128 82 73 144 -13 14 -34 26 -48 27 -64 5 -81
-2 -150 -63 -152 -135 -197 -171 -243 -194 -96 -49 -132 -55 -52 -9 80 48 146
131 219 278 36 74 73 140 80 146 11 9 19 5 39 -19 28 -33 61 -39 71 -14 9 25
7 83 -4 105 -18 32 -68 52 -117 45 -35 -5 -49 -1 -79 19 -49 33 -87 32 -114
-2 -29 -38 -24 -77 13 -81 39 -5 50 -34 45 -116 -5 -70 -35 -155 -71 -201 -15
-18 -15 -16 -2 29 8 27 15 82 15 122 0 132 -54 230 -156 280 -47 23 -63 26
-111 21 -180 -19 -265 -246 -146 -388 35 -41 74 -59 130 -59 69 0 112 27 146
90 32 61 34 109 8 165 -24 53 -51 76 -98 82 -32 4 -45 0 -70 -21 -18 -15 -35
-36 -38 -47 -13 -41 56 -80 83 -46 6 6 12 26 14 42 l3 30 20 -29 c24 -36 24
-85 1 -121 l-18 -27 -26 25 c-38 35 -66 41 -104 23 -17 -9 -33 -16 -35 -16 -1
0 -3 26 -3 58 1 102 68 192 145 192 17 0 51 -13 77 -29 36 -23 53 -44 79 -96
28 -57 32 -77 32 -140 0 -63 -4 -83 -32 -139 -36 -73 -74 -108 -151 -137 -52
-19 -104 -24 -159 -13 l-31 6 30 35 c22 25 30 44 30 72 0 72 -82 123 -108 67
-32 -71 -90 -42 -122 61 -14 46 -20 93 -20 159 l0 95 22 -20 c49 -46 126 -33
149 25 12 32 6 41 -31 49 -69 15 -81 105 -27 195 25 43 43 61 86 83 64 32 97
36 86 10 -4 -10 -10 -37 -12 -60 -5 -37 -2 -46 25 -73 20 -20 40 -30 60 -30
34 0 43 14 30 49 -23 62 23 119 87 107 39 -8 43 -23 25 -86 -14 -45 -4 -102
22 -129 15 -17 29 -21 61 -19 35 3 44 8 60 36 22 37 17 77 -17 154 l-16 37 29
16 c44 22 50 19 44 -21 -7 -41 12 -64 52 -64 57 0 72 74 26 121 -24 24 -38 29
-76 29 -29 0 -61 -8 -85 -21 l-37 -21 -72 26 c-110 40 -186 36 -331 -14z m422
-202 c-9 -9 -12 -1 -11 33 l1 44 11 -33 c7 -24 7 -36 -1 -44z m-529 -875 c-6
-15 -34 -14 -40 2 -1 6 8 11 21 11 18 1 23 -2 19 -13z"/>
<path d="M4728 1241 c-98 -32 -178 -133 -221 -279 -18 -60 -13 -84 15 -80 15
2 28 23 49 83 34 94 89 170 144 203 32 18 51 22 97 19 66 -4 91 -21 119 -82
32 -69 19 -146 -32 -194 -34 -31 -49 -27 -49 15 0 28 -7 42 -35 67 -21 18 -35
40 -35 53 0 24 26 44 48 37 15 -6 16 -33 1 -33 -6 0 -9 -12 -7 -27 4 -38 49
-54 78 -28 54 49 -4 145 -87 145 -64 0 -132 -78 -133 -153 -1 -143 179 -204
282 -96 l37 39 17 -32 c40 -81 101 -115 182 -103 37 5 56 16 89 50 40 39 43
47 43 94 0 58 -15 94 -55 131 -21 20 -37 25 -77 25 -43 0 -53 -4 -79 -33 -34
-38 -38 -81 -10 -106 39 -35 100 2 73 44 -19 31 -14 42 16 38 43 -5 42 -42 -4
-89 -31 -32 -36 -42 -31 -68 5 -25 3 -31 -11 -31 -19 0 -62 41 -81 77 -6 12
-11 42 -11 66 0 111 131 193 229 143 61 -32 144 -151 166 -238 9 -34 30 -52
51 -44 23 9 13 61 -29 151 -78 164 -193 231 -329 191 -41 -12 -65 -27 -95 -59
l-40 -43 -26 47 c-35 63 -96 100 -174 105 -32 2 -70 -1 -85 -5z"/>
<path d="M6750 1237 c-25 -7 -77 -26 -117 -41 -60 -24 -75 -27 -88 -16 -8 7
-15 18 -15 25 0 19 -28 27 -51 15 -28 -15 -26 -74 3 -94 12 -9 33 -16 45 -16
23 0 23 -1 -13 -71 -72 -145 -92 -305 -55 -450 10 -41 42 -128 69 -194 54
-129 74 -200 51 -178 -18 18 -85 16 -103 -3 -39 -38 -31 -105 14 -129 65 -34
129 -9 155 60 17 43 16 80 -1 152 -6 21 -2 20 75 -13 111 -48 185 -61 269 -46
74 12 331 89 346 103 6 5 4 18 -4 34 -11 21 -11 29 0 50 21 39 106 115 129
115 32 0 36 -21 8 -42 -47 -34 -30 -78 29 -78 41 0 64 30 64 83 0 50 -13 73
-47 84 -62 21 -98 6 -196 -84 -118 -108 -204 -170 -270 -194 -28 -10 -44 -13
-33 -6 10 6 39 25 63 41 65 42 121 118 197 271 43 86 73 135 83 135 8 0 24
-11 35 -25 26 -33 56 -32 69 2 16 42 3 88 -34 119 -28 23 -37 26 -83 21 -45
-5 -57 -2 -85 19 -51 38 -100 31 -124 -17 -23 -43 -19 -58 18 -67 61 -16 73
-90 33 -202 -20 -58 -66 -146 -66 -128 0 3 7 35 16 70 31 120 1 243 -80 323
-111 111 -271 94 -345 -37 -53 -92 -48 -191 13 -271 75 -99 222 -89 283 18 27
47 31 131 8 174 -41 81 -123 105 -176 52 -49 -49 -33 -106 28 -99 23 2 29 9
33 36 7 46 22 44 39 -4 15 -43 11 -77 -13 -109 -15 -20 -15 -20 -40 7 -34 36
-60 42 -97 24 -40 -20 -49 -14 -49 33 0 61 28 127 71 166 43 39 78 44 132 21
118 -50 172 -250 104 -388 -52 -106 -156 -166 -273 -156 -30 3 -57 8 -61 11
-3 4 5 20 20 35 39 40 44 79 15 122 -33 49 -67 51 -102 6 -24 -32 -29 -34 -52
-24 -51 23 -84 131 -84 270 l0 81 24 -22 c13 -12 39 -24 58 -27 27 -5 40 -1
67 21 41 35 38 64 -8 80 -128 43 -41 260 120 300 l27 7 -5 -64 c-5 -58 -3 -65
21 -91 20 -22 34 -28 59 -25 l32 3 -3 57 c-3 46 0 60 17 77 24 24 68 27 96 8
16 -12 16 -18 7 -47 -19 -54 -15 -124 9 -154 16 -20 29 -26 59 -26 75 0 100
74 58 172 l-22 51 23 18 c37 30 55 25 47 -13 -15 -74 90 -97 108 -23 21 85
-100 137 -195 84 l-38 -22 -53 23 c-64 28 -199 37 -268 17z m350 -197 c0 -16
-4 -32 -10 -35 -6 -4 -10 10 -10 35 0 25 4 39 10 35 6 -3 10 -19 10 -35z
m-533 -904 c-5 -14 -39 -15 -44 -1 -1 6 8 11 22 11 16 1 24 -3 22 -10z"/>
<path d="M7520 1241 c-49 -15 -87 -40 -124 -82 -80 -88 -142 -274 -92 -274 15
0 27 19 51 81 41 105 85 167 141 200 112 66 221 8 232 -121 5 -63 -9 -107 -46
-135 -37 -29 -53 -26 -46 10 5 25 0 35 -35 70 -46 46 -47 47 -25 78 12 18 19
20 35 11 19 -10 19 -12 5 -28 -21 -23 -20 -34 4 -56 43 -39 102 14 82 74 -11
34 -67 71 -106 71 -96 0 -161 -133 -112 -229 48 -92 186 -103 261 -19 20 22
38 38 40 36 1 -1 12 -22 24 -46 52 -102 188 -120 268 -36 57 61 54 152 -8 213
-59 60 -152 48 -186 -24 -27 -57 5 -105 61 -91 32 8 43 42 22 65 -18 20 -12
31 15 31 22 0 39 -29 30 -52 -3 -9 -18 -26 -33 -38 -22 -17 -28 -30 -28 -61 0
-45 -14 -50 -53 -19 -34 27 -61 100 -53 142 28 148 200 186 301 66 25 -29 67
-111 103 -200 8 -19 19 -28 33 -28 20 0 21 4 16 46 -14 124 -135 280 -237 304
-90 22 -182 -7 -237 -75 l-29 -35 -18 40 c-40 91 -156 141 -256 111z"/>
<path d="M9460 1210 c-115 -40 -140 -43 -140 -17 0 8 -7 20 -15 27 -12 10 -20
9 -40 -4 -46 -31 -25 -90 37 -103 16 -3 27 -8 25 -12 -71 -129 -101 -234 -101
-356 0 -119 15 -182 85 -348 28 -66 52 -131 55 -147 6 -27 6 -27 -43 -23 -55
6 -78 -11 -89 -65 -5 -26 -1 -36 25 -63 29 -28 37 -31 77 -26 53 6 79 26 95
75 11 34 8 119 -6 154 -6 14 8 11 72 -17 112 -48 194 -62 290 -47 65 11 326
92 341 107 3 2 -3 16 -12 31 -17 25 -17 27 10 66 40 57 94 99 123 96 34 -4 38
-25 7 -39 -51 -24 -39 -79 18 -79 46 0 71 30 71 86 0 60 -28 87 -88 87 -59 -1
-73 -10 -180 -110 -92 -86 -145 -126 -206 -158 -35 -18 -91 -36 -91 -30 0 2
24 17 53 33 82 46 138 117 216 271 39 76 77 143 85 150 12 10 19 7 37 -18 37
-50 79 -36 79 26 0 77 -54 121 -130 109 -33 -5 -47 -2 -78 19 -20 14 -48 25
-63 25 -28 0 -63 -32 -74 -68 -5 -19 -1 -25 28 -37 53 -22 60 -36 55 -115 -4
-51 -14 -88 -41 -144 -20 -42 -38 -76 -40 -76 -2 0 2 23 9 52 52 199 -45 392
-207 414 -131 18 -249 -90 -249 -229 0 -126 78 -217 185 -217 134 0 214 147
149 273 -17 33 -69 67 -102 67 -35 0 -77 -25 -90 -55 -16 -34 -15 -40 4 -59
36 -36 84 -10 84 46 l1 23 19 -24 c26 -31 27 -100 1 -132 l-19 -24 -21 26
c-27 35 -64 44 -103 24 -17 -8 -34 -12 -37 -9 -15 15 -3 105 20 151 46 88 118
115 191 70 82 -49 123 -144 116 -266 -7 -109 -52 -183 -147 -239 -40 -23 -57
-27 -128 -27 -45 0 -84 3 -87 6 -4 3 7 21 24 39 39 41 40 86 4 129 -34 40 -68
41 -88 2 -9 -16 -23 -31 -31 -35 -26 -9 -71 44 -89 104 -15 49 -34 240 -25
240 3 0 22 -9 44 -20 22 -11 50 -20 63 -20 30 0 72 43 72 74 0 21 -6 26 -35
32 -46 8 -58 33 -53 105 6 79 44 134 117 172 72 36 94 36 81 1 -29 -75 12
-154 80 -154 l32 0 -7 55 c-6 50 -4 57 19 80 28 27 62 32 90 12 16 -12 16 -19
5 -73 -20 -100 8 -154 80 -154 30 0 44 6 55 22 22 31 20 104 -5 157 -22 50
-15 68 31 73 22 3 24 0 21 -34 -2 -28 2 -39 18 -47 31 -17 59 -13 75 11 24 34
19 66 -13 99 -24 24 -38 29 -78 29 -29 0 -63 -8 -86 -20 l-37 -20 -74 25
c-112 38 -184 34 -326 -15z m420 -171 c0 -24 -4 -38 -10 -34 -17 10 -11 75 7
75 2 0 3 -18 3 -41z m-532 -905 c-9 -9 -21 -13 -27 -10 -19 12 -12 22 16 24
25 2 26 1 11 -14z"/>
<path d="M10287 1236 c-88 -32 -165 -127 -207 -255 -24 -76 -22 -101 9 -101
14 0 24 13 36 48 70 194 168 289 270 261 42 -12 90 -51 110 -90 32 -60 13
-146 -41 -188 -36 -29 -44 -27 -44 12 0 25 -9 42 -35 67 -38 37 -45 74 -17 89
25 13 52 -3 34 -21 -40 -40 14 -96 63 -64 35 23 33 66 -4 108 -26 29 -36 33
-79 33 -40 0 -56 -5 -77 -25 -112 -103 -42 -274 112 -274 58 0 93 19 129 71
l20 31 24 -45 c35 -66 88 -98 164 -98 171 0 249 165 126 268 -38 33 -88 43
-134 27 -67 -22 -99 -96 -57 -134 41 -37 111 0 83 44 -18 29 -15 40 11 40 26
0 47 -17 47 -37 0 -8 -19 -31 -41 -52 -36 -33 -41 -43 -37 -70 4 -26 1 -31
-15 -31 -28 0 -73 35 -87 70 -7 17 -11 53 -8 83 11 133 130 188 263 122 67
-32 122 -100 165 -202 24 -56 33 -68 52 -68 37 0 34 37 -11 129 -46 95 -106
162 -178 198 -38 18 -64 23 -123 23 -89 -1 -154 -27 -199 -81 l-28 -35 -13 30
c-7 17 -31 48 -55 70 -64 59 -146 76 -228 47z"/>
<path d="M3050 1222 c-30 -10 -69 -26 -86 -35 -28 -15 -32 -14 -59 3 -15 10
-43 21 -62 25 -96 18 -182 -76 -123 -135 41 -41 105 -8 94 50 -6 25 -3 30 13
30 10 0 27 -6 36 -12 16 -12 16 -17 -3 -70 -23 -65 -25 -96 -9 -132 26 -55
112 -55 138 0 14 32 14 102 -1 144 -9 29 -9 35 7 47 28 19 72 16 96 -8 18 -18
21 -29 16 -69 -8 -70 24 -91 76 -50 32 25 44 79 29 128 -6 20 -10 38 -8 39 11
12 101 -25 137 -55 96 -82 108 -228 21 -245 -41 -8 -46 -31 -16 -67 32 -37 87
-41 127 -10 14 11 28 20 31 20 10 0 7 -153 -4 -209 -13 -71 -36 -115 -67 -132
-24 -13 -27 -12 -52 19 -39 45 -80 42 -106 -9 -23 -43 -18 -75 16 -114 18 -20
29 -39 25 -43 -4 -4 -41 -8 -82 -10 -65 -4 -81 -1 -128 22 -105 51 -160 143
-160 266 -1 66 4 85 32 143 75 152 208 163 277 23 30 -61 33 -145 5 -137 -8 2
-32 6 -53 9 -31 3 -41 0 -66 -27 -28 -30 -29 -30 -46 -11 -22 24 -29 89 -13
119 18 33 32 31 38 -4 4 -24 11 -31 33 -33 58 -7 74 37 31 87 -21 26 -33 31
-69 31 -74 0 -125 -63 -125 -154 0 -61 19 -104 63 -143 69 -60 152 -56 221 10
86 83 96 213 22 310 -46 61 -98 87 -171 87 -107 0 -204 -79 -237 -194 -16 -56
-13 -171 6 -231 14 -45 14 -48 -1 -30 -32 42 -75 146 -80 197 -7 71 8 105 49
116 40 10 44 27 18 70 -16 26 -26 32 -56 32 -21 0 -49 -9 -67 -22 -25 -18 -46
-23 -90 -23 -54 0 -61 -3 -88 -33 -33 -37 -38 -84 -13 -120 20 -29 27 -28 63
10 26 28 32 30 46 18 9 -8 30 -41 47 -74 92 -185 164 -277 256 -328 28 -17 52
-32 52 -34 0 -7 -100 34 -142 59 -24 14 -86 62 -138 107 -145 125 -206 146
-262 90 -27 -27 -30 -36 -25 -71 7 -50 31 -79 68 -79 30 0 59 23 59 45 0 8
-11 22 -25 31 -25 17 -32 38 -16 48 18 12 63 -15 112 -66 47 -49 60 -80 39
-93 -29 -18 -4 -36 88 -64 278 -85 349 -85 542 1 l55 25 0 -89 c0 -88 0 -90
33 -119 57 -51 146 -34 167 31 4 12 -1 36 -12 58 -15 32 -23 37 -55 40 -20 2
-46 -1 -56 -7 -19 -10 -19 -8 -11 28 4 20 28 89 53 152 100 257 100 430 -3
625 -34 65 -37 76 -23 80 48 15 62 26 68 50 9 34 -6 58 -38 62 -18 2 -27 -4
-36 -23 -15 -32 -28 -32 -137 6 -115 39 -209 46 -285 21z m-120 -202 c0 -22
-4 -40 -10 -40 -11 0 -14 63 -3 73 11 12 13 8 13 -33z m580 -892 c0 -13 -43
-6 -47 8 -2 7 6 10 22 7 14 -3 25 -10 25 -15z"/>
<path d="M5842 1225 c-29 -8 -68 -23 -88 -33 -35 -18 -36 -18 -82 5 -53 27
-79 29 -127 9 -38 -16 -55 -42 -55 -85 0 -31 30 -61 61 -61 29 0 52 35 44 69
-6 26 -4 31 12 31 11 0 28 -6 38 -14 18 -13 18 -15 -5 -86 -23 -73 -23 -73 -4
-109 38 -71 114 -64 143 13 13 35 13 45 -1 100 -15 56 -15 62 0 74 9 6 30 12
47 12 52 0 82 -50 66 -108 -8 -27 -7 -34 9 -42 25 -14 62 1 90 37 22 28 23 57
4 122 -7 22 -5 23 27 16 49 -10 114 -50 140 -86 29 -41 50 -113 43 -149 -7
-34 -29 -55 -66 -64 -34 -8 -36 -33 -7 -70 26 -33 84 -36 122 -6 14 11 28 20
31 20 3 0 6 -48 6 -107 -1 -128 -25 -206 -73 -233 -27 -15 -29 -14 -56 18 -34
43 -66 40 -98 -7 -31 -46 -29 -74 8 -116 18 -20 29 -39 25 -43 -4 -3 -38 -8
-76 -10 -160 -9 -278 101 -288 269 -3 55 0 91 12 126 34 102 131 176 201 153
67 -22 115 -102 115 -191 0 -45 -2 -50 -17 -43 -10 4 -34 9 -55 12 -31 3 -40
-1 -64 -28 l-29 -31 -17 21 c-29 36 -20 150 12 150 6 0 10 -10 10 -22 0 -37
14 -50 51 -46 30 3 34 7 37 35 5 47 -34 83 -89 83 -35 0 -48 -6 -79 -38 -46
-46 -59 -96 -41 -161 17 -64 53 -106 106 -126 148 -57 285 105 233 277 -14 49
-81 126 -125 144 -79 33 -188 8 -250 -57 -72 -76 -101 -220 -69 -339 8 -30 13
-56 11 -58 -2 -2 -20 31 -42 74 -34 70 -38 86 -38 153 l0 76 38 18 c42 21 47
42 16 81 -26 34 -72 34 -120 2 -28 -19 -44 -23 -79 -19 -59 6 -105 -22 -119
-71 -11 -42 -2 -85 23 -100 14 -9 22 -5 45 23 18 21 34 32 43 28 8 -3 37 -47
63 -99 97 -189 158 -264 256 -314 65 -32 58 -41 -11 -15 -71 27 -138 73 -251
171 -101 88 -122 100 -175 100 -52 0 -84 -36 -84 -95 0 -53 25 -85 68 -85 55
0 70 45 25 78 -27 20 -27 52 1 52 20 0 93 -58 129 -102 29 -36 29 -39 14 -56
-10 -10 -17 -24 -17 -30 0 -11 183 -72 279 -93 29 -6 97 -9 150 -7 88 4 104 8
185 46 49 23 90 42 91 42 1 0 -2 -21 -7 -46 -15 -67 -2 -132 32 -166 58 -58
170 -25 170 50 0 46 -34 82 -79 82 -20 0 -42 -5 -49 -12 -25 -25 -11 34 38
162 64 167 80 233 80 349 0 113 -19 191 -71 291 -21 42 -39 79 -39 83 0 4 11
7 23 7 43 0 69 48 51 94 -4 9 -18 16 -34 16 -21 0 -29 -6 -34 -25 -8 -32 -23
-32 -134 5 -112 37 -208 45 -280 25z m-126 -232 c-12 -30 -29 2 -21 39 l8 33
9 -28 c6 -15 7 -35 4 -44z m584 -858 c0 -1 -6 -8 -13 -14 -11 -8 -18 -7 -30 7
-16 18 -15 18 13 14 17 -2 30 -5 30 -7z"/>
<path d="M8630 1227 c-25 -7 -63 -22 -85 -33 l-40 -19 -53 23 c-68 30 -120 24
-157 -20 -30 -36 -32 -71 -5 -98 42 -42 95 -15 88 43 -3 32 -1 37 17 37 11 0
28 -7 38 -14 17 -13 17 -16 -3 -65 -28 -71 -26 -121 5 -155 32 -35 69 -34 106
3 33 33 38 83 17 154 -11 35 -10 41 7 53 28 20 72 17 96 -7 19 -19 21 -29 15
-75 -5 -46 -4 -53 13 -59 24 -7 77 18 91 44 13 26 13 87 -1 113 -15 28 -8 31
46 17 65 -17 139 -87 155 -149 20 -76 0 -140 -45 -140 -37 0 -49 -23 -31 -58
8 -16 23 -32 31 -36 33 -12 83 -6 109 15 23 18 27 19 32 4 9 -23 -2 -192 -16
-237 -14 -47 -56 -98 -80 -98 -11 0 -27 14 -37 30 -25 43 -66 42 -93 -3 -29
-48 -26 -87 11 -125 18 -18 29 -35 26 -39 -4 -3 -40 -8 -80 -11 -59 -3 -83 0
-118 15 -63 28 -116 77 -147 137 -22 43 -26 64 -26 136 0 73 4 93 28 143 29
61 74 102 126 117 63 18 136 -35 165 -119 26 -75 15 -145 -18 -112 -6 6 -28
11 -48 11 -29 0 -43 -7 -62 -30 l-26 -30 -20 26 c-27 34 -28 94 -1 125 10 13
19 18 20 12 1 -42 17 -63 48 -63 56 0 67 40 26 89 -21 26 -33 31 -69 31 -76 0
-125 -59 -125 -150 0 -65 18 -108 63 -147 87 -76 212 -42 267 73 32 65 26 174
-13 232 -41 63 -97 95 -173 100 -108 7 -178 -41 -233 -158 -21 -46 -25 -69
-25 -140 0 -51 7 -102 16 -128 25 -67 -4 -34 -42 49 -43 94 -52 187 -21 218
11 11 30 21 40 21 28 0 32 23 12 61 -15 29 -25 34 -58 37 -29 2 -47 -3 -68
-20 -23 -18 -42 -23 -88 -23 -54 0 -61 -3 -88 -33 -31 -34 -39 -85 -19 -123
15 -27 29 -24 68 14 l33 32 21 -25 c11 -14 36 -56 55 -95 78 -155 165 -260
256 -306 48 -25 47 -32 -1 -15 -77 27 -139 65 -218 134 -154 133 -203 157
-263 132 -52 -21 -67 -96 -30 -144 26 -33 74 -33 96 1 14 21 13 24 -16 51 -27
25 -30 31 -17 41 20 17 58 -4 121 -69 l50 -51 -17 -29 c-12 -22 -13 -31 -5
-38 19 -14 268 -82 338 -92 84 -12 157 1 268 49 l88 38 -5 -77 c-7 -116 23
-160 106 -160 57 0 92 30 92 81 0 65 -61 100 -120 69 -18 -10 -19 -8 -13 22 3
18 26 83 50 145 64 166 77 223 78 343 0 117 -19 191 -78 304 -18 34 -33 64
-35 69 -2 4 8 7 22 7 29 0 66 31 66 56 0 53 -62 76 -80 29 -12 -32 -27 -32
-134 5 -104 35 -211 45 -276 27z m-130 -207 c0 -22 -4 -40 -10 -40 -11 0 -14
63 -3 73 11 12 13 8 13 -33z m569 -896 c-9 -11 -15 -11 -25 -3 -21 18 -17 27
11 21 20 -3 23 -7 14 -18z"/>
<path d="M11910 961 c-5 -11 -10 -29 -10 -40 0 -22 -11 -31 -55 -46 -36 -13
-36 -39 1 -72 28 -25 77 -30 117 -12 35 16 70 90 58 122 -23 59 -89 88 -111
48z"/>
<path d="M798 953 c-34 -39 -39 -61 -24 -98 11 -26 27 -41 58 -55 52 -23 70
-24 107 -6 29 16 53 56 43 73 -4 6 -24 14 -46 19 -32 8 -40 15 -50 44 -9 29
-17 36 -42 38 -19 2 -36 -3 -46 -15z"/>
<path d="M12601 603 c-56 -29 -60 -100 -8 -124 34 -16 67 3 67 38 0 20 3 24
11 16 9 -9 8 -18 -5 -37 -33 -51 -90 -48 -228 14 -108 49 -194 80 -219 80 -16
0 -16 -5 6 -57 12 -32 43 -101 68 -153 48 -101 71 -170 57 -170 -5 0 -12 5
-15 10 -3 5 -26 10 -50 10 -47 0 -71 -16 -81 -56 -16 -65 34 -110 113 -101 84
9 123 78 103 184 -5 31 -10 58 -10 59 0 7 96 -39 111 -52 39 -35 38 -7 -1 81
-16 37 -30 68 -30 69 0 1 28 -2 63 -7 81 -12 132 5 165 53 61 90 -23 191 -117
143z m-273 -470 c-9 -8 -24 -13 -32 -10 -26 10 -18 22 16 24 29 2 30 1 16 -14z"/>
<path d="M102 584 c-18 -8 -42 -59 -42 -89 0 -88 104 -138 218 -106 17 5 32 6
32 2 0 -16 -42 -106 -58 -123 -14 -16 -14 -18 1 -18 8 0 45 14 83 30 37 17 68
29 70 28 1 -2 -3 -27 -8 -56 -21 -106 30 -182 121 -182 66 0 101 28 101 79 0
53 -29 81 -83 81 -24 0 -49 -6 -56 -12 -27 -25 -4 54 52 187 66 153 75 185 55
185 -8 0 -18 -4 -24 -8 -5 -5 -31 -17 -59 -27 -27 -10 -84 -35 -125 -55 -117
-59 -166 -73 -206 -60 -32 11 -54 35 -54 59 0 6 5 11 11 11 5 0 8 -4 5 -8 -3
-5 2 -18 10 -30 18 -26 56 -29 78 -6 22 22 20 77 -4 99 -19 17 -94 29 -118 19z
m446 -450 c2 -1 -5 -7 -16 -13 -15 -8 -23 -6 -37 9 -18 20 -18 20 16 14 19 -4
36 -8 37 -10z"/>
</g>
</svg>
