<?xml version="1.0" encoding="UTF-8" standalone="no"?>
<!-- Created with Inkscape (http://www.inkscape.org/) -->

<svg
   xmlns:dc="http://purl.org/dc/elements/1.1/"
   xmlns:cc="http://creativecommons.org/ns#"
   xmlns:rdf="http://www.w3.org/1999/02/22-rdf-syntax-ns#"
   xmlns:svg="http://www.w3.org/2000/svg"
   xmlns="http://www.w3.org/2000/svg"
   xmlns:sodipodi="http://sodipodi.sourceforge.net/DTD/sodipodi-0.dtd"
   xmlns:inkscape="http://www.inkscape.org/namespaces/inkscape"
   width="103.21366mm"
   height="73.355392mm"
   viewBox="0 0 103.21366 73.355392"
   version="1.1"
   id="svg192"
   inkscape:version="0.92.4 (5da689c313, 2019-01-14)"
   sodipodi:docname="Sanchuanjoche Outline.svg">
  <defs
     id="defs186" />
  <sodipodi:namedview
     id="base"
     pagecolor="#ffffff"
     bordercolor="#666666"
     borderopacity="1.0"
     inkscape:pageopacity="0.0"
     inkscape:pageshadow="2"
     inkscape:zoom="0.7"
     inkscape:cx="11.885885"
     inkscape:cy="22.145712"
     inkscape:document-units="mm"
     inkscape:current-layer="layer1"
     showgrid="false"
     fit-margin-top="0"
     fit-margin-left="0"
     fit-margin-right="0"
     fit-margin-bottom="0"
     inkscape:window-width="1366"
     inkscape:window-height="705"
     inkscape:window-x="-8"
     inkscape:window-y="-8"
     inkscape:window-maximized="1" />
  <metadata
     id="metadata189">
    <rdf:RDF>
      <cc:Work
         rdf:about="">
        <dc:format>image/svg+xml</dc:format>
        <dc:type
           rdf:resource="http://purl.org/dc/dcmitype/StillImage" />
        <dc:title></dc:title>
      </cc:Work>
    </rdf:RDF>
  </metadata>
  <g
     inkscape:label="Layer 1"
     inkscape:groupmode="layer"
     id="layer1"
     transform="translate(-35.597752,-81.337324)">
    <path
       style="fill:#000000;stroke:#000000;stroke-width:0.765;stroke-miterlimit:4;stroke-dasharray:none;stroke-opacity:1"
       d="m 89.78171,153.80866 c -3.233156,-0.56939 -6.670284,-1.88613 -8.898808,-3.40907 -0.818955,-0.55966 -2.482086,-2.03902 -3.695846,-3.28747 l -2.206834,-2.2699 -1.283176,0.65023 c -1.474026,0.74695 -4.635336,2.0347 -7.135445,2.9066 -0.945886,0.32987 -2.552542,1.09051 -3.570346,1.69031 -2.341643,1.37995 -4.813147,2.31714 -7.012988,2.65931 -4.017563,0.6249 -7.895319,1.06784 -9.128125,1.04267 -0.748009,-0.0153 0.746751,-0.29241 3.439583,-0.63772 7.84049,-1.00539 8.559245,-1.19206 12.228084,-3.17577 1.196576,-0.64697 3.637736,-1.75832 5.424798,-2.46965 1.787062,-0.71133 4.117832,-1.69053 5.179491,-2.176 l 1.930292,-0.88267 1.483783,1.66573 c 2.526258,2.83603 7.589536,6.17749 8.709475,5.74773 0.253355,-0.0972 0.325988,-0.0418 0.203999,0.15554 -0.127661,0.20657 -0.04138,0.2497 0.264584,0.13229 0.301487,-0.11569 0.391699,-0.0734 0.268523,0.12592 -0.130625,0.21136 0.04141,0.24722 0.581572,0.12122 0.597834,-0.13944 0.679506,-0.11404 0.370192,0.11511 -0.312481,0.2315 -0.240459,0.25984 0.33869,0.13329 0.404562,-0.0884 1.77378,0.0341 3.042709,0.27227 1.585788,0.29762 2.844856,0.37568 4.026935,0.24964 0.945885,-0.10084 2.315104,-0.23572 3.042708,-0.29973 2.603005,-0.22897 3.08249,-0.39461 4.24534,-1.46649 0.63532,-0.58561 1.25844,-1.00091 1.38472,-0.92287 0.28153,0.174 3.92164,-3.49621 5.05498,-5.09678 0.45338,-0.6403 0.82434,-1.35015 0.82434,-1.57745 0,-0.2273 0.54,-1.50867 1.20001,-2.84748 1.53477,-3.11325 2.04996,-5.51665 1.92131,-8.96297 -0.10542,-2.82378 -0.86317,-5.34438 -2.31689,-7.70694 -0.97416,-1.58318 -2.58192,-3.27263 -3.11885,-3.27732 -0.36659,-0.003 -0.38735,-0.0524 -0.0991,-0.23501 0.46688,-0.29571 0.20049,-0.71869 -0.76808,-1.21955 -0.70552,-0.36484 -0.86045,-0.351 -1.93952,0.17325 -0.6915,0.33596 -1.36688,0.49527 -1.64582,0.38824 -0.41069,-0.1576 -0.36267,-0.25869 0.36423,-0.76669 0.80857,-0.56508 1.07679,-0.98203 0.63174,-0.98203 -0.11808,0 -0.47419,-0.24176 -0.79136,-0.53725 -0.55727,-0.51918 -0.62794,-0.52296 -2.10041,-0.11243 -3.081036,0.859 -3.084163,0.86076 -3.745862,2.10846 -0.719694,1.35705 -0.627764,1.68422 0.302053,1.07498 0.351666,-0.23042 0.718453,-0.33988 0.815086,-0.24325 0.09663,0.0966 0.414549,-0.0405 0.706483,-0.30466 0.291933,-0.2642 0.530788,-0.41069 0.530788,-0.32553 0,0.15064 0.983245,-0.0905 1.918232,-0.47044 0.25466,-0.10349 0.46202,-0.0861 0.46079,0.0386 -10e-4,0.12471 -0.94247,0.6857 -2.091674,1.24666 -2.497127,1.21891 -5.26702,3.47464 -6.362036,5.18107 -0.436885,0.68083 -1.064508,1.48226 -1.394722,1.78096 -0.852707,0.77134 -4.184637,2.99826 -4.486005,2.99826 -0.606152,0 -0.02566,-1.21933 0.769641,-1.61668 0.868527,-0.43393 0.888937,-0.76457 0.04719,-0.76457 -0.256879,0 -0.721394,-0.35719 -1.032253,-0.79375 -0.561229,-0.78817 -0.351531,-1.13925 0.248576,-0.41616 0.172355,0.20767 0.819261,0.54996 1.437571,0.76064 0.920792,0.31375 1.208246,0.3216 1.588728,0.0434 0.255489,-0.18682 0.456599,-0.43981 0.44691,-0.5622 -0.0097,-0.1224 0.09152,-0.22253 0.224917,-0.22253 0.133392,0 0.326036,-0.0835 0.428096,-0.18557 0.241509,-0.24151 -1.088149,-0.57535 -1.564116,-0.39271 -0.202187,0.0776 -0.757875,-0.26457 -1.24364,-0.76575 -0.673751,-0.69513 -0.872035,-1.12128 -0.851919,-1.83093 0.01442,-0.50871 -0.08105,-0.85863 -0.212161,-0.7776 -0.131109,0.081 -0.24778,0.40819 -0.259268,0.72702 -0.01148,0.31884 -0.08119,0.43013 -0.15489,0.24732 -0.0737,-0.1828 -0.242895,-0.26507 -0.375986,-0.18282 -0.13309,0.0823 -0.241985,-0.0361 -0.241985,-0.26293 0,-0.22687 0.178594,-0.41249 0.396875,-0.41249 0.582824,0 0.483576,-0.62244 -0.198438,-1.24448 -0.327421,-0.29864 -1.889413,-1.34992 -3.471092,-2.33618 -2.981489,-1.85912 -7.288464,-5.4144 -8.898179,-7.34518 -0.895337,-1.07391 -0.86987,-1.06252 0.767956,0.34348 0.931699,0.79983 2.487475,2.16976 3.457281,3.04429 0.969804,0.87453 3.342889,2.58781 5.273517,3.80728 1.93063,1.21948 3.611761,2.46848 3.735845,2.77557 0.143867,0.35604 0.231685,0.4119 0.24238,0.15417 0.0092,-0.22229 -0.326546,-1.06588 -0.746154,-1.87464 -0.421363,-0.81213 -0.83289,-2.11188 -0.919192,-2.90312 l -0.156266,-1.43265 0.513014,1.58144 c 0.28216,0.8698 0.717225,1.96065 0.966814,2.42411 l 0.4538,0.84265 0.747004,-1.1779 0.747001,-1.1779 -0.557827,-2.03995 c -0.443219,-1.62083 -0.584557,-3.07279 -0.687932,-7.06704 -0.117954,-4.55759 -0.06562,-5.41008 0.5604,-9.12812 0.379778,-2.255574 0.866135,-4.755886 1.080792,-5.556251 0.214659,-0.800364 0.391699,-1.702347 0.393427,-2.004407 0.0055,-0.968728 2.842713,-6.363802 3.977413,-7.563316 l 1.085876,-1.147902 -1.173877,1.719791 c -0.645633,0.945886 -1.259652,1.997902 -1.364488,2.337813 -0.167095,0.541782 -0.1304,0.58526 0.29745,0.352446 0.878808,-0.478202 2.167356,-2.005455 2.716237,-3.219425 0.557733,-1.233549 0.739637,-3.175 0.297484,-3.175 -0.138856,0 -0.666875,0.565547 -1.173377,1.256771 -0.506502,0.691224 -1.137034,1.490186 -1.401183,1.775471 -0.264147,0.285285 -0.718394,0.895423 -1.009436,1.355862 -0.291042,0.460439 -0.913921,1.417649 -1.384176,2.127133 -0.470251,0.709484 -0.929989,1.676924 -1.021633,2.149867 -0.09164,0.472943 -0.264414,0.859896 -0.383931,0.859896 -0.11952,0 -0.295736,0.247098 -0.391589,0.549106 -0.09585,0.302008 -0.22511,0.498274 -0.287237,0.436147 -0.216143,-0.216142 1.473629,-4.005872 2.297941,-5.153708 0.888862,-1.237718 0.889736,-1.610087 0.0027,-1.13534 -1.008893,0.539944 -0.569587,0.05597 0.489501,-0.539272 0.572727,-0.321892 1.466278,-1.202271 1.985666,-1.956397 1.79192,-2.60179 2.83437,-3.08337 3.18811,-1.472808 0.209481,0.953761 -0.03333,1.917212 -0.936519,3.716022 -0.850636,1.694139 -1.975901,2.851272 -3.052829,3.139287 -1.631815,0.436415 -2.523432,3.523176 -4.213714,14.587794 -0.121698,0.79665 -0.0013,0.66726 0.86102,-0.92604 1.393865,-2.57515 4.301048,-6.45115 6.010495,-8.013488 1.805627,-1.650241 4.956506,-3.536034 7.636016,-4.570137 3.94179,-1.521253 8.38401,-2.667293 10.89605,-2.811048 2.26483,-0.129609 2.53,-0.08469 5.42396,0.918825 9.01682,3.126695 12.22525,5.082057 16.3019,9.935142 2.36267,2.812646 3.12962,4.152326 2.86125,4.997886 -0.31304,0.9863 -3.01463,3.34315 -5.52713,4.82184 -2.99039,1.75993 -6.77674,3.33239 -9.93186,4.12465 -1.23692,0.31059 -3.38005,0.85368 -4.7625,1.20686 -1.38245,0.35319 -3.10885,0.75556 -3.83646,0.89417 -0.7276,0.13861 -3.04932,0.62309 -5.15937,1.07663 -2.11005,0.45353 -4.36246,0.93379 -5.00534,1.06725 -0.64288,0.13346 -1.21968,0.29345 -1.28177,0.35554 -0.12749,0.1275 1.53325,1.21119 3.13786,2.04755 0.58697,0.30595 1.26358,0.86761 1.50358,1.24814 0.24,0.38052 0.85729,1.18513 1.37174,1.78802 0.95533,1.11954 1.55324,2.18209 2.8075,4.98926 0.57884,1.29549 0.73341,2.10484 0.84034,4.40007 0.19012,4.08095 -0.56246,7.55673 -2.13068,9.84044 -0.28204,0.41072 -0.67147,1.27399 -0.86541,1.91837 -0.48399,1.60819 -1.54409,3.04857 -4.07512,5.53695 -1.18413,1.16417 -2.41294,2.57482 -2.73071,3.13479 -0.76456,1.34732 -1.62732,1.74917 -4.376663,2.03852 -3.289284,0.34619 -5.344848,0.27606 -8.573132,-0.29248 z m 5.156454,-0.17744 c -0.472943,-0.0587 -1.246849,-0.0587 -1.719792,0 -0.472942,0.0587 -0.08599,0.10672 0.859896,0.10672 0.945886,0 1.332839,-0.048 0.859896,-0.10672 z m -3.434548,-0.24673 c -0.179131,-0.0725 -0.536319,-0.0769 -0.79375,-0.01 -0.257432,0.0671 -0.110869,0.12638 0.325694,0.13177 0.436562,0.005 0.647187,-0.0495 0.468056,-0.12197 z m 7.803258,-0.008 c -0.252965,-0.0662 -0.729215,-0.0686 -1.058333,-0.005 -0.329118,0.0633 -0.122148,0.11747 0.459936,0.12041 0.582083,0.003 0.851363,-0.0488 0.598397,-0.11507 z m -9.533596,-0.24265 c -0.08792,-0.0879 -0.316125,-0.0973 -0.507119,-0.0209 -0.211066,0.0845 -0.148373,0.14715 0.159853,0.15985 0.278913,0.0115 0.435184,-0.0511 0.347266,-0.13897 z m -1.322917,-0.26458 c -0.08792,-0.0879 -0.316124,-0.0973 -0.507119,-0.0209 -0.211066,0.0845 -0.148373,0.14716 0.159853,0.15985 0.278913,0.0115 0.435184,-0.051 0.347266,-0.13896 z m 13.334579,-0.30318 c 0.3291,-0.41964 0.31974,-0.429 -0.0999,-0.0999 -0.44073,0.34565 -0.58089,0.56292 -0.36313,0.56292 0.0549,0 0.2633,-0.20836 0.46303,-0.46302 z m 1.05833,-1.5875 c 0.32911,-0.41965 0.31975,-0.429 -0.0999,-0.0999 -0.25466,0.19972 -0.46302,0.40808 -0.46302,0.46302 0,0.21777 0.21728,0.0776 0.56292,-0.36312 z M 92.08785,125.82942 c 0.07703,-0.20073 0.07819,-0.46506 0.0026,-0.58739 -0.0756,-0.12234 0.0019,-0.30858 0.172315,-0.41388 0.211855,-0.13094 0.238982,-0.074 0.08582,0.18015 -0.181391,0.30097 -0.133353,0.29801 0.252714,-0.0156 0.281895,-0.22899 0.357571,-0.42691 0.185195,-0.48437 -0.199588,-0.0665 -0.209328,-0.25066 -0.03089,-0.58407 0.143322,-0.2678 0.332234,-0.93773 0.419801,-1.48873 0.179588,-1.13001 1.417545,-3.07827 2.340073,-3.68273 0.566023,-0.37088 4.064764,-1.46916 6.235732,-1.95745 3.47424,-0.78141 4.85275,-1.20985 4.1515,-1.29026 -2.68779,-0.30822 3.42984,-2.1407 12.12037,-3.63056 3.34142,-0.57283 4.52522,-0.8183 4.81749,-0.99894 0.41622,-0.25723 1.92939,-0.41421 1.92939,-0.20015 0,0.3038 -3.18191,1.16938 -6.35,1.72741 -0.21828,0.0385 -0.75338,0.21392 -1.18911,0.38994 -0.43573,0.17602 -1.50729,0.42342 -2.38125,0.54978 -1.76043,0.25453 -8.12657,1.88381 -7.9705,2.03988 0.0544,0.0543 1.33383,-0.15845 2.84328,-0.47291 1.50945,-0.31446 3.51836,-0.72705 4.46424,-0.91687 0.94589,-0.18982 2.67229,-0.58963 3.83646,-0.88846 1.16417,-0.29883 3.1287,-0.77601 4.36563,-1.0604 2.83513,-0.65184 6.77764,-2.14232 6.35599,-2.40291 -0.30148,-0.18633 0.46647,-0.68307 4.22734,-2.73439 0.80036,-0.43655 1.73916,-1.01277 2.0862,-1.28048 0.79945,-0.6167 1.26268,-0.63041 0.80199,-0.0237 -0.19339,0.25466 0.0804,0.0617 0.60849,-0.42884 0.52805,-0.49053 0.90171,-1.04403 0.83034,-1.23001 -0.0714,-0.18598 0.0158,-0.42812 0.19374,-0.53808 0.22044,-0.13629 0.25528,-0.0897 0.10939,0.1464 -0.14164,0.22917 -0.11071,0.28247 0.0914,0.15755 0.65266,-0.40336 0.21144,-1.21082 -2.34695,-4.295081 -4.16019,-5.015297 -7.74824,-7.279744 -16.00071,-10.098152 -3.85435,-1.316348 -5.15818,-1.518821 -7.17834,-1.114728 -2.25393,0.450852 -6.82889,1.782322 -8.82415,2.568127 -2.2765,0.896565 -5.845592,3.010942 -5.64108,3.341847 0.09243,0.14955 0.02656,0.178201 -0.153646,0.06683 -0.417777,-0.258201 -3.47096,2.862892 -4.720662,4.825661 -0.527113,0.827879 -1.278003,1.921956 -1.668645,2.431276 -0.390641,0.50932 -1.203404,1.84317 -1.806141,2.9641 l -1.09588,2.03806 v 3.13887 c 0,2.98953 0.281868,5.49636 0.780362,6.94022 0.125603,0.3638 0.30258,0.88872 0.393279,1.16649 0.15525,0.47545 0.207079,0.46546 0.884698,-0.17053 0.889595,-0.83494 2.981719,-1.79427 4.259686,-1.95325 0.797012,-0.0991 0.586145,0.0647 -1.254726,0.97481 -2.354508,1.16409 -4.32395,2.91227 -4.963369,4.40575 -0.445704,1.04104 -0.473191,2.98622 -0.05516,3.9037 0.479533,1.05246 3.462054,1.82934 3.785645,0.98608 z m 33.47584,-15.25687 c 0,-0.0676 0.26789,-0.26572 0.59531,-0.44019 0.53981,-0.28763 0.56145,-0.27617 0.23219,0.12298 -0.3381,0.40985 -0.8275,0.59746 -0.8275,0.31721 z m 2.11666,-0.93535 c 0,-0.14552 0.12609,-0.26458 0.2802,-0.26458 0.15411,0 0.20661,0.11906 0.11668,0.26458 -0.0899,0.14552 -0.21603,0.26459 -0.2802,0.26459 -0.0642,0 -0.11668,-0.11907 -0.11668,-0.26459 z m 8.86354,-5.02708 c 0.26339,-0.29104 0.53843,-0.52917 0.61119,-0.52917 0.0728,0 -0.0832,0.23813 -0.3466,0.52917 -0.26339,0.29104 -0.53842,0.52917 -0.61118,0.52917 -0.0728,0 0.0832,-0.23813 0.34659,-0.52917 z m -40.88598,15.27969 0.620824,-0.8599 -0.703358,0.64143 c -0.386847,0.35279 -0.703358,0.73975 -0.703358,0.8599 0,0.36738 0.140126,0.25301 0.785892,-0.64143 z m 36.55196,-11.72587 c 1.41867,-0.81029 2.73401,-1.67349 2.92299,-1.91822 0.31827,-0.4122 0.30494,-0.41392 -0.18102,-0.0234 -0.28854,0.23189 -1.53664,0.97298 -2.77357,1.64687 -2.59109,1.41164 -3.14038,1.75827 -2.79525,1.76392 0.1361,0.002 1.40818,-0.65891 2.82685,-1.46921 z m -92.99343,45.19834 c -0.76807,-0.25589 -1.505423,-0.72758 -1.835694,-1.1743 -0.303597,-0.41063 -0.70117,-0.74661 -0.883497,-0.74661 -0.585268,0 -0.68529,-0.53357 -0.230217,-1.2281 0.263449,-0.40207 0.530947,-1.60262 0.660624,-2.96493 0.380758,-4 2.226397,-8.9136 4.653284,-12.38833 l 1.140133,-1.63239 -0.617567,-0.40465 c -0.676968,-0.44357 -2.760635,-3.30826 -3.5929,-4.93963 -0.818041,-1.6035 -1.309565,-4.12916 -1.313845,-6.75111 -0.0036,-2.21815 0.05573,-2.48963 0.801239,-3.66518 0.442832,-0.69828 1.032456,-1.86782 1.310276,-2.59898 0.277818,-0.73115 1.027302,-2.11791 1.665519,-3.08169 0.638216,-0.96376 1.596941,-2.42028 2.130499,-3.23669 1.355684,-2.07438 3.992742,-4.88792 5.295755,-5.65017 0.602759,-0.35261 1.988895,-1.01076 3.080301,-1.46256 1.863355,-0.77134 2.121531,-0.81106 4.233334,-0.65129 1.597904,0.12088 2.800219,0.39817 4.153196,0.95783 1.957285,0.80963 5.769118,3.11543 5.166987,3.12554 -0.185409,0.003 -0.93173,-0.40337 -1.658493,-0.90329 -1.446215,-0.99482 -3.711842,-2.13183 -4.751274,-2.38444 -0.363802,-0.0884 0.03506,0.20765 0.886367,0.65791 0.851304,0.45026 1.486712,0.87977 1.412019,0.95446 -0.07469,0.0747 -0.414027,-0.0445 -0.754075,-0.26478 -0.987542,-0.63984 -3.415813,-1.42943 -4.851602,-1.57757 -1.598435,-0.16492 -2.838201,0.0371 -2.599346,0.42359 0.107454,0.17387 0.0064,0.21552 -0.267668,0.11034 -0.242153,-0.0929 -0.440278,-0.0716 -0.440278,0.0475 0,0.21225 -2.275422,1.25168 -2.608546,1.19161 -0.09327,-0.0168 -0.325159,0.19154 -0.515311,0.46302 -0.369457,0.52747 -1.004483,0.70129 -0.687336,0.18814 0.117905,-0.19078 0.07248,-0.23358 -0.120993,-0.11401 -0.170379,0.1053 -0.252939,0.28342 -0.183467,0.39583 0.183008,0.29611 -1.569124,1.92359 -1.810771,1.68194 -0.1117,-0.1117 -0.163403,-0.0245 -0.114896,0.19379 0.04851,0.21828 -0.04079,0.37372 -0.198437,0.34542 -0.157648,-0.0283 -0.286632,0.0913 -0.286632,0.26565 0,0.17441 -0.94818,1.56678 -2.107067,3.09416 -2.276909,3.00091 -2.990651,4.11704 -3.552408,5.55518 -0.198948,0.50933 -0.712255,1.49285 -1.140681,2.18562 -0.428426,0.69277 -0.722492,1.31604 -0.653479,1.38505 0.143575,0.14358 1.80919,-2.14668 1.80919,-2.48767 0,-0.33178 0.780193,-0.92016 0.969332,-0.73103 0.08954,0.0895 -0.180754,0.61252 -0.600645,1.16219 -0.419891,0.54966 -0.943017,1.35657 -1.162502,1.79313 -0.244182,0.48569 -0.571596,0.76513 -0.843604,0.71999 -1.008181,-0.16727 -0.962586,4.45062 0.07122,7.21372 0.672966,1.79866 2.862974,5.13609 3.995757,6.08926 0.621497,0.52296 0.740432,0.78074 0.579076,1.25508 -0.111684,0.32833 -0.176523,0.6951 -0.144086,0.81506 0.03244,0.11996 -0.05056,0.15041 -0.184439,0.0677 -0.242164,-0.14966 -0.648591,0.49257 -0.684119,1.08105 -0.01024,0.16966 -0.343322,0.6094 -0.740176,0.97719 -0.442682,0.41026 -0.660468,0.82789 -0.563503,1.08058 0.08693,0.22653 0.04536,0.41187 -0.09237,0.41187 -0.137732,0 -0.403321,0.32743 -0.5902,0.72761 -0.703899,1.50733 -2.132744,6.33482 -2.251463,7.60677 -0.351628,3.76734 -0.382094,4.64783 -0.155988,4.50809 0.133618,-0.0826 0.327093,0.11947 0.429944,0.449 0.226258,0.72494 0.586107,0.98661 1.364147,0.99198 0.398597,0.003 0.54055,0.12512 0.442263,0.38125 -0.104067,0.2712 0.177099,0.44912 1.000492,0.63313 0.697361,0.15584 0.886555,0.26062 0.483778,0.26793 -0.363802,0.007 -1.239124,-0.18045 -1.94516,-0.41568 z m 40.104182,-5.49055 c -1.995853,-1.50031 -3.411255,-3.06103 -4.048282,-4.4639 -0.641929,-1.41368 -0.636542,-2.17435 0.0068,-0.95802 0.575225,1.08757 2.998346,3.88277 4.745313,5.47398 1.602531,1.45964 1.274961,1.43541 -0.703816,-0.0521 z m -4.800632,-6.90345 c 0.0127,-0.30823 0.07539,-0.37092 0.15985,-0.15985 0.07643,0.19099 0.06703,0.4192 -0.02088,0.50712 -0.08792,0.0879 -0.150453,-0.0684 -0.138965,-0.34727 z m -0.003,-4.77333 c -0.0098,-0.16361 0.160695,-0.80365 0.378976,-1.42233 0.474744,-1.34557 0.48006,-1.40556 0.103947,-1.17311 -0.344173,0.21271 -0.138478,-0.58713 0.514829,-2.00189 0.85421,-1.84983 5.001678,-5.19526 7.128005,-5.74958 1.529783,-0.39882 1.645928,-0.40384 1.645928,-0.0712 0,0.14552 -0.357188,0.26458 -0.79375,0.26458 -0.436563,0 -0.79375,0.11533 -0.79375,0.25628 0,0.14095 -0.198126,0.18025 -0.440278,0.0873 -0.286959,-0.11012 -0.376515,-0.0658 -0.257175,0.12732 0.103098,0.16681 -0.08026,0.43565 -0.419616,0.61526 -0.331499,0.17545 -1.103648,0.72738 -1.715891,1.22651 -0.612244,0.49913 -1.229096,0.83586 -1.370783,0.7483 -0.141684,-0.0876 -0.343765,-0.0198 -0.449064,0.15057 -0.129453,0.20945 -0.07111,0.24082 0.180155,0.0969 0.204385,-0.1171 -0.03421,0.21706 -0.530209,0.74257 -0.496002,0.52552 -0.989542,0.90127 -1.096757,0.83501 -0.107214,-0.0663 -0.265578,0.0636 -0.351919,0.28862 -0.08634,0.225 -0.04638,0.34074 0.0888,0.25719 0.135184,-0.0836 -0.115472,0.77347 -0.557011,1.90449 -1.136015,2.90993 -1.244322,3.15125 -1.264428,2.81726 z m 1.286317,-3.5991 c 0.163711,-0.46962 0.18874,-0.73751 0.05562,-0.59531 -0.282041,0.30128 -0.660279,1.44916 -0.477507,1.44916 0.06833,0 0.258183,-0.38423 0.421894,-0.85385 z m 1.606201,-2.45344 c 0.341775,-0.3638 0.561877,-0.66146 0.489116,-0.66146 -0.07276,0 -0.411924,0.29766 -0.7537,0.66146 -0.341775,0.3638 -0.561877,0.66146 -0.489116,0.66146 0.07276,0 0.411924,-0.29766 0.7537,-0.66146 z m 2.248958,-1.98437 c 0.26339,-0.29104 0.419359,-0.52917 0.346599,-0.52917 -0.07276,0 -0.347792,0.23813 -0.611182,0.52917 -0.26339,0.29104 -0.41936,0.52916 -0.346599,0.52916 0.07276,0 0.347792,-0.23812 0.611182,-0.52916 z m 1.984375,-1.47383 c 0,-0.0728 -0.238125,-0.005 -0.529167,0.15091 -0.291041,0.15576 -0.529166,0.34273 -0.529166,0.41549 0,0.0728 0.238125,0.005 0.529166,-0.15091 0.291042,-0.15576 0.529167,-0.34273 0.529167,-0.41549 z m 6.746875,0.41549 c -0.08994,-0.14552 -0.03743,-0.26458 0.116676,-0.26458 0.15411,0 0.280199,0.11906 0.280199,0.26458 0,0.14552 -0.0525,0.26459 -0.116676,0.26459 -0.06417,0 -0.190261,-0.11907 -0.280199,-0.26459 z m -27.715105,-3.35022 c 0.181901,-0.0734 0.479558,-0.0734 0.661459,0 0.181901,0.0734 0.03307,0.13345 -0.33073,0.13345 -0.363802,0 -0.51263,-0.0601 -0.330729,-0.13345 z m 8.114076,-0.18322 c -0.145876,-0.38014 -2.48311,-0.41624 -5.402096,-0.0834 l -1.455209,0.16591 1.5875,-0.37964 c 0.97554,-0.23329 2.811423,-0.36777 4.7625,-0.34884 1.74625,0.0169 2.788047,0.0788 2.315105,0.13751 -0.521589,0.0647 -0.859896,0.25626 -0.859896,0.48682 0,0.48212 -0.764508,0.4996 -0.947904,0.0217 z m 3.263008,-0.61053 c 0.181901,-0.0734 0.479557,-0.0734 0.661458,0 0.181901,0.0734 0.03307,0.13345 -0.330729,0.13345 -0.363802,0 -0.51263,-0.0601 -0.330729,-0.13345 z m 34.858855,-1.14769 c -0.0899,-0.14552 -0.0445,-0.26459 0.10106,-0.26459 0.14552,0 0.33817,0.11907 0.42811,0.26459 0.0899,0.14552 0.0444,0.26458 -0.10107,0.26458 -0.14552,0 -0.33816,-0.11906 -0.4281,-0.26458 z M 84.684091,117.3085 c -0.264197,-0.29194 -0.41784,-0.59331 -0.341429,-0.66972 0.07641,-0.0764 0.336391,0.16245 0.577739,0.53079 0.527315,0.80478 0.422204,0.86658 -0.23631,0.13893 z m -44.309082,-2.31287 c -0.0039,-0.18156 0.40956,-0.77192 0.918883,-1.31189 0.509322,-0.53998 0.926041,-0.83617 0.926041,-0.65819 0,0.43237 -1.83576,2.39266 -1.844924,1.97008 z m 29.476559,-3.30791 c -2.758697,-2.98304 -3.15132,-3.53084 -1.094592,-1.52719 1.266399,1.23371 2.302541,2.27551 2.302541,2.3151 0,0.28757 -0.53771,-0.0632 -1.207949,-0.78791 z m -27.70219,0.2979 c 0.179475,-0.18082 0.39297,-0.26211 0.474431,-0.18065 0.08146,0.0815 -0.06538,0.22941 -0.326319,0.32876 -0.377084,0.14359 -0.407475,0.1132 -0.148112,-0.14811 z m 27.587223,-3.40675 c -1.389462,-1.24707 -2.10017,-1.6738 -1.694527,-1.01745 0.12064,0.19519 0.07216,0.23338 -0.134279,0.10579 -0.177686,-0.10981 -0.254526,-0.2682 -0.170751,-0.35198 0.08377,-0.0838 -0.107654,-0.42904 -0.425395,-0.76725 -0.928028,-0.98784 -0.378809,-0.71356 1.350976,0.67468 1.336106,1.0723 2.931512,2.70198 2.614533,2.6707 -0.04694,-0.005 -0.740193,-0.59615 -1.540557,-1.31449 z m -7.974336,-4.7782 -0.624623,-0.54487 0.727604,0.443 c 0.400183,0.24366 0.727605,0.48885 0.727605,0.54487 0,0.2066 -0.221057,0.0887 -0.830586,-0.443 z m 3.49412,-0.0172 c -0.02895,-0.70301 0.683133,-2.48389 1.466511,-3.66766 0.839057,-1.267899 3.270435,-3.092057 5.394955,-4.0476 0.800364,-0.35998 1.99099,-1.034549 2.645833,-1.499043 4.074695,-2.890264 7.772009,-5.02942 8.109509,-4.69192 0.07042,0.07042 -0.278218,0.262104 -0.774743,0.425971 -1.00407,0.331374 -5.05357,2.811321 -6.636464,4.064226 -0.561822,0.444696 -1.871509,1.235696 -2.910417,1.757778 -4.281601,2.151629 -5.94474,3.831439 -6.939743,7.009308 -0.185759,0.59328 -0.345707,0.8853 -0.355441,0.64894 z m 18.23855,-14.254621 c 0.218281,-0.141064 0.515937,-0.25648 0.661458,-0.25648 0.145521,0 0.08599,0.115416 -0.132292,0.25648 -0.218281,0.141064 -0.515937,0.25648 -0.661458,0.25648 -0.145521,0 -0.08599,-0.115416 0.132292,-0.25648 z m 1.5875,-0.661458 c 0.363802,-0.207968 0.78052,-0.378124 0.926041,-0.378124 0.145521,0 -0.03307,0.170156 -0.396875,0.378124 -0.363802,0.207968 -0.780521,0.378123 -0.926041,0.378123 -0.145521,0 0.03307,-0.170155 0.396875,-0.378123 z m 1.5875,-0.661459 c 0.218281,-0.141064 0.515937,-0.25648 0.661458,-0.25648 0.145521,0 0.08599,0.115416 -0.132292,0.25648 -0.218281,0.141064 -0.515937,0.25648 -0.661458,0.25648 -0.145521,0 -0.08599,-0.115416 0.132292,-0.25648 z m 2.38125,-0.926041 c 0.363802,-0.207969 0.780521,-0.378124 0.926041,-0.378124 0.145521,0 -0.03307,0.170155 -0.396875,0.378124 -0.363802,0.207968 -0.78052,0.378123 -0.926041,0.378123 -0.145521,0 0.03307,-0.170155 0.396875,-0.378123 z"
       id="path205"
       inkscape:connector-curvature="0" />
  </g>
</svg>
