<?xml version="1.0" encoding="UTF-8" standalone="no"?>
<!-- Created with Inkscape (http://www.inkscape.org/) -->

<svg
   xmlns:dc="http://purl.org/dc/elements/1.1/"
   xmlns:cc="http://creativecommons.org/ns#"
   xmlns:rdf="http://www.w3.org/1999/02/22-rdf-syntax-ns#"
   xmlns:svg="http://www.w3.org/2000/svg"
   xmlns="http://www.w3.org/2000/svg"
   xmlns:sodipodi="http://sodipodi.sourceforge.net/DTD/sodipodi-0.dtd"
   xmlns:inkscape="http://www.inkscape.org/namespaces/inkscape"
   width="210mm"
   height="297mm"
   viewBox="0 0 210 297"
   version="1.1"
   id="svg1026"
   sodipodi:docname="HardCoverLetraGrande.svg"
   inkscape:version="0.92.4 (5da689c313, 2019-01-14)">
  <defs
     id="defs1020" />
  <sodipodi:namedview
     id="base"
     pagecolor="#ffffff"
     bordercolor="#666666"
     borderopacity="1.0"
     inkscape:pageopacity="0.0"
     inkscape:pageshadow="2"
     inkscape:zoom="0.35"
     inkscape:cx="-675.45557"
     inkscape:cy="482.30847"
     inkscape:document-units="mm"
     inkscape:current-layer="layer1"
     showgrid="false"
     inkscape:window-width="1600"
     inkscape:window-height="837"
     inkscape:window-x="-8"
     inkscape:window-y="-8"
     inkscape:window-maximized="1" />
  <metadata
     id="metadata1023">
    <rdf:RDF>
      <cc:Work
         rdf:about="">
        <dc:format>image/svg+xml</dc:format>
        <dc:type
           rdf:resource="http://purl.org/dc/dcmitype/StillImage" />
        <dc:title />
      </cc:Work>
    </rdf:RDF>
  </metadata>
  <g
     inkscape:label="Layer 1"
     inkscape:groupmode="layer"
     id="layer1">
    <text
       xml:space="preserve"
       style="font-style:normal;font-variant:normal;font-weight:bold;font-stretch:normal;font-size:25.39999962px;line-height:1.25;font-family:'Day Roman';-inkscape-font-specification:'Day Roman, Bold';letter-spacing:0px;word-spacing:0px;fill:#000000;fill-opacity:1;stroke:none;stroke-width:0.26458332"
       x="26.12936"
       y="62.654758"
       id="text1045"><tspan
         sodipodi:role="line"
         id="tspan1043"
         x="26.12936"
         y="62.654758"
         style="font-style:normal;font-variant:normal;font-weight:bold;font-stretch:normal;font-size:25.39999962px;font-family:'Day Roman';-inkscape-font-specification:'Day Roman, Bold';stroke-width:0.26458332">Santa Biblia</tspan></text>
    <text
       xml:space="preserve"
       style="font-style:normal;font-variant:normal;font-weight:bold;font-stretch:normal;font-size:10.58333302px;line-height:1.25;font-family:'Day Roman';-inkscape-font-specification:'Day Roman, Bold';text-align:center;letter-spacing:0px;word-spacing:0px;text-anchor:middle;fill:#000000;fill-opacity:1;stroke:none;stroke-width:0.26458332"
       x="105.99957"
       y="89.113091"
       id="text1049"><tspan
         sodipodi:role="line"
         id="tspan1047"
         x="105.99957"
         y="89.113091"
         style="font-style:normal;font-variant:normal;font-weight:bold;font-stretch:normal;font-family:'Day Roman';-inkscape-font-specification:'Day Roman, Bold';text-align:center;text-anchor:middle;stroke-width:0.26458332">del Oso Pinolero</tspan><tspan
         sodipodi:role="line"
         x="105.99957"
         y="102.34225"
         style="font-style:normal;font-variant:normal;font-weight:bold;font-stretch:normal;font-family:'Day Roman';-inkscape-font-specification:'Day Roman, Bold';text-align:center;text-anchor:middle;stroke-width:0.26458332"
         id="tspan15" /><tspan
         sodipodi:role="line"
         x="105.99957"
         y="115.57143"
         style="font-style:normal;font-variant:normal;font-weight:bold;font-stretch:normal;font-family:'Day Roman';-inkscape-font-specification:'Day Roman, Bold';text-align:center;text-anchor:middle;stroke-width:0.26458332"
         id="tspan17">Letra Grande</tspan></text>
    <text
       xml:space="preserve"
       style="font-style:normal;font-variant:normal;font-weight:bold;font-stretch:normal;font-size:10.58333302px;line-height:1.25;font-family:'Day Roman';-inkscape-font-specification:'Day Roman, Bold';text-align:center;letter-spacing:0px;word-spacing:0px;text-anchor:middle;fill:#000000;fill-opacity:1;stroke:none;stroke-width:0.26458332"
       x="105.92201"
       y="262.98212"
       id="text1053"><tspan
         sodipodi:role="line"
         x="105.92201"
         y="262.98212"
         style="font-style:normal;font-variant:normal;font-weight:bold;font-stretch:normal;font-family:'Day Roman';-inkscape-font-specification:'Day Roman, Bold';text-align:center;text-anchor:middle;stroke-width:0.26458332"
         id="tspan1055">Reina-Valera</tspan><tspan
         sodipodi:role="line"
         x="105.92201"
         y="276.21127"
         style="font-style:normal;font-variant:normal;font-weight:bold;font-stretch:normal;font-family:'Day Roman';-inkscape-font-specification:'Day Roman, Bold';text-align:center;text-anchor:middle;stroke-width:0.26458332"
         id="tspan1074">1909</tspan></text>
    <path
       style="fill:#000000;stroke:#000000;stroke-width:0.76499999;stroke-miterlimit:4;stroke-dasharray:none;stroke-opacity:1"
       d="m 108.57794,215.62102 c -3.23315,-0.56939 -6.67027,-1.88613 -8.898802,-3.40907 -0.818962,-0.55966 -2.482092,-2.03902 -3.695852,-3.28747 l -2.20683,-2.2699 -1.28318,0.65023 c -1.47402,0.74695 -4.63533,2.0347 -7.135439,2.9066 -0.945891,0.32987 -2.552541,1.09051 -3.570351,1.69031 -2.34164,1.37995 -4.81315,2.31714 -7.01299,2.65931 -4.01756,0.6249 -7.89532,1.06784 -9.12812,1.04267 -0.74801,-0.0153 0.74675,-0.29241 3.43958,-0.63772 7.84049,-1.00539 8.55925,-1.19206 12.22809,-3.17577 1.19657,-0.64697 3.63773,-1.75832 5.424789,-2.46965 1.787062,-0.71133 4.117831,-1.69053 5.179491,-2.176 l 1.9303,-0.88267 1.48378,1.66573 c 2.52626,2.83603 7.589544,6.17749 8.709464,5.74773 0.25336,-0.0972 0.32599,-0.0418 0.20401,0.15554 -0.12767,0.20657 -0.0414,0.2497 0.26458,0.13229 0.30148,-0.11569 0.3917,-0.0734 0.26852,0.12592 -0.13063,0.21136 0.0414,0.24722 0.58157,0.12122 0.59784,-0.13944 0.67952,-0.11404 0.37019,0.11511 -0.31247,0.2315 -0.24045,0.25984 0.33869,0.13329 0.40457,-0.0884 1.77378,0.0341 3.04272,0.27227 1.58578,0.29762 2.84485,0.37568 4.02694,0.24964 0.94588,-0.10084 2.31509,-0.23572 3.0427,-0.29973 2.60301,-0.22897 3.08249,-0.39461 4.24534,-1.46649 0.63532,-0.58561 1.25844,-1.00091 1.38472,-0.92287 0.28153,0.174 3.92165,-3.49621 5.05499,-5.09678 0.45337,-0.6403 0.82433,-1.35015 0.82433,-1.57745 0,-0.2273 0.54001,-1.50867 1.20001,-2.84748 1.53477,-3.11325 2.04996,-5.51665 1.92132,-8.96297 -0.10543,-2.82378 -0.86318,-5.34438 -2.31689,-7.70694 -0.97417,-1.58318 -2.58193,-3.27263 -3.11885,-3.27732 -0.3666,-0.003 -0.38735,-0.0524 -0.0991,-0.23501 0.46687,-0.29571 0.20049,-0.71869 -0.76808,-1.21955 -0.70552,-0.36484 -0.86046,-0.351 -1.93952,0.17325 -0.6915,0.33596 -1.36688,0.49527 -1.64582,0.38824 -0.4107,-0.1576 -0.36267,-0.25869 0.36422,-0.76669 0.80858,-0.56508 1.07679,-0.98203 0.63174,-0.98203 -0.11807,0 -0.47418,-0.24176 -0.79135,-0.53725 -0.55727,-0.51918 -0.62795,-0.52296 -2.10041,-0.11243 -3.08105,0.859 -3.08418,0.86076 -3.74588,2.10846 -0.71969,1.35705 -0.62776,1.68422 0.30206,1.07498 0.35166,-0.23042 0.71846,-0.33988 0.81508,-0.24325 0.0966,0.0966 0.41455,-0.0405 0.70649,-0.30466 0.29194,-0.2642 0.53079,-0.41069 0.53079,-0.32553 0,0.15064 0.98325,-0.0905 1.91824,-0.47044 0.25465,-0.10349 0.46202,-0.0861 0.46079,0.0386 -10e-4,0.12471 -0.94247,0.6857 -2.09169,1.24666 -2.49712,1.21891 -5.26701,3.47464 -6.36202,5.18107 -0.43689,0.68083 -1.06452,1.48226 -1.39473,1.78096 -0.85271,0.77134 -4.18464,2.99826 -4.486,2.99826 -0.60616,0 -0.0257,-1.21933 0.76963,-1.61668 0.86853,-0.43393 0.88894,-0.76457 0.0472,-0.76457 -0.25687,0 -0.72138,-0.35719 -1.03224,-0.79375 -0.56124,-0.78817 -0.35153,-1.13925 0.24856,-0.41616 0.17236,0.20767 0.81927,0.54996 1.43758,0.76064 0.9208,0.31375 1.20824,0.3216 1.58873,0.0434 0.25549,-0.18682 0.4566,-0.43981 0.44691,-0.5622 -0.01,-0.1224 0.0915,-0.22253 0.22492,-0.22253 0.13339,0 0.32603,-0.0835 0.42809,-0.18557 0.24151,-0.24151 -1.08814,-0.57535 -1.56411,-0.39271 -0.20219,0.0776 -0.75788,-0.26457 -1.24364,-0.76575 -0.67375,-0.69513 -0.87204,-1.12128 -0.85193,-1.83093 0.0144,-0.50871 -0.0811,-0.85863 -0.21215,-0.7776 -0.13112,0.081 -0.24778,0.40819 -0.25927,0.72702 -0.0115,0.31884 -0.0812,0.43013 -0.15489,0.24732 -0.0737,-0.1828 -0.24289,-0.26507 -0.37598,-0.18282 -0.1331,0.0823 -0.242,-0.0361 -0.242,-0.26293 0,-0.22687 0.1786,-0.41249 0.39688,-0.41249 0.58283,0 0.48358,-0.62244 -0.19844,-1.24448 -0.32741,-0.29864 -1.8894,-1.34992 -3.47107,-2.33618 -2.981504,-1.85912 -7.288484,-5.4144 -8.898194,-7.34518 -0.89534,-1.07391 -0.86987,-1.06252 0.76795,0.34348 0.9317,0.79983 2.48748,2.16976 3.45728,3.04429 0.96981,0.87453 3.342894,2.58781 5.273534,3.80728 1.93061,1.21948 3.61175,2.46848 3.73583,2.77557 0.14387,0.35604 0.23168,0.4119 0.24238,0.15417 0.009,-0.22229 -0.32654,-1.06588 -0.74615,-1.87464 -0.42136,-0.81213 -0.83289,-2.11188 -0.91919,-2.90312 l -0.15627,-1.43265 0.51302,1.58144 c 0.28216,0.8698 0.71722,1.96065 0.96681,2.42411 l 0.4538,0.84265 0.747,-1.1779 0.74701,-1.1779 -0.55783,-2.03995 c -0.44322,-1.62083 -0.58456,-3.07279 -0.68793,-7.06704 -0.11797,-4.55759 -0.0656,-5.41008 0.56039,-9.12812 0.37978,-2.25557 0.86614,-4.75589 1.0808,-5.55625 0.21465,-0.80036 0.3917,-1.70235 0.39343,-2.00441 0.005,-0.96873 2.84271,-6.3638 3.97741,-7.56331 l 1.08587,-1.1479 -1.17387,1.71979 c -0.64564,0.94588 -1.25965,1.9979 -1.3645,2.33781 -0.16709,0.54178 -0.1304,0.58526 0.29746,0.35245 0.87881,-0.47821 2.16734,-2.00546 2.71624,-3.21943 0.55773,-1.23355 0.73963,-3.175 0.29748,-3.175 -0.13886,0 -0.66687,0.56555 -1.17338,1.25677 -0.5065,0.69123 -1.13704,1.49019 -1.40118,1.77547 -0.26415,0.28529 -0.71839,0.89543 -1.00944,1.35587 -0.29104,0.46043 -0.91392,1.41764 -1.38417,2.12713 -0.47026,0.70948 -0.93,1.67692 -1.02163,2.14986 -0.0916,0.47295 -0.26442,0.8599 -0.38394,0.8599 -0.11952,0 -0.29573,0.2471 -0.39158,0.54911 -0.0959,0.30201 -0.22511,0.49827 -0.28724,0.43614 -0.21616,-0.21614 1.47362,-4.00587 2.29794,-5.1537 0.88886,-1.23772 0.88972,-1.61009 0.003,-1.13534 -1.00889,0.53994 -0.56959,0.056 0.4895,-0.53928 0.57273,-0.32189 1.46628,-1.20227 1.98567,-1.95639 1.79192,-2.60179 2.83437,-3.08337 3.18811,-1.47281 0.20948,0.95376 -0.0333,1.91721 -0.93652,3.71602 -0.85064,1.69414 -1.9759,2.85127 -3.05283,3.13929 -1.63182,0.43641 -2.52343,3.52317 -4.21372,14.58779 -0.12169,0.79665 -10e-4,0.66726 0.86102,-0.92604 1.39387,-2.57515 4.30105,-6.45115 6.0105,-8.01349 1.80563,-1.65024 4.9565,-3.53603 7.63601,-4.57013 3.9418,-1.52126 8.38402,-2.6673 10.89606,-2.81105 2.26482,-0.12961 2.53,-0.0847 5.42395,0.91882 9.01682,3.1267 12.22526,5.08206 16.3019,9.93515 2.36268,2.81264 3.12963,4.15232 2.86126,4.99788 -0.31304,0.9863 -3.01463,3.34315 -5.52713,4.82184 -2.9904,1.75993 -6.77674,3.33239 -9.93186,4.12465 -1.23693,0.31059 -3.38006,0.85368 -4.7625,1.20686 -1.38245,0.35319 -3.10886,0.75556 -3.83646,0.89417 -0.7276,0.13861 -3.04932,0.62309 -5.15937,1.07663 -2.11005,0.45353 -4.36247,0.93379 -5.00534,1.06725 -0.64288,0.13346 -1.21969,0.29345 -1.28178,0.35554 -0.12749,0.1275 1.53325,1.21119 3.13786,2.04755 0.58698,0.30595 1.26359,0.86761 1.50358,1.24814 0.24001,0.38052 0.85729,1.18513 1.37174,1.78802 0.95534,1.11954 1.55325,2.18209 2.80751,4.98926 0.57884,1.29549 0.73341,2.10484 0.84033,4.40007 0.19013,4.08095 -0.56246,7.55673 -2.13067,9.84044 -0.28205,0.41072 -0.67148,1.27399 -0.86541,1.91837 -0.48399,1.60819 -1.54409,3.04857 -4.07513,5.53695 -1.18412,1.16417 -2.41293,2.57482 -2.7307,3.13479 -0.76457,1.34732 -1.62732,1.74917 -4.37667,2.03852 -3.28928,0.34619 -5.34485,0.27606 -8.57313,-0.29248 z m 5.15646,-0.17744 c -0.47294,-0.0587 -1.24686,-0.0587 -1.71979,0 -0.47295,0.0587 -0.086,0.10672 0.85988,0.10672 0.94589,0 1.33285,-0.048 0.85991,-0.10672 z m -3.43456,-0.24673 c -0.17912,-0.0725 -0.53631,-0.0769 -0.79375,-0.01 -0.25742,0.0671 -0.11086,0.12638 0.3257,0.13177 0.43657,0.005 0.64719,-0.0495 0.46805,-0.12197 z m 7.80327,-0.008 c -0.25296,-0.0662 -0.72921,-0.0686 -1.05834,-0.005 -0.32912,0.0633 -0.12215,0.11747 0.45994,0.12041 0.58208,0.003 0.85137,-0.0488 0.5984,-0.11507 z m -9.53361,-0.24265 c -0.0879,-0.0879 -0.31612,-0.0973 -0.50712,-0.0209 -0.21106,0.0845 -0.14837,0.14715 0.15987,0.15985 0.2789,0.0115 0.43517,-0.0511 0.34725,-0.13897 z m -1.32291,-0.26457 c -0.0879,-0.0879 -0.31612,-0.0973 -0.50711,-0.0209 -0.21108,0.0845 -0.14839,0.14715 0.15984,0.15984 0.27891,0.0115 0.43519,-0.051 0.34727,-0.13896 z m 13.33458,-0.30318 c 0.3291,-0.41964 0.31975,-0.42901 -0.0999,-0.0999 -0.44073,0.34564 -0.58089,0.56291 -0.36313,0.56291 0.0549,0 0.2633,-0.20835 0.46303,-0.46302 z m 1.05833,-1.5875 c 0.32911,-0.41966 0.31975,-0.42901 -0.0999,-0.0999 -0.25467,0.19971 -0.46303,0.40808 -0.46303,0.46301 0,0.21777 0.21728,0.0776 0.56292,-0.36312 z m -10.75542,-25.14916 c 0.077,-0.20074 0.0782,-0.46506 0.003,-0.58739 -0.0756,-0.12235 0.002,-0.30859 0.17232,-0.41388 0.21185,-0.13094 0.23898,-0.074 0.0858,0.18014 -0.18139,0.30098 -0.13335,0.29802 0.25271,-0.0156 0.2819,-0.22898 0.35757,-0.42691 0.1852,-0.48437 -0.19959,-0.0665 -0.20933,-0.25066 -0.0309,-0.58407 0.14332,-0.2678 0.33223,-0.93772 0.4198,-1.48872 0.17959,-1.13002 1.41754,-3.07828 2.34007,-3.68273 0.56603,-0.37088 4.06477,-1.46916 6.23573,-1.95746 3.47424,-0.78141 4.85275,-1.20985 4.1515,-1.29025 -2.68779,-0.30823 3.42984,-2.14071 12.12037,-3.63056 3.34142,-0.57284 4.52522,-0.8183 4.81749,-0.99895 0.41622,-0.25722 1.92939,-0.4142 1.92939,-0.20015 0,0.3038 -3.18191,1.16939 -6.35,1.72742 -0.21828,0.0385 -0.75338,0.21391 -1.1891,0.38993 -0.43574,0.17603 -1.5073,0.42342 -2.38125,0.54978 -1.76044,0.25454 -8.12658,1.88381 -7.97051,2.03989 0.0544,0.0543 1.33383,-0.15846 2.84328,-0.47292 1.50945,-0.31446 3.51836,-0.72705 4.46424,-0.91687 0.94589,-0.18982 2.67229,-0.58963 3.83646,-0.88846 1.16417,-0.29883 3.1287,-0.77601 4.36563,-1.0604 2.83513,-0.65183 6.77764,-2.14231 6.35599,-2.40291 -0.30148,-0.18633 0.46648,-0.68306 4.22734,-2.73439 0.80036,-0.43655 1.73916,-1.01277 2.0862,-1.28048 0.79945,-0.6167 1.26268,-0.63041 0.80199,-0.0237 -0.19339,0.25466 0.0804,0.0617 0.60849,-0.42884 0.52805,-0.49053 0.90171,-1.04403 0.83034,-1.23001 -0.0714,-0.18598 0.0158,-0.42812 0.19374,-0.53808 0.22044,-0.13629 0.25528,-0.0897 0.10939,0.1464 -0.14163,0.22917 -0.11071,0.28247 0.0914,0.15755 0.65266,-0.40336 0.21144,-1.21082 -2.34695,-4.29508 -4.16013,-5.01529 -7.74818,-7.27973 -16.00065,-10.09814 -3.85435,-1.31635 -5.15818,-1.51882 -7.17835,-1.11473 -2.25393,0.45085 -6.82888,1.78232 -8.82414,2.56813 -2.27651,0.89656 -5.84559,3.01094 -5.64108,3.34184 0.0924,0.14955 0.0266,0.1782 -0.15366,0.0668 -0.41777,-0.2582 -3.47095,2.8629 -4.72066,4.82566 -0.52711,0.82788 -1.278,1.92196 -1.66863,2.43128 -0.39065,0.50932 -1.20341,1.84317 -1.80615,2.9641 l -1.09588,2.03806 v 3.13887 c 0,2.98953 0.28187,5.49636 0.78037,6.94022 0.12559,0.3638 0.30258,0.88872 0.39328,1.16649 0.15524,0.47545 0.20707,0.46546 0.8847,-0.17053 0.88959,-0.83494 2.98171,-1.79427 4.25967,-1.95325 0.79702,-0.0991 0.58615,0.0647 -1.25471,0.97481 -2.35452,1.16409 -4.32395,2.91227 -4.96338,4.40575 -0.4457,1.04104 -0.47318,2.98622 -0.0552,3.9037 0.47954,1.05246 3.46206,1.82934 3.78564,0.98608 z m 33.47584,-15.25687 c 0,-0.0676 0.26789,-0.26572 0.59531,-0.44019 0.53981,-0.28763 0.56145,-0.27618 0.23219,0.12297 -0.33809,0.40985 -0.8275,0.59747 -0.8275,0.31722 z m 2.11667,-0.93536 c 0,-0.14551 0.12609,-0.26457 0.28019,-0.26457 0.15412,0 0.20661,0.11906 0.11669,0.26457 -0.0899,0.14552 -0.21603,0.2646 -0.28021,0.2646 -0.0642,0 -0.11667,-0.11908 -0.11667,-0.2646 z m 8.86354,-5.02708 c 0.26339,-0.29104 0.53843,-0.52917 0.61119,-0.52917 0.0728,0 -0.0832,0.23813 -0.3466,0.52917 -0.26339,0.29105 -0.53842,0.52918 -0.61118,0.52918 -0.0728,0 0.0832,-0.23813 0.34659,-0.52918 z m -40.88599,15.2797 0.62082,-0.85991 -0.70336,0.64143 c -0.38685,0.35279 -0.70336,0.73976 -0.70336,0.85991 0,0.36737 0.14014,0.25301 0.7859,-0.64143 z m 36.55197,-11.72587 c 1.41867,-0.8103 2.734,-1.6735 2.92299,-1.91823 0.31827,-0.4122 0.30494,-0.41392 -0.18102,-0.0234 -0.28855,0.23189 -1.53665,0.97298 -2.77358,1.64687 -2.59108,1.41164 -3.14037,1.75827 -2.79524,1.76393 0.13609,0.002 1.40817,-0.65892 2.82685,-1.46922 z m -92.993435,45.19833 c -0.76807,-0.25589 -1.50543,-0.72758 -1.8357,-1.1743 -0.3036,-0.41063 -0.70117,-0.74661 -0.8835,-0.74661 -0.58526,0 -0.68529,-0.53357 -0.23021,-1.2281 0.26345,-0.40207 0.53094,-1.60262 0.66062,-2.96493 0.38076,-4 2.2264,-8.9136 4.65329,-12.38833 l 1.14013,-1.63239 -0.61757,-0.40465 c -0.67697,-0.44357 -2.76063,-3.30826 -3.5929,-4.93963 -0.81804,-1.6035 -1.30956,-4.12916 -1.31384,-6.75111 -0.004,-2.21815 0.0557,-2.48963 0.80124,-3.66518 0.442831,-0.69828 1.03245,-1.86782 1.31027,-2.59898 0.27782,-0.73115 1.0273,-2.11791 1.66552,-3.08169 0.63822,-0.96376 1.596941,-2.42028 2.1305,-3.23669 1.35568,-2.07438 3.992741,-4.88792 5.295751,-5.65017 0.60276,-0.35261 1.9889,-1.01076 3.08031,-1.46256 1.86335,-0.77134 2.12153,-0.81106 4.23333,-0.65129 1.5979,0.12088 2.80022,0.39817 4.1532,0.95783 1.95728,0.80963 5.769111,3.11543 5.16698,3.12554 -0.18541,0.003 -0.93173,-0.40337 -1.65849,-0.90329 -1.44622,-0.99482 -3.71184,-2.13183 -4.75127,-2.38444 -0.36381,-0.0884 0.0351,0.20765 0.88636,0.65791 0.85131,0.45026 1.48671,0.87977 1.41202,0.95446 -0.0747,0.0747 -0.41403,-0.0445 -0.75407,-0.26478 -0.98755,-0.63984 -3.41582,-1.42943 -4.85161,-1.57757 -1.59843,-0.16492 -2.8382,0.0371 -2.59934,0.42359 0.10745,0.17387 0.006,0.21552 -0.26767,0.11034 -0.24215,-0.0929 -0.44028,-0.0716 -0.44028,0.0475 0,0.21225 -2.27542,1.25168 -2.60854,1.19161 -0.0933,-0.0168 -0.32516,0.19154 -0.51531,0.46302 -0.36946,0.52747 -1.00449,0.70129 -0.68734,0.18814 0.1179,-0.19078 0.0725,-0.23358 -0.12099,-0.11401 -0.17038,0.1053 -0.25294,0.28342 -0.18347,0.39583 0.18301,0.29611 -1.56912,1.92359 -1.81077,1.68194 -0.1117,-0.1117 -0.1634,-0.0245 -0.1149,0.19379 0.0485,0.21828 -0.0408,0.37372 -0.19843,0.34542 -0.15765,-0.0283 -0.286641,0.0913 -0.286641,0.26565 0,0.17441 -0.948179,1.56677 -2.107059,3.09416 -2.27691,3.00091 -2.990651,4.11704 -3.552411,5.55518 -0.19895,0.50933 -0.712259,1.49285 -1.140679,2.18562 -0.428431,0.69277 -0.722491,1.31604 -0.653481,1.38505 0.14357,0.14358 1.80919,-2.14668 1.80919,-2.48768 0,-0.33177 0.78019,-0.92015 0.96933,-0.73102 0.0895,0.0895 -0.18075,0.61252 -0.60064,1.16219 -0.419899,0.54966 -0.94302,1.35657 -1.16251,1.79313 -0.244179,0.48569 -0.571589,0.76513 -0.8436,0.71999 -1.00818,-0.16727 -0.96259,4.45062 0.0712,7.21372 0.67297,1.79866 2.86297,5.13609 3.99576,6.08926 0.62149,0.52296 0.74043,0.78074 0.57907,1.25508 -0.11168,0.32833 -0.17652,0.6951 -0.14408,0.81506 0.0324,0.11996 -0.0506,0.15041 -0.18444,0.0677 -0.24217,-0.14967 -0.64859,0.49256 -0.68412,1.08105 -0.0102,0.16965 -0.34332,0.60939 -0.74018,0.97718 -0.44268,0.41026 -0.66047,0.8279 -0.5635,1.08058 0.0869,0.22653 0.0454,0.41189 -0.0924,0.41189 -0.13773,0 -0.40332,0.32741 -0.5902,0.72759 -0.7039,1.50734 -2.13274,6.33483 -2.25146,7.60678 -0.35163,3.76733 -0.3821,4.64784 -0.15599,4.50809 0.13362,-0.0826 0.32709,0.11948 0.42994,0.449 0.22626,0.72494 0.58611,0.98661 1.36415,0.99197 0.398601,0.003 0.540551,0.12513 0.44226,0.38126 -0.10406,0.27119 0.1771,0.44912 1.00049,0.63314 0.697371,0.15582 0.88656,0.26062 0.48378,0.26792 -0.3638,0.007 -1.23912,-0.18046 -1.94516,-0.41569 z m 40.104181,-5.49055 c -1.99586,-1.50031 -3.41126,-3.06103 -4.04828,-4.4639 -0.64193,-1.41368 -0.63655,-2.17435 0.007,-0.95802 0.57522,1.08757 2.99834,3.88277 4.74531,5.47398 1.602544,1.45964 1.274974,1.43541 -0.70382,-0.0521 z m -4.80063,-6.90345 c 0.0127,-0.30823 0.0754,-0.37092 0.15985,-0.15985 0.0764,0.19099 0.067,0.4192 -0.0209,0.50712 -0.0879,0.0879 -0.15046,-0.0684 -0.13897,-0.34727 z m -0.003,-4.77333 c -0.01,-0.16361 0.16069,-0.80365 0.37897,-1.42233 0.47475,-1.34557 0.48006,-1.40556 0.10395,-1.17311 -0.34417,0.21271 -0.13848,-0.58713 0.51483,-2.00189 0.85421,-1.84983 5.001682,-5.19526 7.128014,-5.74958 1.52979,-0.39882 1.64593,-0.40384 1.64593,-0.0712 0,0.14552 -0.35719,0.26458 -0.79375,0.26458 -0.43657,0 -0.79375,0.11533 -0.79375,0.25628 0,0.14095 -0.19813,0.18025 -0.44029,0.0873 -0.28696,-0.11012 -0.37651,-0.0658 -0.25717,0.12732 0.1031,0.1668 -0.0803,0.43564 -0.41961,0.61525 -0.33151,0.17546 -1.103662,0.72738 -1.715904,1.22652 -0.61224,0.49912 -1.2291,0.83585 -1.37078,0.74829 -0.14169,-0.0876 -0.34377,-0.0198 -0.44907,0.15057 -0.12945,0.20945 -0.0711,0.24083 0.18016,0.0969 0.20438,-0.11709 -0.0342,0.21707 -0.53021,0.74258 -0.496,0.52552 -0.98954,0.90127 -1.09676,0.83501 -0.10721,-0.0663 -0.26558,0.0636 -0.35192,0.28862 -0.0863,0.225 -0.0464,0.34073 0.0888,0.25719 0.13519,-0.0836 -0.11547,0.77347 -0.55701,1.90449 -1.13601,2.90993 -1.24432,3.15124 -1.26443,2.81726 z m 1.2863,-3.5991 c 0.16371,-0.46962 0.18874,-0.73751 0.0556,-0.59531 -0.28204,0.30128 -0.66028,1.44916 -0.4775,1.44916 0.0683,0 0.25818,-0.38423 0.42189,-0.85385 z m 1.6062,-2.45344 c 0.34178,-0.3638 0.56188,-0.66146 0.48912,-0.66146 -0.0728,0 -0.41192,0.29766 -0.7537,0.66146 -0.34178,0.3638 -0.56188,0.66146 -0.48912,0.66146 0.0728,0 0.41193,-0.29766 0.7537,-0.66146 z m 2.24896,-1.98437 c 0.26339,-0.29104 0.41936,-0.52917 0.3466,-0.52917 -0.0728,0 -0.34779,0.23813 -0.61118,0.52917 -0.26339,0.29104 -0.41936,0.52916 -0.3466,0.52916 0.0728,0 0.34779,-0.23812 0.61118,-0.52916 z m 1.984394,-1.47383 c 0,-0.0728 -0.23813,-0.005 -0.529172,0.15091 -0.29105,0.15576 -0.52918,0.34273 -0.52918,0.41549 0,0.0728 0.23813,0.005 0.52918,-0.15091 0.291042,-0.15576 0.529172,-0.34273 0.529172,-0.41549 z m 6.74685,0.41549 c -0.0899,-0.14552 -0.0374,-0.26458 0.11669,-0.26458 0.1541,0 0.28019,0.11906 0.28019,0.26458 0,0.14552 -0.0525,0.26459 -0.11668,0.26459 -0.0642,0 -0.19026,-0.11907 -0.2802,-0.26459 z m -27.715094,-3.35022 c 0.1819,-0.0734 0.47955,-0.0734 0.66146,0 0.1819,0.0734 0.0331,0.13345 -0.33073,0.13345 -0.36381,0 -0.51263,-0.0601 -0.33073,-0.13345 z m 8.114071,-0.18322 c -0.14587,-0.38014 -2.483112,-0.41624 -5.40209,-0.0834 l -1.455211,0.16591 1.5875,-0.37964 c 0.975539,-0.23329 2.81142,-0.36777 4.7625,-0.34884 1.74625,0.0169 2.788041,0.0788 2.315101,0.13751 -0.521592,0.0647 -0.85989,0.25626 -0.85989,0.48682 0,0.48212 -0.764511,0.4996 -0.94791,0.0217 z m 3.263009,-0.61053 c 0.1819,-0.0734 0.47956,-0.0734 0.66146,0 0.1819,0.0734 0.0331,0.13345 -0.33073,0.13345 -0.3638,0 -0.51263,-0.0601 -0.33073,-0.13345 z m 34.858864,-1.14769 c -0.0899,-0.14552 -0.0445,-0.26459 0.10106,-0.26459 0.14551,0 0.33817,0.11907 0.42811,0.26459 0.0899,0.14552 0.0444,0.26458 -0.10108,0.26458 -0.14551,0 -0.33815,-0.11906 -0.42809,-0.26458 z m -22.22644,-4.49954 c -0.26421,-0.29194 -0.41784,-0.59331 -0.34144,-0.66972 0.0764,-0.0764 0.3364,0.16245 0.57775,0.53079 0.52729,0.80478 0.42218,0.86658 -0.23631,0.13893 z m -44.309104,-2.31287 c -0.004,-0.18156 0.409559,-0.77192 0.91889,-1.31189 0.50932,-0.53998 0.926039,-0.83617 0.926039,-0.65819 0,0.43237 -1.83576,2.39266 -1.844929,1.97008 z m 29.47656,-3.30791 c -2.758689,-2.98304 -3.15132,-3.53084 -1.094589,-1.52719 1.266399,1.23371 2.302539,2.27551 2.302539,2.3151 0,0.28757 -0.53771,-0.0632 -1.20795,-0.78791 z m -27.702191,0.2979 c 0.179481,-0.18082 0.39297,-0.26211 0.47443,-0.18065 0.0815,0.0815 -0.0654,0.22941 -0.326309,0.32876 -0.37709,0.14359 -0.40748,0.1132 -0.148121,-0.14811 z m 27.587232,-3.40675 c -1.38947,-1.24707 -2.10017,-1.6738 -1.694532,-1.01745 0.120642,0.19519 0.0722,0.23338 -0.134278,0.10579 -0.177692,-0.10981 -0.25453,-0.2682 -0.170752,-0.35198 0.0838,-0.0838 -0.107648,-0.42904 -0.425389,-0.76725 -0.928029,-0.98784 -0.378809,-0.71356 1.35097,0.67468 1.336109,1.0723 2.93151,2.70198 2.614531,2.6707 -0.0469,-0.005 -0.740191,-0.59615 -1.54055,-1.31449 z m -7.974341,-4.7782 -0.62462,-0.54487 0.7276,0.443 c 0.400181,0.24366 0.727611,0.48885 0.727611,0.54487 0,0.2066 -0.221062,0.0887 -0.830591,-0.443 z m 3.49412,-0.0172 c -0.029,-0.70301 0.68313,-2.48389 1.466511,-3.66766 0.83906,-1.2679 3.270438,-3.09205 5.394959,-4.0476 0.80036,-0.35998 1.99099,-1.03455 2.64583,-1.49904 4.07469,-2.89026 7.772024,-5.02942 8.109514,-4.69192 0.0704,0.0704 -0.27822,0.2621 -0.77473,0.42597 -1.004072,0.33137 -5.053594,2.81132 -6.636484,4.06423 -0.56182,0.44469 -1.87151,1.23569 -2.91042,1.75777 -4.2816,2.15163 -5.944739,3.83144 -6.939739,7.00931 -0.185761,0.59328 -0.34571,0.8853 -0.355441,0.64894 z m 18.238554,-14.25462 c 0.21829,-0.14106 0.51594,-0.25648 0.66146,-0.25648 0.14553,0 0.086,0.11542 -0.13228,0.25648 -0.21829,0.14106 -0.51594,0.25648 -0.66147,0.25648 -0.14552,0 -0.086,-0.11542 0.13229,-0.25648 z m 1.5875,-0.66146 c 0.3638,-0.20797 0.78051,-0.37812 0.92604,-0.37812 0.14552,0 -0.0331,0.17015 -0.39687,0.37812 -0.36381,0.20797 -0.78051,0.37813 -0.92605,0.37813 -0.14551,0 0.0331,-0.17016 0.39688,-0.37813 z m 1.5875,-0.66146 c 0.21827,-0.14106 0.51593,-0.25648 0.66145,-0.25648 0.14553,0 0.086,0.11542 -0.13228,0.25648 -0.21829,0.14107 -0.51594,0.25648 -0.66147,0.25648 -0.14552,0 -0.086,-0.11541 0.1323,-0.25648 z m 2.38125,-0.92604 c 0.3638,-0.20797 0.78051,-0.37812 0.92604,-0.37812 0.14552,0 -0.0331,0.17015 -0.39687,0.37812 -0.36381,0.20797 -0.78053,0.37813 -0.92605,0.37813 -0.14553,0 0.0331,-0.17016 0.39688,-0.37813 z"
       id="path205-3"
       inkscape:connector-curvature="0" />
  </g>
</svg>
